<svg xmlns="http://www.w3.org/2000/svg" xmlns:xlink="http://www.w3.org/1999/xlink" viewBox="0 0 42.44 275.84"><defs><style>.cls-1{isolation:isolate;}.cls-2,.cls-3{fill:#fff;}.cls-2{opacity:0.3;}.cls-3{opacity:0.05;}.cls-4{mix-blend-mode:overlay;opacity:0.4;fill:url(#linear-gradient);}.cls-5{opacity:0.5;fill:url(#Degradado_sin_nombre_3);}</style><linearGradient id="linear-gradient" x1="0.84" y1="139.31" x2="26.1" y2="139.31" gradientUnits="userSpaceOnUse"><stop offset="0" stop-color="#fff"/><stop offset="1" stop-color="#fff" stop-opacity="0"/></linearGradient><linearGradient id="Degradado_sin_nombre_3" x1="29.13" y1="-2.46" x2="29.13" y2="175.33" gradientUnits="userSpaceOnUse"><stop offset="0" stop-color="#fff" stop-opacity="0.7"/><stop offset="1" stop-color="#fff" stop-opacity="0"/></linearGradient></defs><g class="cls-1"><g id="tubo-de-ensayo"><g id="cuerpo"><path id="borde" class="cls-2" d="M42.44,0H0V2.78H.84L2.46,7.11v250.2a18.64,18.64,0,0,0,18.76,18.53A18.64,18.64,0,0,0,40,257.31V7.11l1.61-4.33h.85ZM37.3,7.11v250.2a16.08,16.08,0,0,1-32.16,0V7.11L3.52,2.78H38.91Z"/><path id="cuerpo-completo" class="cls-3" d="M0,0V2.78H.84L2.46,7.11V258c0,9.82,8.41,17.81,18.76,17.81S40,267.85,40,258V7.11l1.61-4.33h.85V0Z"/><path id="brillo1" class="cls-4" d="M12.22,257.56V7.11L10.6,2.78H.84L2.46,7.11V257.56a18.54,18.54,0,0,0,18.76,18.28,19.15,19.15,0,0,0,4.88-.65A18.38,18.38,0,0,1,12.22,257.56Z"/><polygon id="brillo2" class="cls-5" points="32.24 266.54 26.1 266.54 26.1 7.11 24.23 2.78 34.03 2.78 32.24 7.11 32.24 266.54"/><rect id="sombra_boquilla" class="cls-3" x="5.14" y="7.11" width="32.16" height="1.46"/></g></g></g></svg>