<svg xmlns="http://www.w3.org/2000/svg" xmlns:xlink="http://www.w3.org/1999/xlink" viewBox="0 0 60.18 288.67"><defs><linearGradient id="linear-gradient" x1="8.87" y1="144.34" x2="34.97" y2="144.34" gradientUnits="userSpaceOnUse"><stop offset="0" stop-color="#fff"/><stop offset="1" stop-color="#fff" stop-opacity="0"/></linearGradient><linearGradient id="Degradado_sin_nombre_3" x1="37.97" y1="1.13" x2="37.97" y2="180.79" gradientUnits="userSpaceOnUse"><stop offset="0" stop-color="#fff" stop-opacity="0.7"/><stop offset="1" stop-color="#fff" stop-opacity="0"/></linearGradient></defs><g style="isolation:isolate"><g id="tubo-de-ensayo"><g id="cuerpo"><path id="borde" d="M53.22,5l-2.95,8.76V264.45c0,10.6-9.05,19.22-20.18,19.22S9.91,275.05,9.91,264.45V13.76L7,5Z" style="fill:none;stroke:#fff;stroke-miterlimit:10;stroke-width:2.5px;opacity:0.30000000000000004"/><path id="cuerpo-2" data-name="cuerpo" d="M8.87,6.42l2.46,7.1V264.45c0,9.82,8.41,17.81,18.76,17.81s18.76-8,18.76-17.81V13.52l2.46-7.1Z" style="fill:#fff;opacity:0.05"/><path id="brillo1" d="M21.09,264V13.52L18.44,6.41H8.87l2.46,7.1V264a18.54,18.54,0,0,0,18.76,18.28,19.15,19.15,0,0,0,4.88-.65A18.39,18.39,0,0,1,21.09,264Z" style="mix-blend-mode:overlay;opacity:0.4;fill:url(#linear-gradient)"/><polygon id="brillo2" points="41.11 272.95 34.97 272.95 34.97 13.53 31.9 6.42 44.05 6.42 41.11 13.53 41.11 272.95" style="opacity:0.5;fill:url(#Degradado_sin_nombre_3)"/><rect id="sombra_boquilla" x="11.33" y="13.52" width="37.52" height="1.46" style="fill:#fff;opacity:0.05"/></g></g></g></svg>