<svg xmlns="http://www.w3.org/2000/svg" xmlns:xlink="http://www.w3.org/1999/xlink" viewBox="0 0 320.04 515"><defs><linearGradient id="Degradado_sin_nombre_4" x1="48.19" y1="246.93" x2="101.95" y2="259.29" gradientUnits="userSpaceOnUse"><stop offset="0" stop-color="#fff"/><stop offset="0.09" stop-color="#fff" stop-opacity="0.97"/><stop offset="0.22" stop-color="#fff" stop-opacity="0.89"/><stop offset="0.38" stop-color="#fff" stop-opacity="0.76"/><stop offset="0.56" stop-color="#fff" stop-opacity="0.57"/><stop offset="0.75" stop-color="#fff" stop-opacity="0.33"/><stop offset="0.97" stop-color="#fff" stop-opacity="0.05"/><stop offset="1" stop-color="#fff" stop-opacity="0"/></linearGradient><linearGradient id="Degradado_sin_nombre_5" x1="259.59" y1="249.12" x2="232.02" y2="259.72" xlink:href="#Degradado_sin_nombre_4"/><linearGradient id="Degradado_sin_nombre_15" x1="189.54" y1="257.5" x2="293.57" y2="257.5" gradientUnits="userSpaceOnUse"><stop offset="0" stop-color="#fff" stop-opacity="0.5"/><stop offset="1" stop-color="#fff" stop-opacity="0"/></linearGradient></defs><g style="isolation:isolate"><g id="Matraz_erlenmeyer" data-name="Matraz erlenmeyer"><g id="cuerpo"><path id="borde" d="M106.49,1.25a9.17,9.17,0,0,0-9.17,9.17v10a5.82,5.82,0,0,0,5.07,5.94v94.24l-97.71,316c-13.11,42.41,12.49,77.11,56.88,77.11H258.49c44.39,0,70-34.7,56.87-77.11l-97.71-316V26.35a5.82,5.82,0,0,0,5.07-5.94v-10a9.16,9.16,0,0,0-9.17-9.17Z" style="fill:none;stroke:#fff;stroke-miterlimit:10;stroke-width:2.5px;opacity:0.30000000000000004"/><path id="cuerpo-2" data-name="cuerpo" d="M106.49,2.5a7.93,7.93,0,0,0-7.92,7.92v10a4.52,4.52,0,0,0,4,4.7l1.08.14v95.53l0,.18L5.88,437C-.34,457.13,2,476.08,12.56,490.36s27.93,22.14,49,22.14H258.49c21.06,0,38.46-7.86,49-22.14s12.9-33.23,6.68-53.35L216.4,120.78V25.24l1.1-.13a4.52,4.52,0,0,0,4-4.7v-10a7.93,7.93,0,0,0-7.92-7.92Z" style="fill:#fff;opacity:0.05"/><path id="brillo1" d="M63.73,490.36C53.2,476.08,50.82,457.13,57,437l75.68-316,.05-.18V25.25l-1.08-.14a4.52,4.52,0,0,1-4-4.7v-10a7.93,7.93,0,0,1,7.92-7.92H106.49a7.93,7.93,0,0,0-7.92,7.92v10a4.52,4.52,0,0,0,4,4.7l1.08.14v95.53l0,.18L5.88,437C-.34,457.13,2,476.08,12.56,490.36s27.93,22.14,49,22.14h51.16C91.66,512.5,74.26,504.64,63.73,490.36Z" style="mix-blend-mode:overlay;opacity:0.4;fill:url(#Degradado_sin_nombre_4)"/><path id="brillo2" d="M314.16,437,216.4,120.78V25.24l1.1-.13a4.52,4.52,0,0,0,4-4.7v-10a7.93,7.93,0,0,0-7.92-7.92h-10.3a7.92,7.92,0,0,1,7.91,7.92v10a4.51,4.51,0,0,1-4,4.7l-1.11.13v95.54L294.67,437c6.23,20.12,3.85,39.07-6.68,53.35s-27.93,22.14-49,22.14h19.49c21.06,0,38.46-7.86,49-22.14S320.38,457.13,314.16,437Z" style="mix-blend-mode:overlay;opacity:0.4;fill:url(#Degradado_sin_nombre_5)"/><path id="brillo3" d="M270.5,490.36c10.53-14.28,12.91-33.23,6.68-53.35L192.44,121l-.05-.18V25.25l1.08-.14a4.52,4.52,0,0,0,4-4.7v-10a7.93,7.93,0,0,0-7.92-7.92h13a7.93,7.93,0,0,1,7.92,7.92v10a4.52,4.52,0,0,1-4,4.7l-1.08.14v95.53l.05.18L290.17,437c6.23,20.12,3.85,39.07-6.68,53.35s-27.93,22.14-49,22.14h-13C242.57,512.5,260,504.64,270.5,490.36Z" style="opacity:0.5;fill:url(#Degradado_sin_nombre_15)"/><rect id="brillo4" x="103.63" y="25.25" width="112.77" height="3.11" style="fill:#fff;opacity:0.05"/><g id="escala"><polygon points="118.57 364.71 100.14 364.71 100.24 364.21 118.67 364.21 118.57 364.71" style="fill:#bcbcbc"/><polygon points="132.34 293.77 114.69 293.77 114.79 293.27 132.43 293.27 132.34 293.77" style="fill:#bcbcbc"/><path d="M147.08,297.63h-7.74l.15-.78,4.7-3.28a9.77,9.77,0,0,0,1.47-1.21,1.93,1.93,0,0,0,.53-1,1.12,1.12,0,0,0-.36-1.1,2.06,2.06,0,0,0-1.4-.43,3.32,3.32,0,0,0-1.82.46,1.9,1.9,0,0,0-.86,1.28h-1.5a2.82,2.82,0,0,1,1.41-1.9,5.44,5.44,0,0,1,2.93-.73,4.08,4.08,0,0,1,2.48.63,1.56,1.56,0,0,1,.64,1.66c-.15.84-1.07,1.84-2.77,3l-3.62,2.48h5.93Z" style="fill:#fff"/><path d="M156.74,294a4.73,4.73,0,0,1-1.41,2.83,4.4,4.4,0,0,1-3,.93,3.25,3.25,0,0,1-2.64-.91,3.3,3.3,0,0,1-.44-2.7l.26-1.45a4.65,4.65,0,0,1,1.41-2.79,4.43,4.43,0,0,1,3-.92,2.68,2.68,0,0,1,3.07,3.61Zm-1.24-1.48a2.78,2.78,0,0,0-.17-2,1.75,1.75,0,0,0-1.57-.63,2.44,2.44,0,0,0-1.79.63,3.59,3.59,0,0,0-.89,1.93l-.32,1.73a2.82,2.82,0,0,0,.18,2,1.75,1.75,0,0,0,1.57.66,2.41,2.41,0,0,0,1.76-.62,3.63,3.63,0,0,0,.92-2Z" style="fill:#fff"/><path d="M166.05,294a4.67,4.67,0,0,1-1.39,2.83,4.38,4.38,0,0,1-3,.93,3.25,3.25,0,0,1-2.64-.91,3.3,3.3,0,0,1-.46-2.7l.26-1.45a4.58,4.58,0,0,1,1.39-2.79,4.42,4.42,0,0,1,3-.92,2.69,2.69,0,0,1,3.09,3.61Zm-1.24-1.48a2.76,2.76,0,0,0-.19-2,1.75,1.75,0,0,0-1.57-.63,2.44,2.44,0,0,0-1.79.63,3.66,3.66,0,0,0-.88,1.93l-.3,1.73a2.81,2.81,0,0,0,.19,2,1.75,1.75,0,0,0,1.57.66,2.41,2.41,0,0,0,1.76-.62,3.55,3.55,0,0,0,.9-2Z" style="fill:#fff"/><path d="M159.32,227.32h-7.4l.15-.78,4.52-3.28a9.75,9.75,0,0,0,1.42-1.21,2.05,2.05,0,0,0,.51-1,1.15,1.15,0,0,0-.33-1.1,1.91,1.91,0,0,0-1.34-.43,3.14,3.14,0,0,0-1.75.46,2,2,0,0,0-.83,1.28h-1.43a2.84,2.84,0,0,1,1.36-1.9,5.17,5.17,0,0,1,2.81-.73,3.73,3.73,0,0,1,2.36.63A1.59,1.59,0,0,1,160,221c-.16.84-1,1.84-2.68,3l-3.49,2.48h5.67Z" style="fill:#fff"/><path d="M162.28,223l1.36-4.25h5.75l-.18,1h-4.55l-.76,2.33a5,5,0,0,1,1.95-.37,3.13,3.13,0,0,1,2.3.77,2.21,2.21,0,0,1,.53,2.08,3.09,3.09,0,0,1-1.31,2.08,4.67,4.67,0,0,1-2.77.76,3.78,3.78,0,0,1-2.33-.63,1.86,1.86,0,0,1-.76-1.73h1.35a1.31,1.31,0,0,0,.49,1.1,2.3,2.3,0,0,0,1.41.37,2.63,2.63,0,0,0,1.66-.51,2.27,2.27,0,0,0,.83-1.43,1.45,1.45,0,0,0-.37-1.37,2.12,2.12,0,0,0-1.54-.52,3.35,3.35,0,0,0-1.53.31l-.42.24Z" style="fill:#fff"/><path d="M177.48,223.68a4.78,4.78,0,0,1-1.35,2.83,4.1,4.1,0,0,1-2.86.93,3,3,0,0,1-2.51-.91,3.43,3.43,0,0,1-.42-2.7l.26-1.45a4.72,4.72,0,0,1,1.35-2.79,4.12,4.12,0,0,1,2.85-.92,3,3,0,0,1,2.51.89,3.4,3.4,0,0,1,.41,2.72Zm-1.18-1.48a2.9,2.9,0,0,0-.16-2,1.62,1.62,0,0,0-1.5-.63,2.28,2.28,0,0,0-1.71.63,3.73,3.73,0,0,0-.86,1.93l-.3,1.73a2.91,2.91,0,0,0,.17,2.05,1.63,1.63,0,0,0,1.49.65,2.27,2.27,0,0,0,1.69-.62,3.77,3.77,0,0,0,.88-2Z" style="fill:#fff"/><path d="M130.35,368.27h-1.58l1.36-7.23-3.3.8.18-1,4.69-1.17H132Z" style="fill:#fff"/><path d="M136.45,364l1.4-4.26h6.29l-.17,1h-5l-.79,2.32a6,6,0,0,1,2.12-.37,3.68,3.68,0,0,1,2.53.77,2.14,2.14,0,0,1,.62,2.09,3,3,0,0,1-1.4,2.07,5.43,5.43,0,0,1-3,.76,4.53,4.53,0,0,1-2.55-.62,1.85,1.85,0,0,1-.86-1.74h1.48a1.27,1.27,0,0,0,.55,1.11,2.78,2.78,0,0,0,1.54.37A3,3,0,0,0,141,367a2.14,2.14,0,0,0,.88-1.42,1.4,1.4,0,0,0-.43-1.38,2.47,2.47,0,0,0-1.69-.51,3.75,3.75,0,0,0-1.66.31l-.46.23Z" style="fill:#fff"/><path d="M153.06,364.63a4.54,4.54,0,0,1-1.43,2.83,4.72,4.72,0,0,1-3.1.92,3.52,3.52,0,0,1-2.76-.9,3.22,3.22,0,0,1-.51-2.71l.26-1.44a4.51,4.51,0,0,1,1.43-2.8,4.73,4.73,0,0,1,3.1-.91,3.59,3.59,0,0,1,2.77.88,3.23,3.23,0,0,1,.49,2.72Zm-1.3-1.49a2.68,2.68,0,0,0-.21-2,1.9,1.9,0,0,0-1.65-.63,2.63,2.63,0,0,0-1.86.62,3.53,3.53,0,0,0-.91,1.93l-.31,1.74a2.74,2.74,0,0,0,.22,2,1.87,1.87,0,0,0,1.64.66,2.63,2.63,0,0,0,1.84-.62,3.5,3.5,0,0,0,.93-2Z" style="fill:#fff"/><path d="M117.23,438.58h-1.64l1.35-7.22-3.43.8.18-1,4.88-1.17h.26Z" style="fill:#fff"/><path d="M130.74,434.94a4.51,4.51,0,0,1-1.49,2.83,5,5,0,0,1-3.23.93,3.76,3.76,0,0,1-2.89-.91,3.12,3.12,0,0,1-.52-2.7l.26-1.45a4.46,4.46,0,0,1,1.49-2.79,5,5,0,0,1,3.23-.92,3.8,3.8,0,0,1,2.88.89,3.09,3.09,0,0,1,.52,2.72Zm-1.37-1.48a2.6,2.6,0,0,0-.22-2,2,2,0,0,0-1.72-.63,2.78,2.78,0,0,0-1.94.63,3.48,3.48,0,0,0-.94,1.93l-.32,1.73a2.59,2.59,0,0,0,.24,2,2,2,0,0,0,1.71.66,2.76,2.76,0,0,0,1.91-.62,3.45,3.45,0,0,0,1-1.95Z" style="fill:#fff"/><path d="M140.88,434.94a4.45,4.45,0,0,1-1.47,2.83,5,5,0,0,1-3.23.93,3.78,3.78,0,0,1-2.89-.91,3.12,3.12,0,0,1-.54-2.7l.25-1.45a4.45,4.45,0,0,1,1.48-2.79,5,5,0,0,1,3.22-.92,3.84,3.84,0,0,1,2.89.89,3.12,3.12,0,0,1,.53,2.72Zm-1.38-1.48a2.59,2.59,0,0,0-.23-2,2,2,0,0,0-1.73-.63,2.75,2.75,0,0,0-1.93.63,3.47,3.47,0,0,0-.93,1.93l-.31,1.73a2.62,2.62,0,0,0,.25,2,2,2,0,0,0,1.71.66,2.73,2.73,0,0,0,1.91-.62,3.38,3.38,0,0,0,.95-1.95Z" style="fill:#fff"/><polygon points="104.81 435.66 85.3 435.66 129.09 222.33 146.2 222.33 146.1 222.83 129.49 222.83 85.97 435.16 104.9 435.16 104.81 435.66" style="fill:#bcbcbc"/><path d="M65.68,307.39H59.81l.41-1.45L64,302.23a12.13,12.13,0,0,0,1.19-1.38,3.45,3.45,0,0,0,.57-1.11,1.86,1.86,0,0,0,0-1.12.66.66,0,0,0-.68-.4,1.38,1.38,0,0,0-1,.52,3.09,3.09,0,0,0-.69,1.31l-1.65,0a5.83,5.83,0,0,1,.87-1.79A4.65,4.65,0,0,1,64,297a3.19,3.19,0,0,1,1.6-.5,1.83,1.83,0,0,1,1.75.76,2.84,2.84,0,0,1,.12,2.24,5.91,5.91,0,0,1-.74,1.64,14.17,14.17,0,0,1-1.61,1.94l-2.62,2.59h3.66Z" style="fill:#fff"/><path d="M68.3,302.06l1.85-5.52,4.58-.11-.41,1.82-3.27.06-.77,2.34a2.64,2.64,0,0,1,1.35-.43,1.63,1.63,0,0,1,1.64.94,4.31,4.31,0,0,1,.06,2.71,5.63,5.63,0,0,1-.77,1.9,4.11,4.11,0,0,1-1.29,1.3,3.12,3.12,0,0,1-1.65.46,2.27,2.27,0,0,1-1.35-.4A2,2,0,0,1,67.5,306a3.41,3.41,0,0,1,0-1.65h1.66a1.6,1.6,0,0,0,.11,1.06.81.81,0,0,0,.75.37,1.28,1.28,0,0,0,1-.53,3.61,3.61,0,0,0,.66-1.5,2.29,2.29,0,0,0,0-1.42.86.86,0,0,0-.88-.48,1.57,1.57,0,0,0-1.06.41l-.21.2Z" style="fill:#fff"/><path d="M80.28,302.79a8.11,8.11,0,0,1-1.41,3.52,2.94,2.94,0,0,1-2.39,1.22,1.84,1.84,0,0,1-1.89-1.18,6,6,0,0,1,0-3.39l.44-2a8.46,8.46,0,0,1,1.47-3.5,3,3,0,0,1,2.3-1.25,1.73,1.73,0,0,1,1.81,1.15,6.28,6.28,0,0,1,.07,3.41Zm-1.22-2.23a5.21,5.21,0,0,0,.12-2,.7.7,0,0,0-.75-.61,1.18,1.18,0,0,0-1,.61,5.75,5.75,0,0,0-.69,1.87l-.56,2.68a5.1,5.1,0,0,0-.14,2,.73.73,0,0,0,.77.66,1.22,1.22,0,0,0,1-.64,6,6,0,0,0,.67-1.93Z" style="fill:#fff"/><path d="M83.7,299.08l-.12.92a2.53,2.53,0,0,1,2-1.11A1.32,1.32,0,0,1,87,300.14,2.52,2.52,0,0,1,89,298.83a1.35,1.35,0,0,1,1.37.77,4.4,4.4,0,0,1,.14,2.39l-.79,5.39H88l.82-5.36a2,2,0,0,0,0-1c-.1-.22-.33-.32-.67-.32a1.37,1.37,0,0,0-1.19,1L86,307.38h-1.7l.9-5.31a1.84,1.84,0,0,0,0-1.05c-.1-.21-.33-.31-.67-.31a1.35,1.35,0,0,0-1.15.8l-1.05,5.87h-1.7l1.54-8.28Z" style="fill:#fff"/><path d="M92.84,307.38h-1.7l1.67-12,1.63,0Z" style="fill:#fff"/><path d="M76.37,382.5l-33.77.27a8.38,8.38,0,0,1-7.91-10.89l15.83-55.05a8,8,0,0,1,7.59-5.75l29.44-.22a8.36,8.36,0,0,1,8.15,9.86l-11.49,55A8.07,8.07,0,0,1,76.37,382.5Z" style="fill:#fff"/></g></g></g></g></svg>