<svg xmlns="http://www.w3.org/2000/svg" xmlns:xlink="http://www.w3.org/1999/xlink" viewBox="0 0 185.87 255.57"><defs><style>.cls-1{isolation:isolate;}.cls-2,.cls-3{fill:#fff;}.cls-2{opacity:0.3;}.cls-3{opacity:0.05;}.cls-4{opacity:0.5;fill:url(#Degradado_sin_nombre_7);}.cls-5,.cls-6{mix-blend-mode:overlay;opacity:0.4;}.cls-5{fill:url(#Degradado_sin_nombre_8);}.cls-6{fill:url(#Degradado_sin_nombre_10);}.cls-7,.cls-9{fill:#cecece;}.cls-7,.cls-8{stroke:#bcbcbc;stroke-miterlimit:10;stroke-width:0.5px;}.cls-8{fill:none;}</style><linearGradient id="Degradado_sin_nombre_7" x1="148.55" y1="2.05" x2="148.55" y2="190.94" gradientUnits="userSpaceOnUse"><stop offset="0" stop-color="#fff" stop-opacity="0.4"/><stop offset="1" stop-color="#fff" stop-opacity="0"/></linearGradient><linearGradient id="Degradado_sin_nombre_8" x1="138.49" y1="127.87" x2="183.34" y2="127.87" gradientUnits="userSpaceOnUse"><stop offset="0" stop-color="#fff" stop-opacity="0"/><stop offset="1" stop-color="#fff"/></linearGradient><linearGradient id="Degradado_sin_nombre_10" x1="2.5" y1="127.78" x2="96.17" y2="127.78" gradientUnits="userSpaceOnUse"><stop offset="0" stop-color="#fff"/><stop offset="0.98" stop-color="#fff" stop-opacity="0"/></linearGradient></defs><g class="cls-1"><g id="vaso-precipitados"><g id="cuerpo"><path id="borde" class="cls-2" d="M150,255.57H54.33a33.54,33.54,0,0,1-33.57-33.43V29.54C20.76,26.39,13,18.7,1.1,10A2.69,2.69,0,0,1,0,7.52,2.66,2.66,0,0,1,1.54,5.37l.68-.31,1.72-.73C10.3,1.63,14.13,0,22,0H183.23a2.63,2.63,0,0,1,2.33,1.4,2.59,2.59,0,0,1-.16,2.71l-1.82,2.62V222.14A33.54,33.54,0,0,1,150,255.57ZM22,2.49C14.64,2.49,11.19,4,4.92,6.62l-1.73.73-.49.23-.2.19c7.8,5.83,20.76,16.16,20.76,21.77v192.6a31,31,0,0,0,31.07,30.94H150a31,31,0,0,0,31.07-30.94V6l2.26-3.25Z"/><path id="cuerpo-2" data-name="cuerpo" class="cls-3" d="M22,2.49C14.64,2.49,11.19,4,4.92,6.62l-1.73.73-.49.23-.2.19c7.8,5.83,20.76,16.16,20.76,21.77v192.6a31,31,0,0,0,31.07,30.94H150a31,31,0,0,0,31.07-30.94V6l2.26-3.25Z"/><polygon id="brillo3" class="cls-4" points="158.73 239.99 138.74 239.99 138.74 6.05 135.52 2.68 161.57 2.68 158.73 6.05 158.73 239.99"/><path id="brillo2" class="cls-5" d="M183.34,2.68l-2.26,3.25V222.12A31,31,0,0,1,150,253.06H138.49a31,31,0,0,0,31.08-30.94V5.93l2.26-3.25Z"/><path id="brillo1" class="cls-6" d="M65.1,222.14V29.54c0-5.61-13-15.94-20.76-21.77l.2-.19.5-.23,1.72-.73C52.53,4.17,56,2.75,62.18,2.53L22,2.49C14.64,2.49,11.19,4,4.92,6.62l-1.73.73-.49.23-.2.19c7.8,5.83,20.76,16.16,20.76,21.77v192.6a31,31,0,0,0,31.07,30.94H96.17A31,31,0,0,1,65.1,222.14Z"/><g id="escala"><g id="regla"><line class="cls-7" x1="101.65" y1="191.14" x2="120.91" y2="191.14"/><line class="cls-7" x1="101.65" y1="153" x2="120.91" y2="153"/><line class="cls-7" x1="101.65" y1="114.86" x2="120.91" y2="114.86"/><line class="cls-7" x1="101.65" y1="76.72" x2="120.91" y2="76.72"/><line class="cls-7" x1="127.97" y1="172.1" x2="101.65" y2="172.1"/><line class="cls-7" x1="127.97" y1="134.03" x2="101.65" y2="134.03"/><line class="cls-7" x1="127.97" y1="95.97" x2="101.65" y2="95.97"/><polyline class="cls-8" points="127.97 57.9 100.96 57.9 100.96 210.17 100.96 210.17 127.97 210.17"/></g><g id="_100ml" data-name="100ml"><path class="cls-9" d="M49.67,167.47l-1.77,0,.19-8.52-2.63.83,0-1.49,4.19-1.43h.23Z"/><path class="cls-9" d="M60.55,163.19a5.79,5.79,0,0,1-.91,3.44,3.55,3.55,0,0,1-5.22,0,5.61,5.61,0,0,1-.85-3.37l0-1.84a5.67,5.67,0,0,1,.92-3.42,3.06,3.06,0,0,1,2.64-1.1A3.1,3.1,0,0,1,59.75,158a5.5,5.5,0,0,1,.83,3.35Zm-1.75-2a4.51,4.51,0,0,0-.37-2.2,1.42,1.42,0,0,0-1.29-.71,1.38,1.38,0,0,0-1.29.64,4,4,0,0,0-.47,2.05l0,2.4a4.81,4.81,0,0,0,.38,2.23,1.42,1.42,0,0,0,1.3.75,1.4,1.4,0,0,0,1.28-.66,4.28,4.28,0,0,0,.47-2.1Z"/><path class="cls-9" d="M69.14,163.28a5.83,5.83,0,0,1-.9,3.45,3.06,3.06,0,0,1-2.63,1.13A3.09,3.09,0,0,1,63,166.7a5.55,5.55,0,0,1-.86-3.36l0-1.84a5.74,5.74,0,0,1,.9-3.43,3.6,3.6,0,0,1,5.23,0,5.48,5.48,0,0,1,.85,3.35Zm-1.76-2a4.46,4.46,0,0,0-.39-2.19,1.56,1.56,0,0,0-2.58-.06,4,4,0,0,0-.45,2.05l0,2.4a4.46,4.46,0,0,0,.4,2.22,1.53,1.53,0,0,0,2.57.09,4.37,4.37,0,0,0,.46-2.11Z"/><path class="cls-9" d="M72.67,159.89l0,.83a2.82,2.82,0,0,1,2.29-1A2.19,2.19,0,0,1,77.18,161a2.77,2.77,0,0,1,2.43-1.2,2.48,2.48,0,0,1,2,.73,3.15,3.15,0,0,1,.64,2.13l0,5.18H80.4l0-5.14a1.53,1.53,0,0,0-.32-1.1,1.78,1.78,0,0,0-2.08,0,1.62,1.62,0,0,0-.54.84l0,5.41H75.68l0-5.19a1.27,1.27,0,0,0-1.42-1.4,1.59,1.59,0,0,0-1.52.86l0,5.72H71l0-7.89Z"/><path class="cls-9" d="M86.05,167.82H84.28V156.63h1.78Z"/></g><path id="ml" class="cls-9" d="M52,178.41c10.36.18,22.86.3,36.42.33a5.17,5.17,0,0,1,5.17,5.15V207a5.16,5.16,0,0,1-5.19,5.15c-12.76,0-28.59-.25-36.56-.36a5.15,5.15,0,0,1-5.09-5.15V183.56A5.14,5.14,0,0,1,52,178.41Z"/></g><polygon id="sombra_boquilla" class="cls-3" points="182.31 7.67 3.76 7.67 7.77 5.95 182.31 5.95 182.31 7.67"/></g></g></g></svg>