<svg xmlns="http://www.w3.org/2000/svg" xmlns:xlink="http://www.w3.org/1999/xlink" viewBox="0 0 205.92 572.81"><defs><linearGradient id="Degradado_sin_nombre_8" x1="97.2" y1="286.41" x2="199.67" y2="286.41" gradientUnits="userSpaceOnUse"><stop offset="0" stop-color="#fff" stop-opacity="0"/><stop offset="1" stop-color="#fff"/></linearGradient><linearGradient id="Degradado_sin_nombre_14" x1="125.21" y1="291.89" x2="125.21" y2="590.45" gradientUnits="userSpaceOnUse"><stop offset="0" stop-color="#fff" stop-opacity="0"/><stop offset="0.58" stop-color="#fff" stop-opacity="0.5"/><stop offset="0.98" stop-color="#fff" stop-opacity="0"/></linearGradient><linearGradient id="Degradado_sin_nombre_11" x1="41.55" y1="798.83" x2="41.55" y2="27.48" gradientTransform="matrix(-1, 0, 0, 1, 134.52, 0)" gradientUnits="userSpaceOnUse"><stop offset="0.26" stop-color="#fff" stop-opacity="0"/><stop offset="0.32" stop-color="#fff" stop-opacity="0.01"/><stop offset="0.35" stop-color="#fff" stop-opacity="0.03"/><stop offset="0.36" stop-color="#fff" stop-opacity="0.08"/><stop offset="0.38" stop-color="#fff" stop-opacity="0.15"/><stop offset="0.39" stop-color="#fff" stop-opacity="0.23"/><stop offset="0.4" stop-color="#fff" stop-opacity="0.34"/><stop offset="0.41" stop-color="#fff" stop-opacity="0.46"/><stop offset="0.41" stop-color="#fff" stop-opacity="0.5"/><stop offset="0.42" stop-color="#fff" stop-opacity="0.45"/><stop offset="0.46" stop-color="#fff" stop-opacity="0.31"/><stop offset="0.5" stop-color="#fff" stop-opacity="0.2"/><stop offset="0.54" stop-color="#fff" stop-opacity="0.11"/><stop offset="0.59" stop-color="#fff" stop-opacity="0.05"/><stop offset="0.64" stop-color="#fff" stop-opacity="0.01"/><stop offset="0.71" stop-color="#fff" stop-opacity="0"/></linearGradient><linearGradient id="Degradado_sin_nombre_10" x1="26.13" y1="286.41" x2="137.1" y2="286.41" gradientUnits="userSpaceOnUse"><stop offset="0" stop-color="#fff"/><stop offset="0.98" stop-color="#fff" stop-opacity="0"/></linearGradient><linearGradient id="Degradado_sin_nombre_2" x1="120.73" y1="-4.42" x2="120.73" y2="321.1" gradientUnits="userSpaceOnUse"><stop offset="0" stop-color="#fff" stop-opacity="0.7"/><stop offset="1" stop-color="#fff" stop-opacity="0"/></linearGradient></defs><g style="isolation:isolate"><g id="Matraz_volumetrico" data-name="Matraz volumetrico"><g id="cuerpo"><path id="borde" d="M103,567.81l47.14-.26c23,0,40.39-29.41,40.39-29.41a65.75,65.75,0,0,0,2.12-67.48l-54.72-98.32a84.79,84.79,0,0,1-10.7-41.24V88.45c0-1.84-2-5.88-2-5.88l5.64-55.8A4.32,4.32,0,0,1,134.4,23l3.76-.62a3.48,3.48,0,0,0,2.9-3.42V8.47A3.47,3.47,0,0,0,137.59,5H68.33a3.47,3.47,0,0,0-3.47,3.47V18.91a3.48,3.48,0,0,0,2.9,3.42l3.76.62a4.31,4.31,0,0,1,3.58,3.82l5.64,55.8s-2,4-2,5.88V331.1A84.79,84.79,0,0,1,68,372.34L13.31,470.66a65.73,65.73,0,0,0,2.13,67.48s17.38,29.41,40.38,29.41Z" style="fill:none;stroke:#fff;stroke-miterlimit:10;stroke-width:2.5px;opacity:0.30000000000000004"/><path id="cuerpo-2" data-name="cuerpo" d="M68.33,6.25a2.22,2.22,0,0,0-2.22,2.22V18.91A2.2,2.2,0,0,0,68,21.09l3.77.63a5.59,5.59,0,0,1,4.62,4.93L82,82.8l-.16.32c-.73,1.46-1.88,4.2-1.88,5.33V331.1A86.22,86.22,0,0,1,69.12,373L14.41,471.26a64.4,64.4,0,0,0,2.08,66.21c.19.33,17.32,28.83,39.34,28.83l47.13.26,47.13-.26c22,0,39.15-28.5,39.32-28.79a64.46,64.46,0,0,0,2.11-66.25L136.8,373a86.33,86.33,0,0,1-10.86-41.85V88.45c0-1.13-1.15-3.87-1.88-5.33l-.16-.32,5.68-56.15a5.57,5.57,0,0,1,4.62-4.93l3.76-.63a2.2,2.2,0,0,0,1.85-2.18V8.47a2.21,2.21,0,0,0-2.21-2.22H68.33Z" style="fill:#fff;opacity:0.05"/><path id="brillo1" d="M191.37,470.66l-54.71-98.32A84.8,84.8,0,0,1,126,331.1V88.45c0-1.84-2-5.88-2-5.88l5.63-55.8A4.33,4.33,0,0,1,133.17,23l3.76-.62a3.47,3.47,0,0,0,2.89-3.42V8.47A3.46,3.46,0,0,0,136.36,5h-9.05a3.46,3.46,0,0,1,3.46,3.47V18.91a3.47,3.47,0,0,1-2.89,3.42l-3.77.62a4.32,4.32,0,0,0-3.58,3.82l-5.64,55.8s2,4,2,5.88V331.1a84.79,84.79,0,0,0,10.7,41.24l54.72,98.32a65.75,65.75,0,0,1-2.12,67.48s-17.39,29.41-40.39,29.41l-42.61.24,4.53,0,47.13-.26c23,0,40.39-29.41,40.39-29.41A65.73,65.73,0,0,0,191.37,470.66Z" style="mix-blend-mode:overlay;opacity:0.4;fill:url(#Degradado_sin_nombre_8)"/><path id="brillo2" d="M170.53,471.23,133,403.7a102.63,102.63,0,0,1-13-49.92,93.63,93.63,0,0,1-3.07-15s-.93,38.81,10.45,68.33l30.29,62.63a64.39,64.39,0,0,1-2.08,66.2c-.19.33-24.94,30.34-47,30.34l-36.89.21,10.24,0,47.13-.26c22,0,39.14-28.5,39.34-28.83A64.39,64.39,0,0,0,170.53,471.23Z" style="mix-blend-mode:overlay;opacity:0.4;fill:url(#Degradado_sin_nombre_14)"/><path id="brillo3" d="M47.65,471.23l54.72-98.32L90.81,397.17,58.45,471.23a64.39,64.39,0,0,0,2.08,66.2c.19.33,27,28.83,49,28.83l36.9.21-10.24,0-47.14-.26c-22,0-39.14-28.5-39.34-28.83A64.41,64.41,0,0,1,47.65,471.23Z" style="mix-blend-mode:overlay;opacity:0.4;fill:url(#Degradado_sin_nombre_11)"/><path id="brillo4" d="M81.89,567.55c-23,0-40.38-29.41-40.38-29.41a65.73,65.73,0,0,1-2.13-67.48L82.6,372.34A84.8,84.8,0,0,0,93.31,331.1V88.45c0-1.84,2-5.88,2-5.88l-5.64-55.8A4.31,4.31,0,0,0,86.09,23l-3.76-.62a3.48,3.48,0,0,1-2.9-3.42V8.47A3.47,3.47,0,0,1,82.9,5H68.33a3.47,3.47,0,0,0-3.47,3.47V18.91a3.48,3.48,0,0,0,2.9,3.42l3.76.62a4.31,4.31,0,0,1,3.58,3.82l5.64,55.8s-2,4-2,5.88V331.1A84.79,84.79,0,0,1,68,372.34L13.31,470.66a65.73,65.73,0,0,0,2.13,67.48s17.38,29.41,40.38,29.41l47.14.26,13-.07Z" style="mix-blend-mode:overlay;opacity:0.4;fill:url(#Degradado_sin_nombre_10)"/><path id="brillo5" d="M103,22.37,133.22,22a5.45,5.45,0,0,0-3.28,3.17H76A5.45,5.45,0,0,0,72.7,22Z" style="fill:#fff;opacity:0.05"/><path id="brillo6" d="M124.06,83c1,2.21,1.91,4.33,1.88,5.84H80c0-1.51.86-3.63,1.87-5.84Z" style="fill:#fff;opacity:0.05"/><polyline id="brillo7" points="126.31 6.25 126.31 21.98 123.67 25.15 119.04 82.46 121.79 88.85 120.03 331.77 116.93 331.77 116.93 89.07 115.16 82.57 119.6 25.15 121.66 21.98 121.71 6.25" style="opacity:0.5;fill:url(#Degradado_sin_nombre_2)"/><g id="escala"><rect x="65.76" y="497.64" width="33.09" height="28.28" rx="5.45" style="fill:#fff"/><path d="M111.94,526h-2.26V517.3l-2.69.84V516.3l4.71-1.68h.24Z" style="fill:#fff"/><path d="M123.27,521.3a5.74,5.74,0,0,1-1,3.6,3.9,3.9,0,0,1-5.7,0,5.56,5.56,0,0,1-1-3.51v-2.09a5.73,5.73,0,0,1,1-3.61,3.92,3.92,0,0,1,5.69,0,5.56,5.56,0,0,1,1,3.51ZM121,519a4.14,4.14,0,0,0-.39-2.06,1.45,1.45,0,0,0-2.38,0,4,4,0,0,0-.4,1.92v2.76a4.4,4.4,0,0,0,.38,2.07,1.28,1.28,0,0,0,1.21.67,1.26,1.26,0,0,0,1.2-.65,4.3,4.3,0,0,0,.38-2Z" style="fill:#fff"/><path d="M132.44,521.3a5.74,5.74,0,0,1-1,3.6,3.9,3.9,0,0,1-5.7,0,5.62,5.62,0,0,1-1-3.51v-2.09a5.67,5.67,0,0,1,1-3.61,3.92,3.92,0,0,1,5.69,0,5.56,5.56,0,0,1,1,3.51Zm-2.25-2.3a4.14,4.14,0,0,0-.39-2.06,1.3,1.3,0,0,0-1.2-.64,1.28,1.28,0,0,0-1.18.61,4,4,0,0,0-.4,1.92v2.76a4.4,4.4,0,0,0,.38,2.07,1.43,1.43,0,0,0,2.41,0,4.3,4.3,0,0,0,.38-2Z" style="fill:#fff"/><path d="M136.17,517.55l.07,1a3,3,0,0,1,2.43-1.1,2.25,2.25,0,0,1,2.24,1.28,2.88,2.88,0,0,1,2.53-1.28,2.51,2.51,0,0,1,2.05.8,3.64,3.64,0,0,1,.67,2.4V526H143.9v-5.38a1.65,1.65,0,0,0-.28-1.05,1.26,1.26,0,0,0-1-.33,1.4,1.4,0,0,0-1.4,1V526H139v-5.37a1.54,1.54,0,0,0-.29-1.06,1.24,1.24,0,0,0-1-.33,1.45,1.45,0,0,0-1.39.8v6h-2.25v-8.44Z" style="fill:#fff"/><path d="M150.38,524.11h5V526H148V514.63h2.34Z" style="fill:#fff"/><line id="medida" x1="77.73" y1="272.37" x2="128.6" y2="272.37" style="fill:none;stroke:#eaeaea;stroke-miterlimit:10"/></g></g></g></g></svg>