<svg xmlns="http://www.w3.org/2000/svg" xmlns:xlink="http://www.w3.org/1999/xlink" viewBox="0 0 49.74 281.17"><defs><linearGradient id="linear-gradient" x1="3.65" y1="140.59" x2="29.75" y2="140.59" gradientUnits="userSpaceOnUse"><stop offset="0" stop-color="#fff"/><stop offset="1" stop-color="#fff" stop-opacity="0"/></linearGradient><linearGradient id="Degradado_sin_nombre_3" x1="32.75" y1="-2.62" x2="32.75" y2="177.04" gradientUnits="userSpaceOnUse"><stop offset="0" stop-color="#fff" stop-opacity="0.7"/><stop offset="1" stop-color="#fff" stop-opacity="0"/></linearGradient></defs><g style="isolation:isolate"><g id="tubo-de-ensayo"><g id="halo"><path d="M48,1.25l-3,8.76V260.7c0,10.6-9,19.22-20.18,19.22S4.69,271.3,4.69,260.7V10L1.74,1.25H48m7-5H-5.22L-3,2.85l2.69,8V260.7c0,13.36,11.3,24.22,25.18,24.22s25.18-10.86,25.18-24.22V10.83l2.69-8L55-3.75Z" style="fill:#fff"/></g><path id="liquido" d="M3.65,2.67l2.46,7.1V260.7c0,9.82,8.41,17.81,18.76,17.81s18.76-8,18.76-17.81V9.77l2.46-7.1Z" style="fill:#000145"/><g id="cuerpo"><path id="borde" d="M48,1.25l-3,8.76V260.7c0,10.6-9,19.22-20.18,19.22S4.69,271.3,4.69,260.7V10L1.74,1.25Z" style="fill:none;stroke:#fff;stroke-miterlimit:10;stroke-width:2.5px;opacity:0.30000000000000004"/><path id="cuerpo-2" data-name="cuerpo" d="M3.65,2.67l2.46,7.1V260.7c0,9.82,8.41,17.81,18.76,17.81s18.76-8,18.76-17.81V9.77l2.46-7.1Z" style="fill:#fff;opacity:0.05"/><path id="brillo1" d="M15.87,260.23V9.77L13.22,2.66H3.65l2.46,7.1V260.23a18.54,18.54,0,0,0,18.76,18.28,19.15,19.15,0,0,0,4.88-.65A18.39,18.39,0,0,1,15.87,260.23Z" style="mix-blend-mode:overlay;opacity:0.4;fill:url(#linear-gradient)"/><polygon id="brillo2" points="35.89 269.2 29.75 269.2 29.75 9.78 26.68 2.67 38.83 2.67 35.89 9.78 35.89 269.2" style="opacity:0.5;fill:url(#Degradado_sin_nombre_3)"/><rect id="sombra_boquilla" x="6.11" y="9.77" width="37.52" height="1.46" style="fill:#fff;opacity:0.05"/></g></g></g></svg>