<svg xmlns="http://www.w3.org/2000/svg" xmlns:xlink="http://www.w3.org/1999/xlink" viewBox="0 0 53.22 283.67"><defs><linearGradient id="linear-gradient" x1="5.39" y1="141.84" x2="31.49" y2="141.84" gradientUnits="userSpaceOnUse"><stop offset="0" stop-color="#fff"/><stop offset="1" stop-color="#fff" stop-opacity="0"/></linearGradient><linearGradient id="Degradado_sin_nombre_3" x1="34.49" y1="-1.37" x2="34.49" y2="178.29" gradientUnits="userSpaceOnUse"><stop offset="0" stop-color="#fff" stop-opacity="0.7"/><stop offset="1" stop-color="#fff" stop-opacity="0"/></linearGradient></defs><g style="isolation:isolate"><g id="tubo-de-ensayo"><path id="halo" d="M49.74,2.5l-3,8.76V262c0,10.6-9,19.22-20.18,19.22S6.43,272.55,6.43,262V11.26L3.48,2.5Z" style="fill:none;stroke:#fff;stroke-miterlimit:10;stroke-width:5px"/><path id="liquido" d="M5.39,3.92,7.85,11V262c0,9.82,8.41,17.81,18.76,17.81s18.76-8,18.76-17.81V11l2.46-7.1Z" style="fill:#000145"/><g id="cuerpo"><path id="borde" d="M49.74,2.5l-3,8.76V262c0,10.6-9,19.22-20.18,19.22S6.43,272.55,6.43,262V11.26L3.48,2.5Z" style="fill:none;stroke:#fff;stroke-miterlimit:10;stroke-width:2.5px;opacity:0.30000000000000004"/><path id="cuerpo-2" data-name="cuerpo" d="M5.39,3.92,7.85,11V262c0,9.82,8.41,17.81,18.76,17.81s18.76-8,18.76-17.81V11l2.46-7.1Z" style="fill:#fff;opacity:0.05"/><path id="brillo1" d="M17.61,261.48V11L15,3.91H5.39L7.85,11V261.48a18.54,18.54,0,0,0,18.76,18.28,19.15,19.15,0,0,0,4.88-.65A18.39,18.39,0,0,1,17.61,261.48Z" style="mix-blend-mode:overlay;opacity:0.4;fill:url(#linear-gradient)"/><polygon id="brillo2" points="37.63 270.45 31.49 270.45 31.49 11.03 28.42 3.92 40.56 3.92 37.63 11.03 37.63 270.45" style="opacity:0.5;fill:url(#Degradado_sin_nombre_3)"/><rect id="sombra_boquilla" x="7.85" y="11.02" width="37.52" height="1.46" style="fill:#fff;opacity:0.05"/></g></g></g></svg>