<svg xmlns="http://www.w3.org/2000/svg" xmlns:xlink="http://www.w3.org/1999/xlink" viewBox="0 0 327.6 522.5"><defs><linearGradient id="Degradado_sin_nombre_4" x1="51.97" y1="250.68" x2="105.72" y2="263.04" gradientUnits="userSpaceOnUse"><stop offset="0" stop-color="#fff"/><stop offset="0.09" stop-color="#fff" stop-opacity="0.97"/><stop offset="0.22" stop-color="#fff" stop-opacity="0.89"/><stop offset="0.38" stop-color="#fff" stop-opacity="0.76"/><stop offset="0.56" stop-color="#fff" stop-opacity="0.57"/><stop offset="0.75" stop-color="#fff" stop-opacity="0.33"/><stop offset="0.97" stop-color="#fff" stop-opacity="0.05"/><stop offset="1" stop-color="#fff" stop-opacity="0"/></linearGradient><linearGradient id="Degradado_sin_nombre_5" x1="263.36" y1="252.87" x2="235.8" y2="263.47" xlink:href="#Degradado_sin_nombre_4"/><linearGradient id="Degradado_sin_nombre_15" x1="193.32" y1="261.25" x2="297.35" y2="261.25" gradientUnits="userSpaceOnUse"><stop offset="0" stop-color="#fff" stop-opacity="0.5"/><stop offset="1" stop-color="#fff" stop-opacity="0"/></linearGradient></defs><g style="isolation:isolate"><g id="Matraz_erlenmeyer" data-name="Matraz erlenmeyer"><path id="halo" d="M217.33,5a9.17,9.17,0,0,1,9.17,9.17v10a5.82,5.82,0,0,1-5.07,5.94v94.24l97.71,316c13.11,42.41-12.49,77.11-56.88,77.11H65.33c-44.39,0-70-34.7-56.87-77.11l97.71-316V30.1a5.82,5.82,0,0,1-5.07-5.94v-10A9.17,9.17,0,0,1,110.27,5H217.33m0-5H110.27A14.19,14.19,0,0,0,96.1,14.17v10a10.56,10.56,0,0,0,5.07,9.32v90.11L3.69,438.92c-6.83,22.06-4.12,43,7.62,58.9s30.93,24.68,54,24.68H262.26c23.1,0,42.29-8.76,54-24.68s14.44-36.84,7.62-58.9L226.43,123.59V33.48a10.56,10.56,0,0,0,5.07-9.32v-10A14.19,14.19,0,0,0,217.33,0Z" style="fill:#fff"/><path id="liquido" d="M107,30.1h.38v94.43l0,.18L9.66,440.76c-6.22,20.12-3.85,39.07,6.68,53.35s27.93,22.14,49,22.14H262.26c21.07,0,38.47-7.86,49-22.14s12.9-33.23,6.68-53.35L220.18,124.53V30.1h.38V28.85a4.7,4.7,0,0,0,4.69-4.69v-10a7.93,7.93,0,0,0-7.92-7.92H110.27a7.93,7.93,0,0,0-7.92,7.92v10A4.7,4.7,0,0,0,107,28.85Z" style="fill:#000145"/><g id="cuerpo"><path id="borde" d="M110.27,5a9.17,9.17,0,0,0-9.17,9.17v10a5.82,5.82,0,0,0,5.07,5.94v94.24l-97.71,316C-4.65,482.8,20.94,517.5,65.33,517.5H262.26c44.39,0,70-34.7,56.88-77.11l-97.71-316V30.1a5.82,5.82,0,0,0,5.07-5.94v-10A9.17,9.17,0,0,0,217.33,5Z" style="fill:none;stroke:#fff;stroke-miterlimit:10;stroke-width:2.5px;opacity:0.30000000000000004"/><path id="cuerpo-2" data-name="cuerpo" d="M110.27,6.25a7.93,7.93,0,0,0-7.92,7.92v10a4.52,4.52,0,0,0,4,4.7l1.08.14v95.53l0,.18L9.66,440.76c-6.22,20.12-3.85,39.07,6.68,53.35s27.93,22.14,49,22.14H262.26c21.07,0,38.47-7.86,49-22.14s12.9-33.23,6.68-53.35L220.18,124.53V29l1.1-.13a4.52,4.52,0,0,0,4-4.7v-10a7.93,7.93,0,0,0-7.92-7.92Z" style="fill:#fff;opacity:0.05"/><path id="brillo1" d="M67.51,494.11C57,479.83,54.6,460.88,60.82,440.76l75.67-316,.06-.18V29l-1.08-.14a4.52,4.52,0,0,1-4-4.7v-10a7.93,7.93,0,0,1,7.92-7.92H110.27a7.93,7.93,0,0,0-7.92,7.92v10a4.52,4.52,0,0,0,4,4.7l1.08.14v95.53l0,.18L9.66,440.76c-6.22,20.12-3.85,39.07,6.68,53.35s27.93,22.14,49,22.14H116.5C95.44,516.25,78,508.39,67.51,494.11Z" style="mix-blend-mode:overlay;opacity:0.4;fill:url(#Degradado_sin_nombre_4)"/><path id="brillo2" d="M317.94,440.76,220.18,124.53V29l1.1-.13a4.52,4.52,0,0,0,4-4.7v-10a7.93,7.93,0,0,0-7.92-7.92H207a7.93,7.93,0,0,1,7.92,7.92v10a4.52,4.52,0,0,1-4,4.7l-1.1.13v95.54l88.58,316.23c6.22,20.12,3.85,39.07-6.68,53.35s-27.93,22.14-49,22.14h19.49c21.07,0,38.47-7.86,49-22.14S324.16,460.88,317.94,440.76Z" style="mix-blend-mode:overlay;opacity:0.4;fill:url(#Degradado_sin_nombre_5)"/><path id="brillo3" d="M274.28,494.11c10.53-14.28,12.9-33.23,6.68-53.35l-84.74-316-.06-.18V29l1.09-.14a4.51,4.51,0,0,0,4-4.7v-10a7.92,7.92,0,0,0-7.91-7.92h13a7.93,7.93,0,0,1,7.92,7.92v10a4.52,4.52,0,0,1-4,4.7l-1.09.14v95.53l.05.18L294,440.76c6.22,20.12,3.85,39.07-6.68,53.35s-27.93,22.14-49,22.14h-13C246.35,516.25,263.75,508.39,274.28,494.11Z" style="opacity:0.5;fill:url(#Degradado_sin_nombre_15)"/><rect id="brillo4" x="107.41" y="29" width="112.77" height="3.11" style="fill:#fff;opacity:0.05"/><g id="escala"><polygon points="122.35 368.46 103.92 368.46 104.02 367.96 122.44 367.96 122.35 368.46" style="fill:#bcbcbc"/><polygon points="136.11 297.52 118.47 297.52 118.57 297.02 136.21 297.02 136.11 297.52" style="fill:#bcbcbc"/><path d="M150.86,301.38h-7.74l.15-.78,4.7-3.28a10.32,10.32,0,0,0,1.47-1.21,1.91,1.91,0,0,0,.52-1,1.09,1.09,0,0,0-.35-1.1,2.08,2.08,0,0,0-1.41-.43,3.34,3.34,0,0,0-1.82.46,1.92,1.92,0,0,0-.85,1.28H144a2.82,2.82,0,0,1,1.41-1.9,5.42,5.42,0,0,1,2.93-.73,4.1,4.1,0,0,1,2.48.63,1.57,1.57,0,0,1,.64,1.66c-.15.84-1.08,1.84-2.77,3l-3.63,2.48H151Z" style="fill:#fff"/><path d="M160.51,297.74a4.67,4.67,0,0,1-1.4,2.83,4.41,4.41,0,0,1-3,.93,3.23,3.23,0,0,1-2.63-.91,3.3,3.3,0,0,1-.45-2.7l.27-1.45a4.65,4.65,0,0,1,1.41-2.79,4.43,4.43,0,0,1,3-.92,2.68,2.68,0,0,1,3.07,3.61Zm-1.23-1.48a2.78,2.78,0,0,0-.17-2,1.77,1.77,0,0,0-1.58-.63,2.42,2.42,0,0,0-1.78.63,3.59,3.59,0,0,0-.9,1.93l-.31,1.73a2.82,2.82,0,0,0,.18,2,1.73,1.73,0,0,0,1.56.66,2.44,2.44,0,0,0,1.77-.62,3.56,3.56,0,0,0,.91-2Z" style="fill:#fff"/><path d="M169.83,297.74a4.67,4.67,0,0,1-1.39,2.83,4.38,4.38,0,0,1-3,.93,3.25,3.25,0,0,1-2.64-.91,3.3,3.3,0,0,1-.46-2.7l.26-1.45a4.58,4.58,0,0,1,1.39-2.79,4.38,4.38,0,0,1,3-.92,3.35,3.35,0,0,1,2.64.88,3.3,3.3,0,0,1,.45,2.73Zm-1.24-1.48a2.82,2.82,0,0,0-.19-2,1.77,1.77,0,0,0-1.58-.63,2.43,2.43,0,0,0-1.78.63,3.58,3.58,0,0,0-.88,1.93l-.31,1.73a2.86,2.86,0,0,0,.2,2,1.74,1.74,0,0,0,1.57.66,2.43,2.43,0,0,0,1.76-.62,3.55,3.55,0,0,0,.9-2Z" style="fill:#fff"/><path d="M163.1,231.07h-7.4l.14-.78,4.53-3.28a9.75,9.75,0,0,0,1.42-1.21,2,2,0,0,0,.5-1,1.12,1.12,0,0,0-.32-1.1,1.92,1.92,0,0,0-1.34-.43,3.09,3.09,0,0,0-1.75.46,1.93,1.93,0,0,0-.83,1.28h-1.43a2.84,2.84,0,0,1,1.36-1.9,5.17,5.17,0,0,1,2.81-.73,3.73,3.73,0,0,1,2.36.63,1.61,1.61,0,0,1,.61,1.66c-.16.84-1,1.84-2.68,3l-3.49,2.48h5.67Z" style="fill:#fff"/><path d="M166.06,226.79l1.35-4.25h5.76l-.18,1h-4.55l-.76,2.33a4.93,4.93,0,0,1,1.94-.37,3.14,3.14,0,0,1,2.31.77,2.21,2.21,0,0,1,.53,2.08,3.13,3.13,0,0,1-1.31,2.08,4.69,4.69,0,0,1-2.77.76,3.78,3.78,0,0,1-2.33-.63,1.86,1.86,0,0,1-.76-1.73h1.35a1.28,1.28,0,0,0,.49,1.1,2.3,2.3,0,0,0,1.41.37,2.65,2.65,0,0,0,1.66-.51,2.27,2.27,0,0,0,.83-1.43,1.45,1.45,0,0,0-.37-1.37,2.12,2.12,0,0,0-1.54-.52,3.35,3.35,0,0,0-1.53.31l-.42.24Z" style="fill:#fff"/><path d="M181.26,227.43a4.78,4.78,0,0,1-1.35,2.83,4.12,4.12,0,0,1-2.86.93,3,3,0,0,1-2.51-.91,3.35,3.35,0,0,1-.42-2.7l.25-1.45a4.78,4.78,0,0,1,1.36-2.79,4.12,4.12,0,0,1,2.85-.92,3.05,3.05,0,0,1,2.51.89,3.4,3.4,0,0,1,.41,2.72ZM180.08,226a2.9,2.9,0,0,0-.16-2,1.64,1.64,0,0,0-1.5-.63,2.28,2.28,0,0,0-1.71.63,3.73,3.73,0,0,0-.86,1.93l-.31,1.73a3,3,0,0,0,.17,2.05,1.66,1.66,0,0,0,1.5.65,2.23,2.23,0,0,0,1.68-.62,3.62,3.62,0,0,0,.88-2Z" style="fill:#fff"/><path d="M134.13,372h-1.58l1.35-7.23-3.3.8.19-1,4.69-1.17h.25Z" style="fill:#fff"/><path d="M140.23,367.74l1.4-4.26h6.29l-.18,1h-5l-.79,2.32a6,6,0,0,1,2.12-.37,3.68,3.68,0,0,1,2.53.77,2.12,2.12,0,0,1,.61,2.09,3,3,0,0,1-1.4,2.07,5.38,5.38,0,0,1-3,.76,4.59,4.59,0,0,1-2.56-.62,1.87,1.87,0,0,1-.86-1.74h1.49a1.27,1.27,0,0,0,.55,1.11,2.76,2.76,0,0,0,1.54.37,3,3,0,0,0,1.81-.52,2.14,2.14,0,0,0,.88-1.42,1.4,1.4,0,0,0-.43-1.38,2.47,2.47,0,0,0-1.69-.51,3.83,3.83,0,0,0-1.67.31l-.45.23Z" style="fill:#fff"/><path d="M156.84,368.38a4.59,4.59,0,0,1-1.43,2.83,4.72,4.72,0,0,1-3.1.92,3.56,3.56,0,0,1-2.77-.9,3.25,3.25,0,0,1-.5-2.71l.26-1.44a4.51,4.51,0,0,1,1.43-2.8,4.73,4.73,0,0,1,3.1-.91,3.55,3.55,0,0,1,2.76.88,3.17,3.17,0,0,1,.49,2.72Zm-1.31-1.49a2.69,2.69,0,0,0-.2-2,1.91,1.91,0,0,0-1.66-.63,2.6,2.6,0,0,0-1.85.62,3.46,3.46,0,0,0-.91,1.93l-.31,1.74a2.74,2.74,0,0,0,.22,2,1.87,1.87,0,0,0,1.64.66,2.63,2.63,0,0,0,1.84-.62,3.64,3.64,0,0,0,.93-2Z" style="fill:#fff"/><path d="M121,442.33h-1.65l1.36-7.22-3.44.8.19-1,4.88-1.17h.26Z" style="fill:#fff"/><path d="M134.51,438.69a4.46,4.46,0,0,1-1.48,2.83,5,5,0,0,1-3.24.93,3.75,3.75,0,0,1-2.88-.91,3.12,3.12,0,0,1-.53-2.7l.27-1.45a4.46,4.46,0,0,1,1.49-2.79,5,5,0,0,1,3.23-.92,3.81,3.81,0,0,1,2.88.89,3.09,3.09,0,0,1,.52,2.72Zm-1.36-1.48a2.6,2.6,0,0,0-.22-2,2,2,0,0,0-1.72-.63,2.76,2.76,0,0,0-1.94.63,3.41,3.41,0,0,0-.94,1.93l-.32,1.73a2.63,2.63,0,0,0,.23,2,2,2,0,0,0,1.72.66,2.72,2.72,0,0,0,1.9-.62,3.39,3.39,0,0,0,1-1.95Z" style="fill:#fff"/><path d="M144.65,438.69a4.45,4.45,0,0,1-1.47,2.83,5,5,0,0,1-3.22.93,3.76,3.76,0,0,1-2.89-.91,3.12,3.12,0,0,1-.54-2.7l.25-1.45a4.45,4.45,0,0,1,1.48-2.79,5,5,0,0,1,3.22-.92,3.84,3.84,0,0,1,2.89.89,3.12,3.12,0,0,1,.53,2.72Zm-1.37-1.48a2.64,2.64,0,0,0-.23-2,2,2,0,0,0-1.73-.63,2.75,2.75,0,0,0-1.93.63,3.34,3.34,0,0,0-.93,1.93l-.31,1.73a2.62,2.62,0,0,0,.25,2,2,2,0,0,0,1.71.66,2.75,2.75,0,0,0,1.91-.62A3.38,3.38,0,0,0,143,439Z" style="fill:#fff"/><polygon points="108.58 439.41 89.08 439.41 132.87 226.08 149.97 226.08 149.88 226.58 133.27 226.58 89.75 438.91 108.68 438.91 108.58 439.41" style="fill:#bcbcbc"/><path d="M69.46,311.14H63.58l.42-1.45L67.75,306a12.13,12.13,0,0,0,1.19-1.38,3.41,3.41,0,0,0,.56-1.11,1.71,1.71,0,0,0,0-1.12.65.65,0,0,0-.68-.4,1.4,1.4,0,0,0-1,.52,3.19,3.19,0,0,0-.68,1.31l-1.65,0a5.41,5.41,0,0,1,.87-1.79,4.61,4.61,0,0,1,1.36-1.29,3.26,3.26,0,0,1,1.61-.5,1.83,1.83,0,0,1,1.75.76,2.84,2.84,0,0,1,.12,2.24,5.91,5.91,0,0,1-.74,1.64,14.17,14.17,0,0,1-1.61,1.94l-2.62,2.59H69.9Z" style="fill:#fff"/><path d="M72.08,305.81l1.85-5.52,4.58-.11L78.1,302l-3.28.06-.77,2.34A2.7,2.7,0,0,1,75.4,304a1.62,1.62,0,0,1,1.64.94,4.23,4.23,0,0,1,.07,2.71,5.84,5.84,0,0,1-.77,1.9,4.11,4.11,0,0,1-1.29,1.3,3.12,3.12,0,0,1-1.65.46,2.27,2.27,0,0,1-1.35-.4,2,2,0,0,1-.77-1.11,3.41,3.41,0,0,1,0-1.65H73a1.54,1.54,0,0,0,.11,1.06.8.8,0,0,0,.74.37,1.28,1.28,0,0,0,1-.53,3.61,3.61,0,0,0,.66-1.5,2.21,2.21,0,0,0,0-1.42.85.85,0,0,0-.88-.48,1.56,1.56,0,0,0-1,.41l-.21.2Z" style="fill:#fff"/><path d="M84.06,306.54a8.23,8.23,0,0,1-1.41,3.52,2.94,2.94,0,0,1-2.39,1.22,1.84,1.84,0,0,1-1.89-1.18,6,6,0,0,1,0-3.39l.45-2a8.33,8.33,0,0,1,1.47-3.5,3,3,0,0,1,2.3-1.25,1.73,1.73,0,0,1,1.81,1.15,6.38,6.38,0,0,1,.07,3.41Zm-1.22-2.23a5.21,5.21,0,0,0,.12-2,.71.71,0,0,0-.75-.61,1.18,1.18,0,0,0-1,.61,5.75,5.75,0,0,0-.69,1.87L80,306.86a5.1,5.1,0,0,0-.14,2,.73.73,0,0,0,.77.66,1.22,1.22,0,0,0,1-.64,6,6,0,0,0,.67-1.93Z" style="fill:#fff"/><path d="M87.48,302.83l-.12.92a2.53,2.53,0,0,1,2-1.11,1.32,1.32,0,0,1,1.42,1.25,2.51,2.51,0,0,1,2.06-1.31,1.35,1.35,0,0,1,1.37.77,4.5,4.5,0,0,1,.14,2.39l-.79,5.39H91.81l.83-5.36a2,2,0,0,0,0-1c-.1-.22-.33-.32-.68-.32s-.89.33-1.18,1l-.93,5.75H88.1l.9-5.31a1.94,1.94,0,0,0,0-1.05.68.68,0,0,0-.67-.31,1.36,1.36,0,0,0-1.16.8l-1,5.87h-1.7l1.55-8.28Z" style="fill:#fff"/><path d="M96.62,311.13H94.91l1.68-12,1.63,0Z" style="fill:#fff"/><path d="M80.15,386.25l-33.77.27a8.38,8.38,0,0,1-7.91-10.89l15.82-55.05a8,8,0,0,1,7.6-5.75l29.44-.22a8.36,8.36,0,0,1,8.15,9.86L88,379.46A8.07,8.07,0,0,1,80.15,386.25Z" style="fill:#fff"/></g></g></g></g></svg>