<svg xmlns="http://www.w3.org/2000/svg" xmlns:xlink="http://www.w3.org/1999/xlink" viewBox="0 0 46.48 1405.27"><defs><linearGradient id="Degradado_sin_nombre_19" x1="3.74" y1="702.59" x2="42.72" y2="702.59" gradientUnits="userSpaceOnUse"><stop offset="0" stop-color="#fff" stop-opacity="0.5"/><stop offset="0.54" stop-color="#fff" stop-opacity="0"/><stop offset="0.99" stop-color="#fff" stop-opacity="0.5"/></linearGradient><linearGradient id="Degradado_sin_nombre_15" x1="41.66" y1="702.65" x2="53.38" y2="702.65" gradientUnits="userSpaceOnUse"><stop offset="0" stop-color="#fff" stop-opacity="0.5"/><stop offset="1" stop-color="#fff" stop-opacity="0"/></linearGradient><linearGradient id="Degradado_sin_nombre_15-2" x1="3.73" y1="702.6" x2="29.29" y2="702.6" xlink:href="#Degradado_sin_nombre_15"/><linearGradient id="linear-gradient" x1="27.84" y1="-140.5" x2="27.84" y2="1472.61" xlink:href="#Degradado_sin_nombre_15"/><linearGradient id="linear-gradient-2" x1="29.87" y1="-140.5" x2="29.87" y2="150.02" xlink:href="#Degradado_sin_nombre_15"/></defs><g style="isolation:isolate"><g id="pipeta-volumetrica"><path id="halo" d="M18.19,1402.77c-.83-25.34-5.26-51.63-12.34-78.61a276.68,276.68,0,0,1-3.35-42.93V106.89a11.09,11.09,0,0,1,6.18-10l2.76-1.38L7.55,2.5H38.93L35,95.56l2.76,1.38a11.09,11.09,0,0,1,6.18,10V1281.23a276.68,276.68,0,0,1-3.35,42.93c-7.08,27-11.51,53.27-12.35,78.61Z" style="fill:none;stroke:#fff;stroke-miterlimit:10;stroke-width:5px"/><path id="liquido" d="M19.4,1401.52h7.68c.9-24,4.93-49.42,12.32-77.61a276,276,0,0,0,3.33-42.68V106.89a9.79,9.79,0,0,0-5.48-8.83l-3.5-1.74L37.63,3.66,23.24,2.61,8.85,3.66l3.88,92.66-3.5,1.74a9.79,9.79,0,0,0-5.48,8.83V1281.23a275.93,275.93,0,0,0,3.33,42.68C14.47,1352.1,18.5,1377.5,19.4,1401.52Z" style="fill:#000145"/><g id="cuerpo"><path id="borde" d="M18.19,1402.77c-.83-25.34-5.26-51.63-12.34-78.61a276.68,276.68,0,0,1-3.35-42.93V106.89a11.09,11.09,0,0,1,6.18-10l2.76-1.38L7.55,2.5H38.93L35,95.56l2.76,1.38a11.09,11.09,0,0,1,6.18,10V1281.23a276.68,276.68,0,0,1-3.35,42.93c-7.08,27-11.51,53.27-12.35,78.61Z" style="fill:none;stroke:#fff;stroke-miterlimit:10;stroke-width:2.5px;opacity:0.30000000000000004"/><path id="cuerpo-2" data-name="cuerpo" d="M19.39,1401.52h7.68c.89-24,4.93-49.42,12.32-77.61a276,276,0,0,0,3.33-42.68V106.89a9.79,9.79,0,0,0-5.48-8.83l-3.5-1.74L37.62,3.66H8.84l3.87,92.66L9.22,98.06a9.79,9.79,0,0,0-5.48,8.83V1281.23a277.16,277.16,0,0,0,3.32,42.68C14.46,1352.1,18.49,1377.5,19.39,1401.52Z" style="mix-blend-mode:overlay;opacity:0.4;fill:url(#Degradado_sin_nombre_19)"/><path id="brillo2" d="M37.14,98.11l-3.49-1.73L37.52,3.71h-3L30.69,96.38l3.49,1.73A9.81,9.81,0,0,1,39.66,107V1281.29A277.13,277.13,0,0,1,36.34,1324c-7.4,28.19-11.43,53.6-12.33,77.62h3c.9-24,4.93-49.43,12.33-77.62a277.13,277.13,0,0,0,3.32-42.67V107A9.81,9.81,0,0,0,37.14,98.11Z" style="opacity:0.05;fill:url(#Degradado_sin_nombre_15)"/><g id="escala"><rect x="1.23" y="1092.96" width="43.89" height="1" style="fill:#fff"/><rect x="1.23" y="1106.26" width="13.89" height="1" style="fill:#fff"/><rect x="1.23" y="1119.57" width="13.89" height="1" style="fill:#fff"/><rect x="1.23" y="1132.87" width="13.89" height="1" style="fill:#fff"/><rect x="1.23" y="1146.17" width="13.89" height="1" style="fill:#fff"/><rect x="1.23" y="1159.47" width="13.89" height="1" style="fill:#fff"/><rect x="1.23" y="1172.77" width="13.89" height="1" style="fill:#fff"/><rect x="1.23" y="1186.07" width="13.89" height="1" style="fill:#fff"/><rect x="1.23" y="1199.38" width="13.89" height="1" style="fill:#fff"/><rect x="1.23" y="1212.68" width="13.89" height="1" style="fill:#fff"/><rect x="1.23" y="1225.98" width="43.89" height="1" style="fill:#fff"/><rect x="1.23" y="959.95" width="43.89" height="1" style="fill:#fff"/><rect x="1.23" y="973.25" width="13.89" height="1" style="fill:#fff"/><rect x="1.23" y="986.55" width="13.89" height="1" style="fill:#fff"/><rect x="1.23" y="999.85" width="13.89" height="1" style="fill:#fff"/><rect x="1.23" y="1013.15" width="13.89" height="1" style="fill:#fff"/><rect x="1.23" y="1026.46" width="13.89" height="1" style="fill:#fff"/><rect x="1.23" y="1039.76" width="13.89" height="1" style="fill:#fff"/><rect x="1.23" y="1053.06" width="13.89" height="1" style="fill:#fff"/><rect x="1.23" y="1066.36" width="13.89" height="1" style="fill:#fff"/><rect x="1.23" y="1079.66" width="13.89" height="1" style="fill:#fff"/><rect x="1.23" y="826.93" width="43.89" height="1" style="fill:#fff"/><rect x="1.23" y="840.24" width="13.89" height="1" style="fill:#fff"/><rect x="1.23" y="853.54" width="13.89" height="1" style="fill:#fff"/><rect x="1.23" y="866.84" width="13.89" height="1" style="fill:#fff"/><rect x="1.23" y="880.14" width="13.89" height="1" style="fill:#fff"/><rect x="1.23" y="893.44" width="13.89" height="1" style="fill:#fff"/><rect x="1.23" y="906.74" width="13.89" height="1" style="fill:#fff"/><rect x="1.23" y="920.05" width="13.89" height="1" style="fill:#fff"/><rect x="1.23" y="933.35" width="13.89" height="1" style="fill:#fff"/><rect x="1.23" y="946.65" width="13.89" height="1" style="fill:#fff"/><rect x="1.23" y="693.92" width="43.89" height="1" style="fill:#fff"/><rect x="1.23" y="707.22" width="13.89" height="1" style="fill:#fff"/><rect x="1.23" y="720.52" width="13.89" height="1" style="fill:#fff"/><rect x="1.23" y="733.82" width="13.89" height="1" style="fill:#fff"/><rect x="1.23" y="747.13" width="13.89" height="1" style="fill:#fff"/><rect x="1.23" y="760.43" width="13.89" height="1" style="fill:#fff"/><rect x="1.23" y="773.73" width="13.89" height="1" style="fill:#fff"/><rect x="1.23" y="787.03" width="13.89" height="1" style="fill:#fff"/><rect x="1.23" y="800.33" width="13.89" height="1" style="fill:#fff"/><rect x="1.23" y="813.63" width="13.89" height="1" style="fill:#fff"/><rect x="1.23" y="560.91" width="43.89" height="1" style="fill:#fff"/><rect x="1.23" y="574.21" width="13.89" height="1" style="fill:#fff"/><rect x="1.23" y="587.51" width="13.89" height="1" style="fill:#fff"/><rect x="1.23" y="600.81" width="13.89" height="1" style="fill:#fff"/><rect x="1.23" y="614.11" width="13.89" height="1" style="fill:#fff"/><rect x="1.23" y="627.41" width="13.89" height="1" style="fill:#fff"/><rect x="1.23" y="640.71" width="13.89" height="1" style="fill:#fff"/><rect x="1.23" y="654.02" width="13.89" height="1" style="fill:#fff"/><rect x="1.23" y="667.32" width="13.89" height="1" style="fill:#fff"/><rect x="1.23" y="680.62" width="13.89" height="1" style="fill:#fff"/><path d="M37.54,545.17a10.2,10.2,0,0,1-1.44,5.93,4.83,4.83,0,0,1-4.22,2,4.93,4.93,0,0,1-4.21-2,9.84,9.84,0,0,1-1.49-5.78V542a10.07,10.07,0,0,1,1.44-5.9,4.9,4.9,0,0,1,4.23-2A4.91,4.91,0,0,1,36,536.07a9.68,9.68,0,0,1,1.5,5.71ZM36,541.85a9.05,9.05,0,0,0-1-4.8,3.46,3.46,0,0,0-3.13-1.62,3.47,3.47,0,0,0-3.1,1.59,8.66,8.66,0,0,0-1.06,4.68v3.63a9,9,0,0,0,1.07,4.84,3.49,3.49,0,0,0,3.12,1.67A3.43,3.43,0,0,0,35,550.21a9.18,9.18,0,0,0,1.06-4.8Z" style="fill:#fff"/><path d="M33.79,684.22H32.27V667.56l-5,1.87V668l6.3-2.33h.25Z" style="fill:#fff"/><path d="M38,820.6H26.39v-1.17l6.34-7.18a16.62,16.62,0,0,0,2.18-3,4.91,4.91,0,0,0,.61-2.29,3.73,3.73,0,0,0-1-2.78,3.84,3.84,0,0,0-2.83-1,4,4,0,0,0-3,1.19,4.28,4.28,0,0,0-1.15,3.1H26a5.78,5.78,0,0,1,.7-2.84,5.07,5.07,0,0,1,2-2,6,6,0,0,1,3-.73,5.59,5.59,0,0,1,4,1.34,4.74,4.74,0,0,1,1.43,3.63,6.13,6.13,0,0,1-.81,2.83,21,21,0,0,1-2.84,3.83l-5.15,5.83H38Z" style="fill:#fff"/><path d="M29.77,942.25h1.57a5.29,5.29,0,0,0,2.29-.47,3.46,3.46,0,0,0,1.49-1.27,3.39,3.39,0,0,0,.51-1.86,3.76,3.76,0,0,0-1-2.78,3.9,3.9,0,0,0-2.88-1,4.09,4.09,0,0,0-2.91,1,3.56,3.56,0,0,0-1.14,2.76H26.18a4.94,4.94,0,0,1,.72-2.62,4.77,4.77,0,0,1,2-1.84,6.21,6.21,0,0,1,2.84-.65,5.49,5.49,0,0,1,4,1.38,4.89,4.89,0,0,1,1.45,3.75,4,4,0,0,1-.85,2.46A5,5,0,0,1,34,942.84a4.75,4.75,0,0,1,2.61,1.66,4.5,4.5,0,0,1,.89,2.8A5,5,0,0,1,36,951.12a5.83,5.83,0,0,1-4.14,1.45,6.86,6.86,0,0,1-3-.66,5.1,5.1,0,0,1-2.14-1.85,5.05,5.05,0,0,1-.75-2.76h1.52a3.69,3.69,0,0,0,1.23,2.87,4.55,4.55,0,0,0,3.16,1.11,4.37,4.37,0,0,0,3.07-1,3.8,3.8,0,0,0,1.1-2.93,3.45,3.45,0,0,0-1.19-2.83,5.41,5.41,0,0,0-3.5-1H29.77Z" style="fill:#fff"/><path d="M35.72,1080.52h2.89v1.28H35.72v4.67H34.2v-4.67H25.5v-.86l8.56-13h1.66Zm-8.35,0H34.2V1070l-.67,1.17Z" style="fill:#fff"/><path d="M27.42,1210.76l.9-9h9.24v1.41H29.63L29,1209.4a6,6,0,0,1,3.48-1,5.16,5.16,0,0,1,4,1.63,6.17,6.17,0,0,1,1.48,4.33,6.51,6.51,0,0,1-1.45,4.53,5.16,5.16,0,0,1-4.07,1.61,5.66,5.66,0,0,1-3.91-1.34,5.49,5.49,0,0,1-1.71-3.77h1.46a4.37,4.37,0,0,0,1.28,2.86,4.1,4.1,0,0,0,2.88,1,3.6,3.6,0,0,0,3-1.26,5.59,5.59,0,0,0,1-3.58,4.85,4.85,0,0,0-1.13-3.31,3.91,3.91,0,0,0-3.09-1.28,5.81,5.81,0,0,0-1.87.27,5.09,5.09,0,0,0-1.69,1.06Z" style="fill:#fff"/><path d="M21.25,410.44,12,409.5V400H14.2v7.47l5,.56a6,6,0,0,1-.8-3.08,5.13,5.13,0,0,1,1.67-4,6.54,6.54,0,0,1,4.51-1.48,6.29,6.29,0,0,1,4.5,1.54,5.62,5.62,0,0,1,1.65,4.31,5.81,5.81,0,0,1-1.36,4,5.48,5.48,0,0,1-3.76,1.77v-2.23a3.73,3.73,0,0,0,2.4-1.13,3.54,3.54,0,0,0,.8-2.41,3.15,3.15,0,0,0-1.12-2.57,4.66,4.66,0,0,0-3.08-.93,4.26,4.26,0,0,0-3,1,3.42,3.42,0,0,0-1.12,2.68,3.84,3.84,0,0,0,.67,2.41l.51.63Z" style="fill:#fff"/><path d="M21.79,385.63l-5-3.05v-2.74l6.79,4.49,6.94-4.63v2.72l-5.14,3.17,5.14,3.17v2.73l-6.94-4.63-6.79,4.49v-2.71Z" style="fill:#fff"/><path d="M30.51,363.44v2.36H14.86l1.74,4.73H14.47l-2.53-6.72v-.37Z" style="fill:#fff"/><path d="M32.1,355.85v2L12,350.15v-2Z" style="fill:#fff"/><path d="M30.51,338.12v2.36H14.86l1.74,4.74H14.47l-2.53-6.73v-.37Z" style="fill:#fff"/><path d="M22.63,319.65c2.75,0,4.8.47,6.13,1.41a5,5,0,0,1,2,4.41,5.07,5.07,0,0,1-2,4.38A10.31,10.31,0,0,1,23,331.32H19.81q-4.06,0-6-1.41a6,6,0,0,1-.07-8.81c1.27-.94,3.24-1.42,5.89-1.45ZM19.42,322a8.59,8.59,0,0,0-4.35.84,3.25,3.25,0,0,0,0,5.28,8.46,8.46,0,0,0,4.18.85H23a8.71,8.71,0,0,0,4.42-.87,3.15,3.15,0,0,0,.09-5.22,8.52,8.52,0,0,0-4.24-.88Z" style="fill:#fff"/></g><path d="M27.12,1401.52c.34-9.06.94-18.12,2.17-27.45a396.25,396.25,0,0,0-9.68-49.1,275.8,275.8,0,0,1-3.33-42.67V108c.34-8.37,6.5-10.68,6.5-10.68l-1.4-93.6H8.84l3.87,92.64C6.32,99,3.59,102.1,3.74,108V1282.3A277,277,0,0,0,7.06,1325a356.83,356.83,0,0,1,12.28,76.55Z" style="mix-blend-mode:overlay;opacity:0.4;fill:url(#Degradado_sin_nombre_15-2)"/><path d="M32.23,1280.59V106.25a9.81,9.81,0,0,0-5.48-8.84l-3.49-1.73L27.1,3.75H8.85l3.88,92.57-3.5,1.74a9.79,9.79,0,0,0-5.48,8.83V1281.23a276,276,0,0,0,3.33,42.68A388.38,388.38,0,0,1,18,1381.55a385.11,385.11,0,0,1,11-58.29A277.13,277.13,0,0,0,32.23,1280.59Z" style="fill:none"/><path d="M32.23,98.48a9.78,9.78,0,0,1,5.49,8.83V1281.65a275.8,275.8,0,0,1-3.33,42.67c-7.35,28-11.38,53.31-12.31,77.2h5c.9-24,4.93-49.42,12.32-77.62a275.8,275.8,0,0,0,3.33-42.67V106.89a9.79,9.79,0,0,0-5.48-8.83l-3.5-1.74L37.63,3.75h-5l-3.89,93Z" style="fill:none"/><path d="M22.08,1401.52c.93-23.89,5-49.17,12.31-77.2a275.8,275.8,0,0,0,3.33-42.67V107.31a9.78,9.78,0,0,0-5.49-8.83l-3.49-1.74,3.89-93H27.1L23.26,95.68l3.49,1.73a9.81,9.81,0,0,1,5.48,8.84V1280.59a277.13,277.13,0,0,1-3.32,42.67A385.11,385.11,0,0,0,18,1381.55q1.07,10.17,1.44,20Z" style="opacity:0.5;fill:url(#linear-gradient)"/><polygon points="32.63 3.71 27.1 3.71 27.1 3.75 32.63 3.75 32.63 3.71" style="opacity:0.5;fill:url(#linear-gradient-2)"/><polygon points="32.63 3.71 27.1 3.71 27.1 3.75 32.63 3.75 32.63 3.71" style="fill:#fff;opacity:0.30000000000000004"/></g></g></g></svg>