<svg xmlns="http://www.w3.org/2000/svg" xmlns:xlink="http://www.w3.org/1999/xlink" viewBox="0 0 51.48 1410.27"><defs><linearGradient id="Degradado_sin_nombre_19" x1="6.24" y1="705.09" x2="45.22" y2="705.09" gradientUnits="userSpaceOnUse"><stop offset="0" stop-color="#fff" stop-opacity="0.5"/><stop offset="0.54" stop-color="#fff" stop-opacity="0"/><stop offset="0.99" stop-color="#fff" stop-opacity="0.5"/></linearGradient><linearGradient id="Degradado_sin_nombre_15" x1="44.16" y1="705.15" x2="55.88" y2="705.15" gradientUnits="userSpaceOnUse"><stop offset="0" stop-color="#fff" stop-opacity="0.5"/><stop offset="1" stop-color="#fff" stop-opacity="0"/></linearGradient><linearGradient id="Degradado_sin_nombre_15-2" x1="6.23" y1="705.1" x2="31.79" y2="705.1" xlink:href="#Degradado_sin_nombre_15"/><linearGradient id="linear-gradient" x1="30.34" y1="-138" x2="30.34" y2="1475.11" xlink:href="#Degradado_sin_nombre_15"/><linearGradient id="linear-gradient-2" x1="32.37" y1="-138" x2="32.37" y2="152.52" xlink:href="#Degradado_sin_nombre_15"/></defs><g style="isolation:isolate"><g id="pipeta-volumetrica"><path id="halo" d="M41.43,5,37.54,98.06l2.76,1.38a11.09,11.09,0,0,1,6.18,10V1283.73a276.68,276.68,0,0,1-3.35,42.93c-7.08,27-11.51,53.27-12.35,78.61H20.69c-.83-25.34-5.26-51.63-12.34-78.61A276.68,276.68,0,0,1,5,1283.73V109.39a11.09,11.09,0,0,1,6.18-10l2.76-1.38L10.05,5H41.43m5.21-5H4.84l.21,5.21L8.81,95A16,16,0,0,0,0,109.39V1283.73a283,283,0,0,0,3.41,43.71l0,.25.06.24c7.41,28.23,11.4,53.59,12.19,77.51l.16,4.83H35.62l.16-4.83c.79-23.92,4.78-49.28,12.19-77.51l.06-.24,0-.25a283,283,0,0,0,3.41-43.71V109.39A16,16,0,0,0,42.67,95L46.43,5.21,46.64,0Z" style="fill:#fff"/><path id="liquido" d="M21.9,1404h7.68c.9-24,4.93-49.42,12.32-77.61a276,276,0,0,0,3.33-42.68V109.39a9.79,9.79,0,0,0-5.48-8.83l-3.5-1.74L40.13,6.16l-14.39-1-14.39,1,3.88,92.66-3.5,1.74a9.79,9.79,0,0,0-5.48,8.83V1283.73a275.93,275.93,0,0,0,3.33,42.68C17,1354.6,21,1380,21.9,1404Z" style="fill:#000145"/><g id="cuerpo"><path id="borde" d="M20.69,1405.27c-.83-25.34-5.26-51.63-12.34-78.61A276.68,276.68,0,0,1,5,1283.73V109.39a11.09,11.09,0,0,1,6.18-10l2.76-1.38L10.05,5H41.43L37.54,98.06l2.76,1.38a11.09,11.09,0,0,1,6.18,10V1283.73a276.68,276.68,0,0,1-3.35,42.93c-7.08,27-11.51,53.27-12.35,78.61Z" style="fill:none;stroke:#fff;stroke-miterlimit:10;stroke-width:2.5px;opacity:0.30000000000000004"/><path id="cuerpo-2" data-name="cuerpo" d="M21.89,1404h7.68c.89-24,4.93-49.42,12.32-77.61a276,276,0,0,0,3.33-42.68V109.39a9.79,9.79,0,0,0-5.48-8.83l-3.5-1.74L40.12,6.16H11.34l3.87,92.66-3.49,1.74a9.79,9.79,0,0,0-5.48,8.83V1283.73a277.16,277.16,0,0,0,3.32,42.68C17,1354.6,21,1380,21.89,1404Z" style="mix-blend-mode:overlay;opacity:0.4;fill:url(#Degradado_sin_nombre_19)"/><path id="brillo2" d="M39.64,100.61l-3.49-1.73L40,6.21h-3L33.19,98.88l3.49,1.73a9.81,9.81,0,0,1,5.48,8.84V1283.79a277.13,277.13,0,0,1-3.32,42.67c-7.39,28.19-11.43,53.6-12.33,77.62h3c.9-24,4.93-49.43,12.33-77.62a277.13,277.13,0,0,0,3.32-42.67V109.45A9.81,9.81,0,0,0,39.64,100.61Z" style="opacity:0.05;fill:url(#Degradado_sin_nombre_15)"/><g id="escala"><rect x="3.73" y="1095.46" width="43.89" height="1" style="fill:#fff"/><rect x="3.73" y="1108.76" width="13.89" height="1" style="fill:#fff"/><rect x="3.73" y="1122.07" width="13.89" height="1" style="fill:#fff"/><rect x="3.73" y="1135.37" width="13.89" height="1" style="fill:#fff"/><rect x="3.73" y="1148.67" width="13.89" height="1" style="fill:#fff"/><rect x="3.73" y="1161.97" width="13.89" height="1" style="fill:#fff"/><rect x="3.73" y="1175.27" width="13.89" height="1" style="fill:#fff"/><rect x="3.73" y="1188.57" width="13.89" height="1" style="fill:#fff"/><rect x="3.73" y="1201.88" width="13.89" height="1" style="fill:#fff"/><rect x="3.73" y="1215.18" width="13.89" height="1" style="fill:#fff"/><rect x="3.73" y="1228.48" width="43.89" height="1" style="fill:#fff"/><rect x="3.73" y="962.45" width="43.89" height="1" style="fill:#fff"/><rect x="3.73" y="975.75" width="13.89" height="1" style="fill:#fff"/><rect x="3.73" y="989.05" width="13.89" height="1" style="fill:#fff"/><rect x="3.73" y="1002.35" width="13.89" height="1" style="fill:#fff"/><rect x="3.73" y="1015.65" width="13.89" height="1" style="fill:#fff"/><rect x="3.73" y="1028.96" width="13.89" height="1" style="fill:#fff"/><rect x="3.73" y="1042.26" width="13.89" height="1" style="fill:#fff"/><rect x="3.73" y="1055.56" width="13.89" height="1" style="fill:#fff"/><rect x="3.73" y="1068.86" width="13.89" height="1" style="fill:#fff"/><rect x="3.73" y="1082.16" width="13.89" height="1" style="fill:#fff"/><rect x="3.73" y="829.43" width="43.89" height="1" style="fill:#fff"/><rect x="3.73" y="842.74" width="13.89" height="1" style="fill:#fff"/><rect x="3.73" y="856.04" width="13.89" height="1" style="fill:#fff"/><rect x="3.73" y="869.34" width="13.89" height="1" style="fill:#fff"/><rect x="3.73" y="882.64" width="13.89" height="1" style="fill:#fff"/><rect x="3.73" y="895.94" width="13.89" height="1" style="fill:#fff"/><rect x="3.73" y="909.24" width="13.89" height="1" style="fill:#fff"/><rect x="3.73" y="922.55" width="13.89" height="1" style="fill:#fff"/><rect x="3.73" y="935.85" width="13.89" height="1" style="fill:#fff"/><rect x="3.73" y="949.15" width="13.89" height="1" style="fill:#fff"/><rect x="3.73" y="696.42" width="43.89" height="1" style="fill:#fff"/><rect x="3.73" y="709.72" width="13.89" height="1" style="fill:#fff"/><rect x="3.73" y="723.02" width="13.89" height="1" style="fill:#fff"/><rect x="3.73" y="736.32" width="13.89" height="1" style="fill:#fff"/><rect x="3.73" y="749.63" width="13.89" height="1" style="fill:#fff"/><rect x="3.73" y="762.93" width="13.89" height="1" style="fill:#fff"/><rect x="3.73" y="776.23" width="13.89" height="1" style="fill:#fff"/><rect x="3.73" y="789.53" width="13.89" height="1" style="fill:#fff"/><rect x="3.73" y="802.83" width="13.89" height="1" style="fill:#fff"/><rect x="3.73" y="816.13" width="13.89" height="1" style="fill:#fff"/><rect x="3.73" y="563.41" width="43.89" height="1" style="fill:#fff"/><rect x="3.73" y="576.71" width="13.89" height="1" style="fill:#fff"/><rect x="3.73" y="590.01" width="13.89" height="1" style="fill:#fff"/><rect x="3.73" y="603.31" width="13.89" height="1" style="fill:#fff"/><rect x="3.73" y="616.61" width="13.89" height="1" style="fill:#fff"/><rect x="3.73" y="629.91" width="13.89" height="1" style="fill:#fff"/><rect x="3.73" y="643.21" width="13.89" height="1" style="fill:#fff"/><rect x="3.73" y="656.52" width="13.89" height="1" style="fill:#fff"/><rect x="3.73" y="669.82" width="13.89" height="1" style="fill:#fff"/><rect x="3.73" y="683.12" width="13.89" height="1" style="fill:#fff"/><path d="M40,547.67a10.2,10.2,0,0,1-1.44,5.93,4.83,4.83,0,0,1-4.22,2,4.93,4.93,0,0,1-4.21-2,9.84,9.84,0,0,1-1.49-5.78v-3.32a10.07,10.07,0,0,1,1.44-5.9,4.9,4.9,0,0,1,4.23-2,4.91,4.91,0,0,1,4.19,1.94,9.68,9.68,0,0,1,1.5,5.71Zm-1.52-3.32a9.05,9.05,0,0,0-1-4.8,3.46,3.46,0,0,0-3.13-1.62,3.47,3.47,0,0,0-3.1,1.59,8.66,8.66,0,0,0-1.06,4.68v3.63a9,9,0,0,0,1.07,4.84,3.49,3.49,0,0,0,3.12,1.67,3.43,3.43,0,0,0,3.08-1.63,9.18,9.18,0,0,0,1.06-4.8Z" style="fill:#fff"/><path d="M36.29,686.72H34.77V670.06l-5,1.87V670.5l6.3-2.33h.25Z" style="fill:#fff"/><path d="M40.47,823.1H28.89v-1.17l6.34-7.18a16.62,16.62,0,0,0,2.18-3,4.91,4.91,0,0,0,.61-2.29,3.73,3.73,0,0,0-1-2.78,3.84,3.84,0,0,0-2.83-1,4,4,0,0,0-3,1.19A4.28,4.28,0,0,0,30,810H28.49a5.78,5.78,0,0,1,.7-2.84,5.07,5.07,0,0,1,2-2,6,6,0,0,1,3-.73,5.59,5.59,0,0,1,4,1.34,4.74,4.74,0,0,1,1.43,3.63,6.13,6.13,0,0,1-.81,2.83A21,21,0,0,1,35.91,816l-5.15,5.83h9.71Z" style="fill:#fff"/><path d="M32.27,944.75h1.57a5.29,5.29,0,0,0,2.29-.47A3.46,3.46,0,0,0,37.62,943a3.39,3.39,0,0,0,.51-1.86,3.76,3.76,0,0,0-1-2.78,3.9,3.9,0,0,0-2.88-1,4.09,4.09,0,0,0-2.91,1,3.56,3.56,0,0,0-1.14,2.76H28.68a4.94,4.94,0,0,1,.72-2.62,4.77,4.77,0,0,1,2-1.84,6.21,6.21,0,0,1,2.84-.65,5.49,5.49,0,0,1,4,1.38,4.89,4.89,0,0,1,1.45,3.75,4,4,0,0,1-.85,2.46,5,5,0,0,1-2.31,1.68A4.75,4.75,0,0,1,39.11,947a4.5,4.5,0,0,1,.89,2.8,5,5,0,0,1-1.55,3.82,5.83,5.83,0,0,1-4.14,1.45,6.86,6.86,0,0,1-3-.66,5.1,5.1,0,0,1-2.14-1.85,5.05,5.05,0,0,1-.75-2.76h1.52a3.69,3.69,0,0,0,1.23,2.87,4.55,4.55,0,0,0,3.16,1.11,4.37,4.37,0,0,0,3.07-1,3.8,3.8,0,0,0,1.1-2.93A3.45,3.45,0,0,0,37.29,947a5.41,5.41,0,0,0-3.5-1H32.27Z" style="fill:#fff"/><path d="M38.22,1083h2.89v1.28H38.22V1089H36.7v-4.67H28v-.86l8.56-13h1.66Zm-8.35,0H36.7v-10.56l-.67,1.17Z" style="fill:#fff"/><path d="M29.92,1213.26l.9-9h9.24v1.41H32.13l-.65,6.25a6,6,0,0,1,3.48-1,5.16,5.16,0,0,1,4,1.63,6.17,6.17,0,0,1,1.48,4.33,6.51,6.51,0,0,1-1.45,4.53,5.16,5.16,0,0,1-4.07,1.61,5.66,5.66,0,0,1-3.91-1.34,5.49,5.49,0,0,1-1.71-3.77h1.46a4.37,4.37,0,0,0,1.28,2.86,4.1,4.1,0,0,0,2.88,1,3.6,3.6,0,0,0,3-1.26,5.59,5.59,0,0,0,1-3.58,4.85,4.85,0,0,0-1.13-3.31,3.91,3.91,0,0,0-3.09-1.28,5.81,5.81,0,0,0-1.87.27,5.09,5.09,0,0,0-1.69,1.06Z" style="fill:#fff"/><path d="M23.75,412.94,14.53,412v-9.47H16.7V410l5,.56a6,6,0,0,1-.8-3.08,5.13,5.13,0,0,1,1.67-4A6.54,6.54,0,0,1,27.12,402a6.29,6.29,0,0,1,4.5,1.54,5.62,5.62,0,0,1,1.65,4.31,5.81,5.81,0,0,1-1.36,4,5.48,5.48,0,0,1-3.76,1.77v-2.23a3.73,3.73,0,0,0,2.4-1.13,3.54,3.54,0,0,0,.8-2.41,3.15,3.15,0,0,0-1.12-2.57,4.66,4.66,0,0,0-3.08-.93,4.26,4.26,0,0,0-3,1A3.42,3.42,0,0,0,23.05,408a3.84,3.84,0,0,0,.67,2.41l.51.63Z" style="fill:#fff"/><path d="M24.29,388.13l-5-3.05v-2.74l6.79,4.49L33,382.2v2.72l-5.14,3.17L33,391.26V394l-6.94-4.63-6.79,4.49v-2.71Z" style="fill:#fff"/><path d="M33,365.94v2.36H17.36L19.1,373H17l-2.53-6.72v-.37Z" style="fill:#fff"/><path d="M34.6,358.35v2l-20.07-7.71v-2Z" style="fill:#fff"/><path d="M33,340.62V343H17.36l1.74,4.74H17L14.44,341v-.37Z" style="fill:#fff"/><path d="M25.13,322.15c2.75,0,4.8.47,6.13,1.41a5,5,0,0,1,2,4.41,5.07,5.07,0,0,1-2,4.38,10.31,10.31,0,0,1-5.86,1.47H22.31q-4.06,0-6-1.41a6,6,0,0,1-.07-8.81c1.27-.94,3.24-1.42,5.89-1.45Zm-3.21,2.35a8.59,8.59,0,0,0-4.35.84,3.25,3.25,0,0,0,0,5.28,8.46,8.46,0,0,0,4.18.85H25.5a8.71,8.71,0,0,0,4.42-.87,3.15,3.15,0,0,0,.09-5.22,8.52,8.52,0,0,0-4.24-.88Z" style="fill:#fff"/></g><path d="M29.62,1404c.34-9.06.94-18.12,2.17-27.45a394.42,394.42,0,0,0-9.68-49.1,275.8,275.8,0,0,1-3.33-42.67V110.46c.34-8.37,6.5-10.68,6.5-10.68l-1.4-93.6H11.34l3.87,92.64c-6.39,2.67-9.12,5.78-9,11.64V1284.8a277,277,0,0,0,3.32,42.67A356.83,356.83,0,0,1,21.84,1404Z" style="mix-blend-mode:overlay;opacity:0.4;fill:url(#Degradado_sin_nombre_15-2)"/><path d="M34.73,1283.09V108.75a9.81,9.81,0,0,0-5.48-8.84l-3.49-1.73L29.6,6.25H11.35l3.88,92.57-3.5,1.74a9.79,9.79,0,0,0-5.48,8.83V1283.73a276,276,0,0,0,3.33,42.68,388.38,388.38,0,0,1,10.88,57.64,385.11,385.11,0,0,1,11-58.29A277.13,277.13,0,0,0,34.73,1283.09Z" style="fill:none"/><path d="M34.73,101a9.78,9.78,0,0,1,5.49,8.83V1284.15a275.8,275.8,0,0,1-3.33,42.67c-7.35,28-11.38,53.31-12.31,77.2h5c.9-24,4.93-49.42,12.32-77.62a275.8,275.8,0,0,0,3.33-42.67V109.39a9.79,9.79,0,0,0-5.48-8.83l-3.5-1.74L40.13,6.25h-5l-3.89,93Z" style="fill:none"/><path d="M24.58,1404c.93-23.89,5-49.17,12.31-77.2a275.8,275.8,0,0,0,3.33-42.67V109.81A9.78,9.78,0,0,0,34.73,101l-3.49-1.74,3.89-93H29.6L25.76,98.18l3.49,1.73a9.81,9.81,0,0,1,5.48,8.84V1283.09a277.13,277.13,0,0,1-3.32,42.67,385.11,385.11,0,0,0-10.95,58.29q1.07,10.17,1.44,20Z" style="opacity:0.5;fill:url(#linear-gradient)"/><polygon points="35.13 6.21 29.6 6.21 29.6 6.25 35.13 6.25 35.13 6.21" style="opacity:0.5;fill:url(#linear-gradient-2)"/><polygon points="35.13 6.21 29.6 6.21 29.6 6.25 35.13 6.25 35.13 6.21" style="fill:#fff;opacity:0.30000000000000004"/></g></g></g></svg>