<svg xmlns="http://www.w3.org/2000/svg" xmlns:xlink="http://www.w3.org/1999/xlink" viewBox="0 0 44 1402.77"><defs><style>.cls-1{isolation:isolate;}.cls-2{fill:#ce1199;}.cls-3{fill:none;stroke:#fff;stroke-miterlimit:10;stroke-width:2.5px;opacity:0.3;}.cls-4,.cls-5{mix-blend-mode:overlay;opacity:0.4;}.cls-4{fill:url(#Degradado_sin_nombre_19);}.cls-5{fill:url(#Degradado_sin_nombre_15);}.cls-6{opacity:0.05;fill:url(#Degradado_sin_nombre_15-2);}.cls-7{opacity:0.5;fill:url(#linear-gradient);}.cls-8{fill:#97d3ff;}</style><linearGradient id="Degradado_sin_nombre_19" x1="2.51" y1="701.34" x2="41.49" y2="701.34" gradientUnits="userSpaceOnUse"><stop offset="0" stop-color="#fff" stop-opacity="0.5"/><stop offset="0.54" stop-color="#fff" stop-opacity="0"/><stop offset="0.99" stop-color="#fff" stop-opacity="0.5"/></linearGradient><linearGradient id="Degradado_sin_nombre_15" x1="2.51" y1="701.88" x2="28.27" y2="701.88" gradientUnits="userSpaceOnUse"><stop offset="0" stop-color="#fff" stop-opacity="0.5"/><stop offset="1" stop-color="#fff" stop-opacity="0"/></linearGradient><linearGradient id="Degradado_sin_nombre_15-2" x1="40.43" y1="701.4" x2="52.15" y2="701.4" xlink:href="#Degradado_sin_nombre_15"/><linearGradient id="linear-gradient" x1="24.8" y1="-141.75" x2="24.8" y2="1471.36" xlink:href="#Degradado_sin_nombre_15"/></defs><g class="cls-1"><g id="pipeta-volumetrica"><path id="liquido" class="cls-2" d="M18.17,1400.27h7.68c.9-24,4.93-49.42,12.32-77.61A276,276,0,0,0,41.5,1280V105.64A9.79,9.79,0,0,0,36,96.81l-3.5-1.74L36.4,2.41,22,1.36,7.62,2.41l3.87,92.66L8,96.81a9.79,9.79,0,0,0-5.48,8.83V1280a277.16,277.16,0,0,0,3.32,42.68C13.24,1350.85,17.27,1376.25,18.17,1400.27Z"/><g id="cuerpo"><path id="borde" class="cls-3" d="M17,1401.52c-.83-25.34-5.26-51.63-12.34-78.61A276.68,276.68,0,0,1,1.27,1280V105.64a11.09,11.09,0,0,1,6.18-10l2.76-1.38L6.32,1.25H37.7L33.81,94.31l2.76,1.38a11.09,11.09,0,0,1,6.18,10V1280a276.68,276.68,0,0,1-3.35,42.93c-7.08,27-11.51,53.27-12.35,78.61Z"/><path id="cuerpo-2" data-name="cuerpo" class="cls-4" d="M18.16,1400.27h7.67c.9-24,4.94-49.42,12.33-77.61A276,276,0,0,0,41.49,1280V105.64A9.79,9.79,0,0,0,36,96.81l-3.5-1.74L36.39,2.41H7.61l3.87,92.66L8,96.81a9.79,9.79,0,0,0-5.48,8.83V1280a277.16,277.16,0,0,0,3.32,42.68C13.22,1350.85,17.26,1376.25,18.16,1400.27Z"/><path id="brillo1" class="cls-5" d="M18.38,1323.72a275.8,275.8,0,0,1-3.33-42.67V106.71a9.81,9.81,0,0,1,5.48-8.84L24,96.14,20.15,2.43H7.61l3.87,93.71L8,97.87a9.81,9.81,0,0,0-5.48,8.84V1281.05a277,277,0,0,0,3.32,42.67c7.39,28.19,11.43,53.6,12.33,77.62h7.67c.35-9.21,1.16-18.63,2.44-28.32A402.94,402.94,0,0,0,18.38,1323.72Z"/><path id="brillo2" class="cls-6" d="M35.91,96.86l-3.49-1.73L36.29,2.46h-3L29.46,95.13,33,96.86a9.81,9.81,0,0,1,5.48,8.84V1280a277.13,277.13,0,0,1-3.32,42.67c-7.4,28.19-11.43,53.6-12.33,77.62h3c.9-24,4.93-49.43,12.33-77.62A277.13,277.13,0,0,0,41.39,1280V105.7A9.81,9.81,0,0,0,35.91,96.86Z"/><path id="brillo3" class="cls-7" d="M31,97.23l-3.49-1.74,3.89-93H25.87L22,94.43l3.5,1.73A9.81,9.81,0,0,1,31,105V1279.34A277.13,277.13,0,0,1,27.68,1322c-7.4,28.19-11.43,53.6-12.33,77.61H13.11c0,.36,0,.72.05,1.07h7.67c.9-24,4.94-49.42,12.33-77.62a275.8,275.8,0,0,0,3.33-42.67V106.06A9.8,9.8,0,0,0,31,97.23Z"/><g id="escala"><rect class="cls-8" y="1091.71" width="43.89" height="1"/><rect class="cls-8" y="1105.01" width="13.89" height="1"/><rect class="cls-8" y="1118.32" width="13.89" height="1"/><rect class="cls-8" y="1131.62" width="13.89" height="1"/><rect class="cls-8" y="1144.92" width="13.89" height="1"/><rect class="cls-8" y="1158.22" width="13.89" height="1"/><rect class="cls-8" y="1171.52" width="13.89" height="1"/><rect class="cls-8" y="1184.82" width="13.89" height="1"/><rect class="cls-8" y="1198.13" width="13.89" height="1"/><rect class="cls-8" y="1211.43" width="13.89" height="1"/><rect class="cls-8" y="1224.73" width="43.89" height="1"/><rect class="cls-8" y="958.7" width="43.89" height="1"/><rect class="cls-8" y="972" width="13.89" height="1"/><rect class="cls-8" y="985.3" width="13.89" height="1"/><rect class="cls-8" y="998.6" width="13.89" height="1"/><rect class="cls-8" y="1011.9" width="13.89" height="1"/><rect class="cls-8" y="1025.21" width="13.89" height="1"/><rect class="cls-8" y="1038.51" width="13.89" height="1"/><rect class="cls-8" y="1051.81" width="13.89" height="1"/><rect class="cls-8" y="1065.11" width="13.89" height="1"/><rect class="cls-8" y="1078.41" width="13.89" height="1"/><rect class="cls-8" y="825.68" width="43.89" height="1"/><rect class="cls-8" y="838.99" width="13.89" height="1"/><rect class="cls-8" y="852.29" width="13.89" height="1"/><rect class="cls-8" y="865.59" width="13.89" height="1"/><rect class="cls-8" y="878.89" width="13.89" height="1"/><rect class="cls-8" y="892.19" width="13.89" height="1"/><rect class="cls-8" y="905.49" width="13.89" height="1"/><rect class="cls-8" y="918.8" width="13.89" height="1"/><rect class="cls-8" y="932.1" width="13.89" height="1"/><rect class="cls-8" y="945.4" width="13.89" height="1"/><rect class="cls-8" y="692.67" width="43.89" height="1"/><rect class="cls-8" y="705.97" width="13.89" height="1"/><rect class="cls-8" y="719.27" width="13.89" height="1"/><rect class="cls-8" y="732.57" width="13.89" height="1"/><rect class="cls-8" y="745.88" width="13.89" height="1"/><rect class="cls-8" y="759.18" width="13.89" height="1"/><rect class="cls-8" y="772.48" width="13.89" height="1"/><rect class="cls-8" y="785.78" width="13.89" height="1"/><rect class="cls-8" y="799.08" width="13.89" height="1"/><rect class="cls-8" y="812.38" width="13.89" height="1"/><rect class="cls-8" y="559.66" width="43.89" height="1"/><rect class="cls-8" y="572.96" width="13.89" height="1"/><rect class="cls-8" y="586.26" width="13.89" height="1"/><rect class="cls-8" y="599.56" width="13.89" height="1"/><rect class="cls-8" y="612.86" width="13.89" height="1"/><rect class="cls-8" y="626.16" width="13.89" height="1"/><rect class="cls-8" y="639.46" width="13.89" height="1"/><rect class="cls-8" y="652.77" width="13.89" height="1"/><rect class="cls-8" y="666.07" width="13.89" height="1"/><rect class="cls-8" y="679.37" width="13.89" height="1"/><path class="cls-8" d="M36.31,543.92a10.2,10.2,0,0,1-1.44,5.93,4.83,4.83,0,0,1-4.22,2,4.93,4.93,0,0,1-4.21-2A9.84,9.84,0,0,1,25,544.11v-3.32a10.07,10.07,0,0,1,1.44-5.9,4.9,4.9,0,0,1,4.23-2,4.92,4.92,0,0,1,4.19,1.94,9.75,9.75,0,0,1,1.5,5.71Zm-1.53-3.32a9.06,9.06,0,0,0-1-4.8,3.46,3.46,0,0,0-3.13-1.62,3.47,3.47,0,0,0-3.1,1.59,8.66,8.66,0,0,0-1.06,4.68v3.63a9,9,0,0,0,1.07,4.84,3.48,3.48,0,0,0,3.12,1.67A3.4,3.4,0,0,0,33.72,549a9,9,0,0,0,1.06-4.8Z"/><path class="cls-8" d="M32.56,683H31V666.31l-5,1.87v-1.43l6.3-2.33h.25Z"/><path class="cls-8" d="M36.74,819.35H25.16v-1.17L31.5,811a16.62,16.62,0,0,0,2.18-3,4.91,4.91,0,0,0,.61-2.29,3.73,3.73,0,0,0-1-2.78,3.84,3.84,0,0,0-2.83-1,4,4,0,0,0-3,1.19,4.31,4.31,0,0,0-1.14,3.1H24.75a5.78,5.78,0,0,1,.71-2.84,5.07,5.07,0,0,1,2-2,6,6,0,0,1,3-.73,5.61,5.61,0,0,1,4,1.34,4.74,4.74,0,0,1,1.43,3.63,6.13,6.13,0,0,1-.81,2.83,21,21,0,0,1-2.84,3.83L27,818.07h9.71Z"/><path class="cls-8" d="M28.54,941h1.57a5.29,5.29,0,0,0,2.29-.47,3.46,3.46,0,0,0,1.49-1.27,3.39,3.39,0,0,0,.51-1.86,3.76,3.76,0,0,0-1-2.78,3.9,3.9,0,0,0-2.88-1,4.14,4.14,0,0,0-2.92,1,3.59,3.59,0,0,0-1.13,2.76H25a4.94,4.94,0,0,1,.72-2.62,4.81,4.81,0,0,1,2-1.84,6.29,6.29,0,0,1,2.85-.65,5.52,5.52,0,0,1,4,1.38,4.93,4.93,0,0,1,1.45,3.75,4,4,0,0,1-.85,2.46,5,5,0,0,1-2.31,1.68,4.75,4.75,0,0,1,2.61,1.66,4.5,4.5,0,0,1,.89,2.8,5,5,0,0,1-1.55,3.82,5.83,5.83,0,0,1-4.14,1.45,6.93,6.93,0,0,1-3-.66,4.88,4.88,0,0,1-2.88-4.61h1.52a3.69,3.69,0,0,0,1.23,2.87A4.55,4.55,0,0,0,30.58,950a4.38,4.38,0,0,0,3.07-1,3.8,3.8,0,0,0,1.1-2.93,3.45,3.45,0,0,0-1.19-2.83,5.41,5.41,0,0,0-3.5-1H28.54Z"/><path class="cls-8" d="M34.49,1079.27h2.88v1.28H34.49v4.67H33v-4.67h-8.7v-.86l8.56-13h1.66Zm-8.35,0H33v-10.56l-.67,1.17Z"/><path class="cls-8" d="M26.19,1209.51l.9-9h9.24v1.41H28.4l-.65,6.25a6,6,0,0,1,3.48-1,5.16,5.16,0,0,1,4,1.63,6.17,6.17,0,0,1,1.48,4.33,6.51,6.51,0,0,1-1.45,4.53,5.16,5.16,0,0,1-4.07,1.61,5.66,5.66,0,0,1-3.91-1.34,5.55,5.55,0,0,1-1.72-3.77H27A4.43,4.43,0,0,0,28.3,1217a4.1,4.1,0,0,0,2.88,1,3.6,3.6,0,0,0,3-1.26,5.59,5.59,0,0,0,1-3.58,4.85,4.85,0,0,0-1.13-3.31,3.93,3.93,0,0,0-3.09-1.28,5.92,5.92,0,0,0-1.88.27,5.16,5.16,0,0,0-1.68,1.06Z"/><path class="cls-8" d="M20,409.19l-9.22-.94v-9.47H13v7.47l5,.56a6,6,0,0,1-.8-3.08,5.13,5.13,0,0,1,1.67-4,6.54,6.54,0,0,1,4.51-1.48,6.29,6.29,0,0,1,4.5,1.54,5.62,5.62,0,0,1,1.65,4.31,5.86,5.86,0,0,1-1.36,4,5.48,5.48,0,0,1-3.76,1.77v-2.23a3.68,3.68,0,0,0,2.39-1.13,3.5,3.5,0,0,0,.81-2.41,3.15,3.15,0,0,0-1.12-2.57,4.66,4.66,0,0,0-3.08-.93,4.26,4.26,0,0,0-3,1,3.42,3.42,0,0,0-1.12,2.68,3.84,3.84,0,0,0,.67,2.41l.51.63Z"/><path class="cls-8" d="M20.56,384.38l-5-3.05v-2.74l6.79,4.49,6.94-4.63v2.72l-5.14,3.17,5.14,3.17v2.73l-6.94-4.63-6.79,4.49v-2.71Z"/><path class="cls-8" d="M29.28,362.19v2.36H13.63l1.74,4.73H13.24l-2.53-6.72v-.37Z"/><path class="cls-8" d="M30.87,354.6v2L10.8,348.9v-2Z"/><path class="cls-8" d="M29.28,336.87v2.36H13.63L15.37,344H13.24l-2.53-6.73v-.37Z"/><path class="cls-8" d="M21.4,318.4q4.13,0,6.13,1.41a5,5,0,0,1,2,4.41,5.07,5.07,0,0,1-2,4.38,10.31,10.31,0,0,1-5.86,1.47H18.58c-2.72,0-4.73-.47-6-1.41a6,6,0,0,1-.07-8.81c1.27-.94,3.24-1.42,5.89-1.45Zm-3.21,2.35a8.59,8.59,0,0,0-4.35.84,3.25,3.25,0,0,0,0,5.28,8.46,8.46,0,0,0,4.18.85h3.76a8.71,8.71,0,0,0,4.42-.87,2.88,2.88,0,0,0,1.43-2.63,2.85,2.85,0,0,0-1.35-2.59,8.49,8.49,0,0,0-4.24-.88Z"/></g></g></g></g></svg>