<svg xmlns="http://www.w3.org/2000/svg" xmlns:xlink="http://www.w3.org/1999/xlink" viewBox="0 0 188.54 258.24"><defs><linearGradient id="Degradado_sin_nombre_7" x1="149.88" y1="3.39" x2="149.88" y2="192.28" gradientUnits="userSpaceOnUse"><stop offset="0" stop-color="#fff" stop-opacity="0.4"/><stop offset="1" stop-color="#fff" stop-opacity="0"/></linearGradient><linearGradient id="Degradado_sin_nombre_8" x1="139.83" y1="129.2" x2="184.68" y2="129.2" gradientUnits="userSpaceOnUse"><stop offset="0" stop-color="#fff" stop-opacity="0"/><stop offset="1" stop-color="#fff"/></linearGradient><linearGradient id="Degradado_sin_nombre_10" x1="3.84" y1="129.12" x2="97.51" y2="129.12" gradientUnits="userSpaceOnUse"><stop offset="0" stop-color="#fff"/><stop offset="0.98" stop-color="#fff" stop-opacity="0"/></linearGradient></defs><g style="isolation:isolate"><g id="vaso-precipitados"><path id="halo" d="M151.35,258.24H55.67a34.88,34.88,0,0,1-34.91-34.77V30.88c0-2.17-6-8.9-19.12-18.52A4,4,0,0,1,2.3,5.5l.75-.34,1.7-.72C11,1.77,15.2,0,23.34,0H184.57a4,4,0,0,1,3.26,6.22l-1.58,2.27v215A34.88,34.88,0,0,1,151.35,258.24ZM6,9.35c13.13,9.77,19.78,17,19.78,21.53V223.47a29.87,29.87,0,0,0,29.91,29.77h95.68a29.86,29.86,0,0,0,29.9-29.77V8.07a3.59,3.59,0,0,1,.67-2.1l.67-1H23.34C16.21,5,12.84,6.43,6.71,9ZM4.49,10ZM186,8.82h0Zm-2.29-5.46h0Z" style="fill:#fff"/><path id="liquido" d="M23.34,3.83C16,3.83,12.53,5.29,6.26,8l-1.73.73L4,8.92l-.2.18c7.8,5.84,20.75,16.17,20.75,21.78V223.47a31,31,0,0,0,31.08,30.95h95.68a31,31,0,0,0,31.07-30.95V7.29L184.68,4Z" style="fill:#000145"/><g id="cuerpo"><path id="borde" d="M55.67,255.74a32.37,32.37,0,0,1-32.41-32.27V30.88c0-5.21-14.08-16.1-20.14-20.53a1.51,1.51,0,0,1,.25-2.59L4,7.47l1.72-.73C12,4.09,15.71,2.5,23.34,2.5H184.57a1.46,1.46,0,0,1,1.3.78,1.42,1.42,0,0,1-.09,1.5L184,7.41a1.18,1.18,0,0,0-.21.66v215.4a32.36,32.36,0,0,1-32.4,32.27Z" style="fill:none;stroke:#fff;stroke-miterlimit:10;stroke-width:2.5px;opacity:0.30000000000000004"/><path id="cuerpo-2" data-name="cuerpo" d="M23.34,3.83C16,3.83,12.53,5.29,6.26,8l-1.73.73L4,8.92l-.2.18c7.8,5.84,20.75,16.17,20.75,21.78V223.47a31,31,0,0,0,31.08,30.95h95.68a31,31,0,0,0,31.07-30.95V7.29L184.68,4Z" style="fill:#fff;opacity:0.05"/><polygon id="brillo3" points="160.06 241.33 140.08 241.33 140.08 7.38 136.86 4.01 162.91 4.01 160.06 7.38 160.06 241.33" style="opacity:0.5;fill:url(#Degradado_sin_nombre_7)"/><path id="brillo2" d="M184.68,4l-2.26,3.25V223.45a31,31,0,0,1-31.07,30.94H139.83a31,31,0,0,0,31.07-30.94V7.27L173.17,4Z" style="mix-blend-mode:overlay;opacity:0.4;fill:url(#Degradado_sin_nombre_8)"/><path id="brillo1" d="M66.44,223.47V30.88c0-5.61-13-15.94-20.76-21.78l.2-.18.49-.23L48.1,8c5.76-2.45,9.18-3.87,15.41-4.09l-40.17,0C16,3.83,12.53,5.29,6.26,8l-1.73.73L4,8.92l-.2.18c7.8,5.84,20.75,16.17,20.75,21.78V223.47a31,31,0,0,0,31.08,30.95H97.51A31,31,0,0,1,66.44,223.47Z" style="mix-blend-mode:overlay;opacity:0.4;fill:url(#Degradado_sin_nombre_10)"/><g id="escala"><g id="regla"><line x1="102.99" y1="192.48" x2="122.24" y2="192.48" style="fill:#fff;stroke:#fff;stroke-miterlimit:10;stroke-width:0.5px"/><line x1="102.99" y1="154.34" x2="122.24" y2="154.34" style="fill:#fff;stroke:#fff;stroke-miterlimit:10;stroke-width:0.5px"/><line x1="102.99" y1="116.2" x2="122.24" y2="116.2" style="fill:#fff;stroke:#fff;stroke-miterlimit:10;stroke-width:0.5px"/><line x1="102.99" y1="78.06" x2="122.24" y2="78.06" style="fill:#fff;stroke:#fff;stroke-miterlimit:10;stroke-width:0.5px"/><line x1="129.31" y1="173.44" x2="102.99" y2="173.44" style="fill:#fff;stroke:#fff;stroke-miterlimit:10;stroke-width:0.5px"/><line x1="129.31" y1="135.37" x2="102.99" y2="135.37" style="fill:#fff;stroke:#fff;stroke-miterlimit:10;stroke-width:0.5px"/><line x1="129.31" y1="97.3" x2="102.99" y2="97.3" style="fill:#fff;stroke:#fff;stroke-miterlimit:10;stroke-width:0.5px"/><polyline points="129.31 59.23 102.3 59.23 102.3 211.51 102.3 211.51 129.31 211.51" style="fill:none;stroke:#fff;stroke-miterlimit:10;stroke-width:0.5px"/></g><g id="_100ml" data-name="100ml"><path d="M51,168.81l-1.77,0,.19-8.52-2.63.82,0-1.48L51,158.16h.23Z" style="fill:#fff"/><path d="M61.89,164.53A5.81,5.81,0,0,1,61,168a3,3,0,0,1-2.63,1.12,3.07,3.07,0,0,1-2.58-1.18,5.43,5.43,0,0,1-.85-3.37l0-1.83a5.68,5.68,0,0,1,.91-3.42,3.61,3.61,0,0,1,5.24.05,5.5,5.5,0,0,1,.83,3.35Zm-1.75-2a4.51,4.51,0,0,0-.37-2.2,1.58,1.58,0,0,0-2.59-.07,4.13,4.13,0,0,0-.46,2.05l0,2.4a4.54,4.54,0,0,0,.38,2.22,1.41,1.41,0,0,0,1.3.75,1.39,1.39,0,0,0,1.28-.65,4.35,4.35,0,0,0,.46-2.1Z" style="fill:#fff"/><path d="M70.48,164.62a5.79,5.79,0,0,1-.9,3.44A3.05,3.05,0,0,1,67,169.2,3.09,3.09,0,0,1,64.36,168a5.56,5.56,0,0,1-.86-3.37l0-1.83a5.74,5.74,0,0,1,.89-3.43,3.61,3.61,0,0,1,5.24,0,5.53,5.53,0,0,1,.85,3.34Zm-1.76-2a4.41,4.41,0,0,0-.39-2.19,1.38,1.38,0,0,0-1.29-.71,1.41,1.41,0,0,0-1.29.64,4.18,4.18,0,0,0-.46,2.06l0,2.4a4.64,4.64,0,0,0,.39,2.22,1.4,1.4,0,0,0,1.31.74,1.36,1.36,0,0,0,1.27-.66,4.2,4.2,0,0,0,.45-2.1Z" style="fill:#fff"/><path d="M74,161.23l0,.82a2.87,2.87,0,0,1,2.28-1,2.2,2.2,0,0,1,2.17,1.23,2.79,2.79,0,0,1,2.44-1.2,2.46,2.46,0,0,1,2,.73,3.15,3.15,0,0,1,.64,2.13l0,5.18H81.74l0-5.13a1.56,1.56,0,0,0-.32-1.1,1.76,1.76,0,0,0-2.08,0,1.77,1.77,0,0,0-.55.85l0,5.41H77l0-5.19a1.27,1.27,0,0,0-1.42-1.4,1.59,1.59,0,0,0-1.52.86l0,5.72H72.29l0-7.89Z" style="fill:#fff"/><path d="M87.39,169.16H85.61V158H87.4Z" style="fill:#fff"/></g><path id="ml" d="M53.33,179.74c10.36.19,22.86.31,36.41.34a5.16,5.16,0,0,1,5.18,5.15v23.15a5.16,5.16,0,0,1-5.19,5.15c-12.76-.05-28.6-.25-36.56-.36A5.15,5.15,0,0,1,48.08,208V184.89A5.15,5.15,0,0,1,53.33,179.74Z" style="fill:#fff"/></g><polygon id="sombra_boquilla" points="183.65 9.01 5.09 9.01 9.11 7.28 183.65 7.28 183.65 9.01" style="fill:#fff;opacity:0.05"/></g></g></g></svg>