<svg xmlns="http://www.w3.org/2000/svg" xmlns:xlink="http://www.w3.org/1999/xlink" viewBox="0 0 186.04 255.74"><defs><linearGradient id="Degradado_sin_nombre_7" x1="148.63" y1="2.14" x2="148.63" y2="191.03" gradientUnits="userSpaceOnUse"><stop offset="0" stop-color="#fff" stop-opacity="0.4"/><stop offset="1" stop-color="#fff" stop-opacity="0"/></linearGradient><linearGradient id="Degradado_sin_nombre_8" x1="138.58" y1="127.95" x2="183.43" y2="127.95" gradientUnits="userSpaceOnUse"><stop offset="0" stop-color="#fff" stop-opacity="0"/><stop offset="1" stop-color="#fff"/></linearGradient><linearGradient id="Degradado_sin_nombre_10" x1="2.59" y1="127.87" x2="96.26" y2="127.87" gradientUnits="userSpaceOnUse"><stop offset="0" stop-color="#fff"/><stop offset="0.98" stop-color="#fff" stop-opacity="0"/></linearGradient></defs><g style="isolation:isolate"><g id="vaso-precipitados"><path id="halo" d="M150.1,257H54.42a34.88,34.88,0,0,1-34.91-34.77V29.63c0-2.17-6-8.9-19.12-18.52a4,4,0,0,1,.66-6.86l.75-.34,1.7-.72C9.79.52,14-1.25,22.09-1.25H183.32A3.94,3.94,0,0,1,186.83.87a3.91,3.91,0,0,1-.25,4.1L185,7.24v215A34.88,34.88,0,0,1,150.1,257ZM4.73,8.1c13.13,9.77,19.78,17,19.78,21.53V222.22A29.87,29.87,0,0,0,54.42,252H150.1A29.86,29.86,0,0,0,180,222.22V6.82a3.59,3.59,0,0,1,.67-2.1l.67-1H22.09c-7.13,0-10.5,1.43-16.63,4Zm-1.49.65ZM184.77,7.57h0Zm-2.29-5.46h0Z" style="fill:#fff"/><path id="liquido" d="M22.09,2.58C14.73,2.58,11.28,4,5,6.71l-1.73.73-.49.23-.2.18C10.39,13.69,23.34,24,23.34,29.63V222.22a31,31,0,0,0,31.08,30.95H150.1a31,31,0,0,0,31.07-30.95V6l2.26-3.25Z" style="fill:#000145"/><g id="cuerpo"><path id="borde" d="M54.42,254.49A32.37,32.37,0,0,1,22,222.22V29.63C22,24.42,7.93,13.53,1.87,9.1a1.51,1.51,0,0,1,.25-2.59l.64-.29,1.72-.73c6.22-2.65,10-4.24,17.61-4.24H183.32a1.46,1.46,0,0,1,1.3.78,1.42,1.42,0,0,1-.09,1.5l-1.82,2.63a1.18,1.18,0,0,0-.21.66v215.4a32.36,32.36,0,0,1-32.4,32.27Z" style="fill:none;stroke:#fff;stroke-miterlimit:10;stroke-width:2.5px;opacity:0.30000000000000004"/><path id="cuerpo-2" data-name="cuerpo" d="M22.09,2.58C14.73,2.58,11.28,4,5,6.71l-1.73.73-.49.23-.2.18C10.39,13.69,23.34,24,23.34,29.63V222.22a31,31,0,0,0,31.08,30.95H150.1a31,31,0,0,0,31.07-30.95V6l2.26-3.25Z" style="fill:#fff;opacity:0.05"/><polygon id="brillo3" points="158.81 240.08 138.83 240.08 138.83 6.13 135.61 2.77 161.66 2.77 158.81 6.13 158.81 240.08" style="opacity:0.5;fill:url(#Degradado_sin_nombre_7)"/><path id="brillo2" d="M183.43,2.77,181.17,6V222.2a31,31,0,0,1-31.07,30.94H138.58a31,31,0,0,0,31.07-30.94V6l2.27-3.25Z" style="mix-blend-mode:overlay;opacity:0.4;fill:url(#Degradado_sin_nombre_8)"/><path id="brillo1" d="M65.19,222.22V29.63c0-5.61-13-15.94-20.76-21.78l.2-.18.49-.23,1.73-.73C52.61,4.26,56,2.84,62.26,2.62l-40.17,0C14.73,2.58,11.28,4,5,6.71l-1.73.73-.49.23-.2.18C10.39,13.69,23.34,24,23.34,29.63V222.22a31,31,0,0,0,31.08,30.95H96.26A31,31,0,0,1,65.19,222.22Z" style="mix-blend-mode:overlay;opacity:0.4;fill:url(#Degradado_sin_nombre_10)"/><g id="escala"><g id="regla"><line x1="101.74" y1="191.23" x2="120.99" y2="191.23" style="fill:#fff;stroke:#fff;stroke-miterlimit:10;stroke-width:0.5px"/><line x1="101.74" y1="153.09" x2="120.99" y2="153.09" style="fill:#fff;stroke:#fff;stroke-miterlimit:10;stroke-width:0.5px"/><line x1="101.74" y1="114.95" x2="120.99" y2="114.95" style="fill:#fff;stroke:#fff;stroke-miterlimit:10;stroke-width:0.5px"/><line x1="101.74" y1="76.81" x2="120.99" y2="76.81" style="fill:#fff;stroke:#fff;stroke-miterlimit:10;stroke-width:0.5px"/><line x1="128.06" y1="172.19" x2="101.74" y2="172.19" style="fill:#fff;stroke:#fff;stroke-miterlimit:10;stroke-width:0.5px"/><line x1="128.06" y1="134.12" x2="101.74" y2="134.12" style="fill:#fff;stroke:#fff;stroke-miterlimit:10;stroke-width:0.5px"/><line x1="128.06" y1="96.05" x2="101.74" y2="96.05" style="fill:#fff;stroke:#fff;stroke-miterlimit:10;stroke-width:0.5px"/><polyline points="128.06 57.98 101.05 57.98 101.05 210.26 101.05 210.26 128.06 210.26" style="fill:none;stroke:#fff;stroke-miterlimit:10;stroke-width:0.5px"/></g><g id="_100ml" data-name="100ml"><path d="M49.76,167.56l-1.77,0,.19-8.52-2.63.82,0-1.48,4.19-1.43H50Z" style="fill:#fff"/><path d="M60.64,163.28a5.81,5.81,0,0,1-.92,3.44,3,3,0,0,1-2.63,1.12,3.07,3.07,0,0,1-2.58-1.18,5.43,5.43,0,0,1-.85-3.37l0-1.83A5.68,5.68,0,0,1,54.6,158a3.61,3.61,0,0,1,5.24.05,5.5,5.5,0,0,1,.83,3.35Zm-1.75-2a4.51,4.51,0,0,0-.37-2.2,1.58,1.58,0,0,0-2.59-.07,4.13,4.13,0,0,0-.46,2.05l0,2.4a4.54,4.54,0,0,0,.38,2.22,1.41,1.41,0,0,0,1.3.75,1.39,1.39,0,0,0,1.28-.65,4.35,4.35,0,0,0,.46-2.1Z" style="fill:#fff"/><path d="M69.23,163.37a5.79,5.79,0,0,1-.9,3.44A3.05,3.05,0,0,1,65.7,168a3.09,3.09,0,0,1-2.59-1.16,5.56,5.56,0,0,1-.86-3.37l0-1.83a5.74,5.74,0,0,1,.89-3.43,3.61,3.61,0,0,1,5.24,0,5.53,5.53,0,0,1,.85,3.34Zm-1.76-2a4.41,4.41,0,0,0-.39-2.19,1.38,1.38,0,0,0-1.29-.71,1.41,1.41,0,0,0-1.29.64,4.18,4.18,0,0,0-.46,2.06l0,2.4a4.64,4.64,0,0,0,.39,2.22,1.4,1.4,0,0,0,1.31.74,1.36,1.36,0,0,0,1.27-.66,4.2,4.2,0,0,0,.45-2.1Z" style="fill:#fff"/><path d="M72.76,160l0,.82a2.86,2.86,0,0,1,2.28-1,2.2,2.2,0,0,1,2.17,1.23,2.79,2.79,0,0,1,2.44-1.2,2.46,2.46,0,0,1,2,.73,3.15,3.15,0,0,1,.64,2.13l0,5.18H80.49l0-5.13a1.56,1.56,0,0,0-.32-1.1,1.76,1.76,0,0,0-2.08,0,1.77,1.77,0,0,0-.55.85l0,5.41H75.77l0-5.19a1.27,1.27,0,0,0-1.42-1.4,1.59,1.59,0,0,0-1.52.86l0,5.72H71l0-7.89Z" style="fill:#fff"/><path d="M86.14,167.91H84.36v-11.2h1.78Z" style="fill:#fff"/></g><path id="ml" d="M52.08,178.49c10.36.19,22.85.31,36.41.34A5.16,5.16,0,0,1,93.67,184v23.15a5.16,5.16,0,0,1-5.19,5.15c-12.76-.05-28.6-.25-36.56-.36a5.15,5.15,0,0,1-5.09-5.15V183.64A5.15,5.15,0,0,1,52.08,178.49Z" style="fill:#fff"/></g><polygon id="sombra_boquilla" points="182.4 7.76 3.84 7.76 7.86 6.03 182.4 6.03 182.4 7.76" style="fill:#fff;opacity:0.05"/></g></g></g></svg>