<svg xmlns="http://www.w3.org/2000/svg" xmlns:xlink="http://www.w3.org/1999/xlink" viewBox="0 0 177.46 598.69"><defs><linearGradient id="Degradado_sin_nombre_30" x1="45.19" y1="299.34" x2="101.75" y2="299.34" gradientUnits="userSpaceOnUse"><stop offset="0.06" stop-color="#fff"/><stop offset="0.83" stop-color="#fff" stop-opacity="0"/></linearGradient><linearGradient id="Degradado_sin_nombre_8" x1="98.07" y1="299.34" x2="157.32" y2="299.34" gradientUnits="userSpaceOnUse"><stop offset="0" stop-color="#fff" stop-opacity="0"/><stop offset="1" stop-color="#fff"/></linearGradient><linearGradient id="Degradado_sin_nombre_31" x1="109.15" y1="84.76" x2="109.15" y2="541" gradientUnits="userSpaceOnUse"><stop offset="0" stop-color="#fff" stop-opacity="0.5"/><stop offset="0.96" stop-color="#fff" stop-opacity="0"/></linearGradient></defs><g style="isolation:isolate"><g id="probeta"><path id="halo" d="M124.84,5a.56.56,0,0,1,.48.84l-.56.93a14.45,14.45,0,0,0-1.71,7.61V550.5l13.12,5.37a3,3,0,0,1,1.89,2.8v2.51l29.07,24.66h1.43a3.9,3.9,0,0,1,3.9,3.9v0a3.9,3.9,0,0,1-3.9,3.9H8.9a3.9,3.9,0,0,1-3.9-3.9v0a3.9,3.9,0,0,1,3.9-3.9,4,4,0,0,0,2.52-.92l28-23.74v-2.51a3,3,0,0,1,1.89-2.8l13.12-5.37s.3-513.62,0-514.11L38.13,9.93C38.07,9.84,46,5,50.05,5h74.79m0-5H50.05c-2.48,0-5.63,1-9.62,2.91-5.65,2.76-6.21,3.77-6.66,4.58L32.34,10l1.53,2.51,15.57,25.3c.24,26.75,0,466.21,0,509.3l-10,4.09a8,8,0,0,0-5,7.43v.2l-25.92,22a8.93,8.93,0,0,0,.42,17.84H168.56a8.93,8.93,0,0,0,.42-17.84l-25.92-22v-.2a8,8,0,0,0-5-7.43l-10-4.09V14.38a9.67,9.67,0,0,1,1-5l.56-.93A5.56,5.56,0,0,0,124.84,0Z" style="fill:#fff"/><path id="liquido" d="M121.8,551.34v-537a15.85,15.85,0,0,1,1.82-8.13H50.05C47.27,6.25,42,9,39.83,10.32L55.47,35.73c.28.46.38.62.3,257.9,0,128.47-.11,257.71-.11,257.71" style="fill:#000145"/><g id="cuerpo"><path id="contorno" d="M168.56,593.69H8.9a3.9,3.9,0,0,1-3.9-3.9v0a3.9,3.9,0,0,1,3.9-3.9h0a4,4,0,0,0,2.52-.92l28-23.74v-2.51a3,3,0,0,1,1.89-2.8l13.12-5.37s.3-513.62,0-514.11L38.13,9.93C38.07,9.84,46,5,50.05,5h74.79a.56.56,0,0,1,.48.84l-.56.93a14.45,14.45,0,0,0-1.71,7.61V550.5l13.12,5.37a3,3,0,0,1,1.89,2.8v2.51l29.07,24.66h1.43a3.9,3.9,0,0,1,3.9,3.9v0A3.9,3.9,0,0,1,168.56,593.69Z" style="fill:none;stroke:#fff;stroke-miterlimit:10;stroke-width:2.5px;opacity:0.30000000000000004"/><path id="cuerpo-2" data-name="cuerpo" d="M39.83,10.32,55.47,35.73c.28.46.38.62.3,257.9,0,128.47-.11,256.87-.11,256.87v.84L41.76,557a1.77,1.77,0,0,0-1.11,1.64v3.09L12.23,585.87a5.14,5.14,0,0,1-3.33,1.22,2.68,2.68,0,0,0,0,5.35H168.56a2.68,2.68,0,0,0,0-5.35h-1.89l-29.86-25.33v-3.09A1.77,1.77,0,0,0,135.7,557l-13.9-5.69v-537a15.85,15.85,0,0,1,1.82-8.13H50.05C47.27,6.25,42,9,39.83,10.32Z" style="fill:#fff;opacity:0.05"/><path id="brillo1" d="M40,589.74a2.65,2.65,0,0,1,2.65-2.65A5.14,5.14,0,0,0,46,585.87l28.42-24.11v-3.09A1.77,1.77,0,0,1,75.49,557l13.9-5.69v-.84s.07-128.4.11-256.87c.08-257.28,0-257.44-.3-257.9L73.56,10.32C75.72,9,81,6.25,83.78,6.25H50.05C47.27,6.25,42,9,39.83,10.32L55.47,35.73c.28.46.38.62.3,257.9,0,128.47-.11,256.87-.11,256.87v.84L41.76,557a1.77,1.77,0,0,0-1.11,1.64v3.09L12.23,585.87a5.14,5.14,0,0,1-3.33,1.22,2.68,2.68,0,0,0,0,5.35H42.63A2.67,2.67,0,0,1,40,589.74Z" style="mix-blend-mode:overlay;opacity:0.4;fill:url(#Degradado_sin_nombre_30)"/><path id="brillo2" d="M168.56,587.09h-1.89l-29.86-25.33v-3.09A1.77,1.77,0,0,0,135.7,557l-13.9-5.69v-537a15.85,15.85,0,0,1,1.82-8.13h-9.84A15.93,15.93,0,0,0,112,14.38v537l5.9,5.69a1.76,1.76,0,0,1,1.1,1.64v3.09l29.86,25.33h1.89a2.68,2.68,0,0,1,0,5.35h17.83a2.68,2.68,0,0,0,0-5.35Z" style="mix-blend-mode:overlay;opacity:0.4;fill:url(#Degradado_sin_nombre_8)"/><path id="brillo3" d="M160.85,589.79a2.66,2.66,0,0,0-2.64-2.7h-1.89l-29.86-25.33v-3.09a1.76,1.76,0,0,0-1.1-1.64l-13.9-5.69.29-541.05,1.52-4H105l1.7,4,.18,541.05L92.94,557a1.76,1.76,0,0,0-1.1,1.64v3.09L63.41,585.87a5.14,5.14,0,0,1-3.33,1.22,2.68,2.68,0,0,0,0,5.35h98.13A2.65,2.65,0,0,0,160.85,589.79Z" style="opacity:0.5;fill:url(#Degradado_sin_nombre_31)"/><path id="brillo4" d="M121.91,13.09H41.44L40,10.29h82A10.53,10.53,0,0,0,121.91,13.09Z" style="fill:#fff;opacity:0.05"/><rect id="brillo5" x="55.58" y="548.41" width="66.33" height="2.97" style="fill:#fff;opacity:0.05"/><rect id="brillo6" x="40.65" y="558.43" width="96.16" height="2.97" style="fill:#fff;opacity:0.05"/><polygon id="brillo7" points="162.74 583.75 15.01 583.75 11.13 586.72 166.24 586.72 162.74 583.75" style="fill:#fff;opacity:0.05"/><g id="escala"><line x1="71.8" y1="508.03" x2="103.8" y2="508.03" style="fill:#fff;stroke:#b2b9cc;stroke-miterlimit:10"/><line x1="75.2" y1="499.75" x2="100.4" y2="499.75" style="fill:#fff;stroke:#b2b9cc;stroke-miterlimit:10"/><line x1="75.2" y1="491.47" x2="100.4" y2="491.47" style="fill:#fff;stroke:#b2b9cc;stroke-miterlimit:10"/><line x1="75.2" y1="483.19" x2="100.4" y2="483.19" style="fill:#fff;stroke:#b2b9cc;stroke-miterlimit:10"/><line x1="53.33" y1="474.91" x2="124.24" y2="474.91" style="fill:#fff;stroke:#b2b9cc;stroke-miterlimit:10"/><line x1="75.2" y1="466.63" x2="100.4" y2="466.63" style="fill:#fff;stroke:#b2b9cc;stroke-miterlimit:10"/><line x1="75.2" y1="458.35" x2="100.4" y2="458.35" style="fill:#fff;stroke:#b2b9cc;stroke-miterlimit:10"/><line x1="75.2" y1="450.07" x2="100.4" y2="450.07" style="fill:#fff;stroke:#b2b9cc;stroke-miterlimit:10"/><line x1="75.2" y1="441.8" x2="100.4" y2="441.8" style="fill:#fff;stroke:#b2b9cc;stroke-miterlimit:10"/><line x1="75.2" y1="416.96" x2="100.4" y2="416.96" style="fill:#fff;stroke:#b2b9cc;stroke-miterlimit:10"/><line x1="75.2" y1="408.68" x2="100.4" y2="408.68" style="fill:#fff;stroke:#b2b9cc;stroke-miterlimit:10"/><line x1="75.2" y1="400.4" x2="100.4" y2="400.4" style="fill:#fff;stroke:#b2b9cc;stroke-miterlimit:10"/><line x1="68.42" y1="433.52" x2="109.14" y2="433.52" style="fill:#fff;stroke:#b2b9cc;stroke-miterlimit:10"/><line x1="75.2" y1="425.24" x2="100.4" y2="425.24" style="fill:#fff;stroke:#b2b9cc;stroke-miterlimit:10"/><line x1="53.33" y1="392.12" x2="124.24" y2="392.12" style="fill:#fff;stroke:#b2b9cc;stroke-miterlimit:10"/><line x1="75.2" y1="383.84" x2="100.4" y2="383.84" style="fill:#fff;stroke:#b2b9cc;stroke-miterlimit:10"/><line x1="75.2" y1="375.56" x2="100.4" y2="375.56" style="fill:#fff;stroke:#b2b9cc;stroke-miterlimit:10"/><line x1="75.2" y1="367.29" x2="100.4" y2="367.29" style="fill:#fff;stroke:#b2b9cc;stroke-miterlimit:10"/><line x1="75.2" y1="359.01" x2="100.4" y2="359.01" style="fill:#fff;stroke:#b2b9cc;stroke-miterlimit:10"/><line x1="75.2" y1="334.17" x2="100.4" y2="334.17" style="fill:#fff;stroke:#b2b9cc;stroke-miterlimit:10"/><line x1="75.2" y1="325.89" x2="100.4" y2="325.89" style="fill:#fff;stroke:#b2b9cc;stroke-miterlimit:10"/><line x1="75.2" y1="317.61" x2="100.4" y2="317.61" style="fill:#fff;stroke:#b2b9cc;stroke-miterlimit:10"/><line x1="68.42" y1="350.73" x2="109.14" y2="350.73" style="fill:#fff;stroke:#b2b9cc;stroke-miterlimit:10"/><line x1="75.2" y1="342.45" x2="100.4" y2="342.45" style="fill:#fff;stroke:#b2b9cc;stroke-miterlimit:10"/><line x1="53.33" y1="309.33" x2="124.24" y2="309.33" style="fill:#fff;stroke:#b2b9cc;stroke-miterlimit:10"/><line x1="75.2" y1="301.05" x2="100.4" y2="301.05" style="fill:#fff;stroke:#b2b9cc;stroke-miterlimit:10"/><line x1="75.2" y1="292.78" x2="100.4" y2="292.78" style="fill:#fff;stroke:#b2b9cc;stroke-miterlimit:10"/><line x1="75.2" y1="284.5" x2="100.4" y2="284.5" style="fill:#fff;stroke:#b2b9cc;stroke-miterlimit:10"/><line x1="75.2" y1="276.22" x2="100.4" y2="276.22" style="fill:#fff;stroke:#b2b9cc;stroke-miterlimit:10"/><line x1="75.2" y1="251.38" x2="100.4" y2="251.38" style="fill:#fff;stroke:#b2b9cc;stroke-miterlimit:10"/><line x1="75.2" y1="243.1" x2="100.4" y2="243.1" style="fill:#fff;stroke:#b2b9cc;stroke-miterlimit:10"/><line x1="75.2" y1="234.82" x2="100.4" y2="234.82" style="fill:#fff;stroke:#b2b9cc;stroke-miterlimit:10"/><line x1="68.42" y1="267.94" x2="109.14" y2="267.94" style="fill:#fff;stroke:#b2b9cc;stroke-miterlimit:10"/><line x1="75.2" y1="259.66" x2="100.4" y2="259.66" style="fill:#fff;stroke:#b2b9cc;stroke-miterlimit:10"/><line x1="53.33" y1="226.54" x2="124.24" y2="226.54" style="fill:#fff;stroke:#b2b9cc;stroke-miterlimit:10"/><line x1="75.2" y1="218.27" x2="100.4" y2="218.27" style="fill:#fff;stroke:#b2b9cc;stroke-miterlimit:10"/><line x1="75.2" y1="209.99" x2="100.4" y2="209.99" style="fill:#fff;stroke:#b2b9cc;stroke-miterlimit:10"/><line x1="75.2" y1="201.71" x2="100.4" y2="201.71" style="fill:#fff;stroke:#b2b9cc;stroke-miterlimit:10"/><line x1="75.2" y1="193.43" x2="100.4" y2="193.43" style="fill:#fff;stroke:#b2b9cc;stroke-miterlimit:10"/><line x1="75.2" y1="168.59" x2="100.4" y2="168.59" style="fill:#fff;stroke:#b2b9cc;stroke-miterlimit:10"/><line x1="75.2" y1="160.31" x2="100.4" y2="160.31" style="fill:#fff;stroke:#b2b9cc;stroke-miterlimit:10"/><line x1="75.2" y1="152.03" x2="100.4" y2="152.03" style="fill:#fff;stroke:#b2b9cc;stroke-miterlimit:10"/><line x1="68.42" y1="185.15" x2="109.14" y2="185.15" style="fill:#fff;stroke:#b2b9cc;stroke-miterlimit:10"/><line x1="75.2" y1="176.87" x2="100.4" y2="176.87" style="fill:#fff;stroke:#b2b9cc;stroke-miterlimit:10"/><line x1="53.33" y1="143.76" x2="124.24" y2="143.76" style="fill:#fff;stroke:#b2b9cc;stroke-miterlimit:10"/><g id="_50" data-name="50"><path d="M105,135.48l.54-5h5.35v1.43h-4l-.27,2.38a3.12,3.12,0,0,1,1.56-.4,2.79,2.79,0,0,1,2.21.91,3.59,3.59,0,0,1,.79,2.45,3.3,3.3,0,0,1-.88,2.42,3.18,3.18,0,0,1-2.4.9,3.32,3.32,0,0,1-2.26-.78,2.81,2.81,0,0,1-1-2.05h1.61a1.76,1.76,0,0,0,.52,1.11,1.57,1.57,0,0,0,1.11.39,1.4,1.4,0,0,0,1.19-.55,2.32,2.32,0,0,0,.43-1.49,2.13,2.13,0,0,0-.47-1.44,1.67,1.67,0,0,0-1.3-.53,2.18,2.18,0,0,0-.77.12,2.14,2.14,0,0,0-.68.47Z" style="fill:#fff"/><path d="M119,136.23a5.49,5.49,0,0,1-.8,3.24,3.29,3.29,0,0,1-4.87,0,5.15,5.15,0,0,1-.84-3.15v-1.72a5.4,5.4,0,0,1,.8-3.22,3.36,3.36,0,0,1,4.89,0,5.23,5.23,0,0,1,.82,3.14Zm-1.66-1.86a4.3,4.3,0,0,0-.38-2.06,1.32,1.32,0,0,0-1.22-.65,1.3,1.3,0,0,0-1.19.62,3.9,3.9,0,0,0-.41,1.93v2.26a4.34,4.34,0,0,0,.39,2.08,1.32,1.32,0,0,0,1.23.68,1.29,1.29,0,0,0,1.18-.63,4.08,4.08,0,0,0,.4-2Z" style="fill:#fff"/></g><g id="_40" data-name="40"><path d="M110.17,219.22h1.23v1.34h-1.23v2.21h-1.66v-2.21h-4.3l0-1,4.29-6.73h1.72Zm-4.27,0h2.61v-4.15l-.13.22Z" style="fill:#fff"/><path d="M119,218.58a5.49,5.49,0,0,1-.8,3.24,2.83,2.83,0,0,1-2.44,1.09,2.88,2.88,0,0,1-2.43-1.06,5.15,5.15,0,0,1-.84-3.15V217a5.34,5.34,0,0,1,.8-3.21,3.34,3.34,0,0,1,4.89,0,5.18,5.18,0,0,1,.82,3.13Zm-1.66-1.86a4.26,4.26,0,0,0-.38-2.05,1.45,1.45,0,0,0-2.41,0,3.93,3.93,0,0,0-.41,1.93v2.26a4.34,4.34,0,0,0,.39,2.08,1.32,1.32,0,0,0,1.23.68,1.29,1.29,0,0,0,1.18-.63,4.08,4.08,0,0,0,.4-2Z" style="fill:#fff"/></g><g id="_30" data-name="30"><path d="M106.47,299.36h1a1.76,1.76,0,0,0,1.21-.39,1.42,1.42,0,0,0,.45-1.13,1.53,1.53,0,0,0-.37-1.1,1.48,1.48,0,0,0-1.14-.4,1.57,1.57,0,0,0-1.1.39,1.28,1.28,0,0,0-.43,1h-1.66a2.47,2.47,0,0,1,.41-1.4,2.71,2.71,0,0,1,1.13-1,3.78,3.78,0,0,1,1.63-.35,3.43,3.43,0,0,1,2.34.75,2.61,2.61,0,0,1,.85,2.08,2.12,2.12,0,0,1-.42,1.26,2.76,2.76,0,0,1-1.11.89,2.31,2.31,0,0,1,1.68,2.32,2.68,2.68,0,0,1-.92,2.13,3.58,3.58,0,0,1-2.42.8,3.54,3.54,0,0,1-2.35-.77,2.53,2.53,0,0,1-.92-2H106a1.4,1.4,0,0,0,.44,1.07,1.7,1.7,0,0,0,1.19.41,1.75,1.75,0,0,0,1.22-.41,1.83,1.83,0,0,0,0-2.4,2,2,0,0,0-1.38-.42h-1Z" style="fill:#fff"/><path d="M119,300.91a5.49,5.49,0,0,1-.8,3.24,3.29,3.29,0,0,1-4.87,0,5.12,5.12,0,0,1-.84-3.15V299.3a5.4,5.4,0,0,1,.8-3.22,3.36,3.36,0,0,1,4.89,0,5.23,5.23,0,0,1,.82,3.14Zm-1.66-1.86A4.26,4.26,0,0,0,117,297a1.45,1.45,0,0,0-2.41,0,3.9,3.9,0,0,0-.41,1.93v2.26a4.34,4.34,0,0,0,.39,2.08,1.32,1.32,0,0,0,1.23.68,1.29,1.29,0,0,0,1.18-.63,4.08,4.08,0,0,0,.4-2Z" style="fill:#fff"/></g><g id="_20" data-name="20"><path d="M111.24,388.21h-6.69v-1.14l3.31-3.62a8.49,8.49,0,0,0,1-1.34,2.14,2.14,0,0,0,.3-1.07,1.61,1.61,0,0,0-.4-1.15,1.41,1.41,0,0,0-1.08-.44,1.61,1.61,0,0,0-1.25.49,2,2,0,0,0-.44,1.35h-1.66a3.22,3.22,0,0,1,.41-1.64,2.92,2.92,0,0,1,1.18-1.13,3.8,3.8,0,0,1,1.78-.4,3.32,3.32,0,0,1,2.28.73,2.5,2.5,0,0,1,.84,2,3.39,3.39,0,0,1-.42,1.56,8.88,8.88,0,0,1-1.38,1.86l-2.43,2.6h4.62Z" style="fill:#fff"/><path d="M119,384a5.43,5.43,0,0,1-.8,3.23,3.3,3.3,0,0,1-4.87,0,5.15,5.15,0,0,1-.84-3.15v-1.72a5.4,5.4,0,0,1,.8-3.22,3.36,3.36,0,0,1,4.89,0,5.2,5.2,0,0,1,.82,3.13Zm-1.66-1.86a4.3,4.3,0,0,0-.38-2.06,1.32,1.32,0,0,0-1.22-.65,1.3,1.3,0,0,0-1.19.62,3.9,3.9,0,0,0-.41,1.93v2.26a4.26,4.26,0,0,0,.39,2.07,1.31,1.31,0,0,0,1.23.69,1.29,1.29,0,0,0,1.18-.63,4.14,4.14,0,0,0,.4-2Z" style="fill:#fff"/></g><g id="_10" data-name="10"><path d="M109.05,470.75h-1.66v-8l-2.44.83v-1.39l3.88-1.43h.22Z" style="fill:#fff"/><path d="M119,466.56a5.43,5.43,0,0,1-.8,3.23,3.3,3.3,0,0,1-4.87,0,5.15,5.15,0,0,1-.84-3.15V465a5.4,5.4,0,0,1,.8-3.22,2.85,2.85,0,0,1,2.45-1.07,2.91,2.91,0,0,1,2.44,1,5.2,5.2,0,0,1,.82,3.13Zm-1.66-1.86a4.3,4.3,0,0,0-.38-2.06,1.32,1.32,0,0,0-1.22-.65,1.3,1.3,0,0,0-1.19.62,3.9,3.9,0,0,0-.41,1.93v2.26a4.26,4.26,0,0,0,.39,2.07,1.31,1.31,0,0,0,1.23.69,1.28,1.28,0,0,0,1.18-.64,4.06,4.06,0,0,0,.4-2Z" style="fill:#fff"/></g></g></g></g></g></svg>