<svg xmlns="http://www.w3.org/2000/svg" xmlns:xlink="http://www.w3.org/1999/xlink" viewBox="0 0 172.46 593.69"><defs><linearGradient id="Degradado_sin_nombre_30" x1="42.69" y1="296.84" x2="99.25" y2="296.84" gradientUnits="userSpaceOnUse"><stop offset="0.06" stop-color="#fff"/><stop offset="0.83" stop-color="#fff" stop-opacity="0"/></linearGradient><linearGradient id="Degradado_sin_nombre_8" x1="95.57" y1="296.84" x2="154.82" y2="296.84" gradientUnits="userSpaceOnUse"><stop offset="0" stop-color="#fff" stop-opacity="0"/><stop offset="1" stop-color="#fff"/></linearGradient><linearGradient id="Degradado_sin_nombre_31" x1="106.65" y1="82.26" x2="106.65" y2="538.5" gradientUnits="userSpaceOnUse"><stop offset="0" stop-color="#fff" stop-opacity="0.5"/><stop offset="0.96" stop-color="#fff" stop-opacity="0"/></linearGradient></defs><g style="isolation:isolate"><g id="probeta"><path id="halo" d="M166.06,591.19H6.4a3.9,3.9,0,0,1-3.9-3.9v0a3.9,3.9,0,0,1,3.9-3.9h0a4,4,0,0,0,2.52-.92l28-23.74v-2.51a3,3,0,0,1,1.89-2.8L51.91,548s.3-513.62,0-514.11L35.63,7.43c-.06-.09,7.88-4.93,11.92-4.93h74.79a.56.56,0,0,1,.48.84l-.56.93a14.45,14.45,0,0,0-1.71,7.61V548l13.12,5.37a3,3,0,0,1,1.89,2.8v2.51l29.07,24.66h1.43a3.9,3.9,0,0,1,3.9,3.9v0A3.9,3.9,0,0,1,166.06,591.19Z" style="fill:none;stroke:#fff;stroke-miterlimit:10;stroke-width:5px"/><path id="liquido" d="M119.3,548.84v-537a15.85,15.85,0,0,1,1.82-8.13H47.55c-2.78,0-8.06,2.79-10.22,4.07L53,33.23c.28.46.38.62.3,257.9,0,128.47-.11,257.71-.11,257.71" style="fill:#000145"/><g id="cuerpo"><path id="contorno" d="M166.06,591.19H6.4a3.9,3.9,0,0,1-3.9-3.9v0a3.9,3.9,0,0,1,3.9-3.9h0a4,4,0,0,0,2.52-.92l28-23.74v-2.51a3,3,0,0,1,1.89-2.8L51.91,548s.3-513.62,0-514.11L35.63,7.43c-.06-.09,7.88-4.93,11.92-4.93h74.79a.56.56,0,0,1,.48.84l-.56.93a14.45,14.45,0,0,0-1.71,7.61V548l13.12,5.37a3,3,0,0,1,1.89,2.8v2.51l29.07,24.66h1.43a3.9,3.9,0,0,1,3.9,3.9v0A3.9,3.9,0,0,1,166.06,591.19Z" style="fill:none;stroke:#fff;stroke-miterlimit:10;stroke-width:2.5px;opacity:0.30000000000000004"/><path id="cuerpo-2" data-name="cuerpo" d="M37.33,7.82,53,33.23c.28.46.38.62.3,257.9,0,128.47-.11,256.87-.11,256.87v.84l-13.9,5.69a1.77,1.77,0,0,0-1.11,1.64v3.09L9.73,583.37a5.14,5.14,0,0,1-3.33,1.22,2.68,2.68,0,0,0,0,5.35H166.06a2.68,2.68,0,0,0,0-5.35h-1.89l-29.86-25.33v-3.09a1.77,1.77,0,0,0-1.11-1.64l-13.9-5.69v-537a15.85,15.85,0,0,1,1.82-8.13H47.55C44.77,3.75,39.49,6.54,37.33,7.82Z" style="fill:#fff;opacity:0.05"/><path id="brillo1" d="M37.48,587.24a2.65,2.65,0,0,1,2.65-2.65,5.14,5.14,0,0,0,3.33-1.22l28.42-24.11v-3.09A1.77,1.77,0,0,1,73,554.53l13.9-5.69V548S87,419.6,87,291.13c.08-257.28,0-257.44-.3-257.9L71.06,7.82c2.16-1.28,7.44-4.07,10.22-4.07H47.55c-2.78,0-8.06,2.79-10.22,4.07L53,33.23c.28.46.38.62.3,257.9,0,128.47-.11,256.87-.11,256.87v.84l-13.9,5.69a1.77,1.77,0,0,0-1.11,1.64v3.09L9.73,583.37a5.14,5.14,0,0,1-3.33,1.22,2.68,2.68,0,0,0,0,5.35H40.13A2.67,2.67,0,0,1,37.48,587.24Z" style="mix-blend-mode:overlay;opacity:0.4;fill:url(#Degradado_sin_nombre_30)"/><path id="brillo2" d="M166.06,584.59h-1.89l-29.86-25.33v-3.09a1.77,1.77,0,0,0-1.11-1.64l-13.9-5.69v-537a15.85,15.85,0,0,1,1.82-8.13h-9.84a15.93,15.93,0,0,0-1.81,8.13v537l5.9,5.69a1.76,1.76,0,0,1,1.1,1.64v3.09l29.86,25.33h1.89a2.68,2.68,0,0,1,0,5.35h17.83a2.68,2.68,0,0,0,0-5.35Z" style="mix-blend-mode:overlay;opacity:0.4;fill:url(#Degradado_sin_nombre_8)"/><path id="brillo3" d="M158.35,587.29a2.66,2.66,0,0,0-2.64-2.7h-1.89L124,559.26v-3.09a1.76,1.76,0,0,0-1.1-1.64L109,548.84l.29-541.05,1.52-4h-8.3l1.7,4,.18,541.05-13.9,5.69a1.76,1.76,0,0,0-1.1,1.64v3.09L60.91,583.37a5.14,5.14,0,0,1-3.33,1.22,2.68,2.68,0,0,0,0,5.35h98.13A2.65,2.65,0,0,0,158.35,587.29Z" style="opacity:0.5;fill:url(#Degradado_sin_nombre_31)"/><path id="brillo4" d="M119.41,10.59H38.94l-1.49-2.8h82A10.53,10.53,0,0,0,119.41,10.59Z" style="fill:#fff;opacity:0.05"/><rect id="brillo5" x="53.08" y="545.91" width="66.33" height="2.97" style="fill:#fff;opacity:0.05"/><rect id="brillo6" x="38.15" y="555.93" width="96.16" height="2.97" style="fill:#fff;opacity:0.05"/><polygon id="brillo7" points="160.24 581.25 12.51 581.25 8.63 584.22 163.74 584.22 160.24 581.25" style="fill:#fff;opacity:0.05"/><g id="escala"><line x1="69.3" y1="505.53" x2="101.3" y2="505.53" style="fill:#fff;stroke:#b2b9cc;stroke-miterlimit:10"/><line x1="72.7" y1="497.25" x2="97.9" y2="497.25" style="fill:#fff;stroke:#b2b9cc;stroke-miterlimit:10"/><line x1="72.7" y1="488.97" x2="97.9" y2="488.97" style="fill:#fff;stroke:#b2b9cc;stroke-miterlimit:10"/><line x1="72.7" y1="480.69" x2="97.9" y2="480.69" style="fill:#fff;stroke:#b2b9cc;stroke-miterlimit:10"/><line x1="50.83" y1="472.41" x2="121.74" y2="472.41" style="fill:#fff;stroke:#b2b9cc;stroke-miterlimit:10"/><line x1="72.7" y1="464.13" x2="97.9" y2="464.13" style="fill:#fff;stroke:#b2b9cc;stroke-miterlimit:10"/><line x1="72.7" y1="455.85" x2="97.9" y2="455.85" style="fill:#fff;stroke:#b2b9cc;stroke-miterlimit:10"/><line x1="72.7" y1="447.57" x2="97.9" y2="447.57" style="fill:#fff;stroke:#b2b9cc;stroke-miterlimit:10"/><line x1="72.7" y1="439.3" x2="97.9" y2="439.3" style="fill:#fff;stroke:#b2b9cc;stroke-miterlimit:10"/><line x1="72.7" y1="414.46" x2="97.9" y2="414.46" style="fill:#fff;stroke:#b2b9cc;stroke-miterlimit:10"/><line x1="72.7" y1="406.18" x2="97.9" y2="406.18" style="fill:#fff;stroke:#b2b9cc;stroke-miterlimit:10"/><line x1="72.7" y1="397.9" x2="97.9" y2="397.9" style="fill:#fff;stroke:#b2b9cc;stroke-miterlimit:10"/><line x1="65.92" y1="431.02" x2="106.65" y2="431.02" style="fill:#fff;stroke:#b2b9cc;stroke-miterlimit:10"/><line x1="72.7" y1="422.74" x2="97.9" y2="422.74" style="fill:#fff;stroke:#b2b9cc;stroke-miterlimit:10"/><line x1="50.83" y1="389.62" x2="121.74" y2="389.62" style="fill:#fff;stroke:#b2b9cc;stroke-miterlimit:10"/><line x1="72.7" y1="381.34" x2="97.9" y2="381.34" style="fill:#fff;stroke:#b2b9cc;stroke-miterlimit:10"/><line x1="72.7" y1="373.06" x2="97.9" y2="373.06" style="fill:#fff;stroke:#b2b9cc;stroke-miterlimit:10"/><line x1="72.7" y1="364.79" x2="97.9" y2="364.79" style="fill:#fff;stroke:#b2b9cc;stroke-miterlimit:10"/><line x1="72.7" y1="356.51" x2="97.9" y2="356.51" style="fill:#fff;stroke:#b2b9cc;stroke-miterlimit:10"/><line x1="72.7" y1="331.67" x2="97.9" y2="331.67" style="fill:#fff;stroke:#b2b9cc;stroke-miterlimit:10"/><line x1="72.7" y1="323.39" x2="97.9" y2="323.39" style="fill:#fff;stroke:#b2b9cc;stroke-miterlimit:10"/><line x1="72.7" y1="315.11" x2="97.9" y2="315.11" style="fill:#fff;stroke:#b2b9cc;stroke-miterlimit:10"/><line x1="65.92" y1="348.23" x2="106.65" y2="348.23" style="fill:#fff;stroke:#b2b9cc;stroke-miterlimit:10"/><line x1="72.7" y1="339.95" x2="97.9" y2="339.95" style="fill:#fff;stroke:#b2b9cc;stroke-miterlimit:10"/><line x1="50.83" y1="306.83" x2="121.74" y2="306.83" style="fill:#fff;stroke:#b2b9cc;stroke-miterlimit:10"/><line x1="72.7" y1="298.55" x2="97.9" y2="298.55" style="fill:#fff;stroke:#b2b9cc;stroke-miterlimit:10"/><line x1="72.7" y1="290.28" x2="97.9" y2="290.28" style="fill:#fff;stroke:#b2b9cc;stroke-miterlimit:10"/><line x1="72.7" y1="282" x2="97.9" y2="282" style="fill:#fff;stroke:#b2b9cc;stroke-miterlimit:10"/><line x1="72.7" y1="273.72" x2="97.9" y2="273.72" style="fill:#fff;stroke:#b2b9cc;stroke-miterlimit:10"/><line x1="72.7" y1="248.88" x2="97.9" y2="248.88" style="fill:#fff;stroke:#b2b9cc;stroke-miterlimit:10"/><line x1="72.7" y1="240.6" x2="97.9" y2="240.6" style="fill:#fff;stroke:#b2b9cc;stroke-miterlimit:10"/><line x1="72.7" y1="232.32" x2="97.9" y2="232.32" style="fill:#fff;stroke:#b2b9cc;stroke-miterlimit:10"/><line x1="65.92" y1="265.44" x2="106.65" y2="265.44" style="fill:#fff;stroke:#b2b9cc;stroke-miterlimit:10"/><line x1="72.7" y1="257.16" x2="97.9" y2="257.16" style="fill:#fff;stroke:#b2b9cc;stroke-miterlimit:10"/><line x1="50.83" y1="224.04" x2="121.74" y2="224.04" style="fill:#fff;stroke:#b2b9cc;stroke-miterlimit:10"/><line x1="72.7" y1="215.77" x2="97.9" y2="215.77" style="fill:#fff;stroke:#b2b9cc;stroke-miterlimit:10"/><line x1="72.7" y1="207.49" x2="97.9" y2="207.49" style="fill:#fff;stroke:#b2b9cc;stroke-miterlimit:10"/><line x1="72.7" y1="199.21" x2="97.9" y2="199.21" style="fill:#fff;stroke:#b2b9cc;stroke-miterlimit:10"/><line x1="72.7" y1="190.93" x2="97.9" y2="190.93" style="fill:#fff;stroke:#b2b9cc;stroke-miterlimit:10"/><line x1="72.7" y1="166.09" x2="97.9" y2="166.09" style="fill:#fff;stroke:#b2b9cc;stroke-miterlimit:10"/><line x1="72.7" y1="157.81" x2="97.9" y2="157.81" style="fill:#fff;stroke:#b2b9cc;stroke-miterlimit:10"/><line x1="72.7" y1="149.53" x2="97.9" y2="149.53" style="fill:#fff;stroke:#b2b9cc;stroke-miterlimit:10"/><line x1="65.92" y1="182.65" x2="106.65" y2="182.65" style="fill:#fff;stroke:#b2b9cc;stroke-miterlimit:10"/><line x1="72.7" y1="174.37" x2="97.9" y2="174.37" style="fill:#fff;stroke:#b2b9cc;stroke-miterlimit:10"/><line x1="50.83" y1="141.26" x2="121.74" y2="141.26" style="fill:#fff;stroke:#b2b9cc;stroke-miterlimit:10"/><g id="_50" data-name="50"><path d="M102.49,133l.54-5h5.35v1.43h-4l-.27,2.38a3.12,3.12,0,0,1,1.56-.4,2.79,2.79,0,0,1,2.21.91,3.59,3.59,0,0,1,.79,2.45,3.3,3.3,0,0,1-.88,2.42,3.18,3.18,0,0,1-2.4.9,3.32,3.32,0,0,1-2.26-.78,2.85,2.85,0,0,1-1-2.05h1.61a1.76,1.76,0,0,0,.52,1.11,1.57,1.57,0,0,0,1.11.39,1.4,1.4,0,0,0,1.19-.55,2.32,2.32,0,0,0,.43-1.49,2.13,2.13,0,0,0-.47-1.44,1.67,1.67,0,0,0-1.3-.53,2.18,2.18,0,0,0-.77.12,2.14,2.14,0,0,0-.68.47Z" style="fill:#fff"/><path d="M116.49,133.73a5.49,5.49,0,0,1-.8,3.24,3.29,3.29,0,0,1-4.87,0,5.15,5.15,0,0,1-.84-3.15v-1.72a5.4,5.4,0,0,1,.8-3.22,3.36,3.36,0,0,1,4.89,0,5.23,5.23,0,0,1,.82,3.14Zm-1.66-1.86a4.3,4.3,0,0,0-.38-2.06,1.32,1.32,0,0,0-1.22-.65,1.3,1.3,0,0,0-1.19.62,3.9,3.9,0,0,0-.41,1.93V134a4.34,4.34,0,0,0,.39,2.08,1.32,1.32,0,0,0,1.23.68,1.29,1.29,0,0,0,1.18-.63,4.08,4.08,0,0,0,.4-2Z" style="fill:#fff"/></g><g id="_40" data-name="40"><path d="M107.67,216.72h1.23v1.34h-1.23v2.21H106v-2.21h-4.3l0-1,4.29-6.73h1.72Zm-4.27,0H106v-4.15l-.13.22Z" style="fill:#fff"/><path d="M116.49,216.08a5.49,5.49,0,0,1-.8,3.24,2.83,2.83,0,0,1-2.44,1.09,2.88,2.88,0,0,1-2.43-1.06,5.15,5.15,0,0,1-.84-3.15v-1.73a5.34,5.34,0,0,1,.8-3.21,3.34,3.34,0,0,1,4.89,0,5.2,5.2,0,0,1,.82,3.13Zm-1.66-1.86a4.26,4.26,0,0,0-.38-2.05,1.45,1.45,0,0,0-2.41,0,3.93,3.93,0,0,0-.41,1.93v2.26a4.34,4.34,0,0,0,.39,2.08,1.32,1.32,0,0,0,1.23.68,1.29,1.29,0,0,0,1.18-.63,4.08,4.08,0,0,0,.4-2Z" style="fill:#fff"/></g><g id="_30" data-name="30"><path d="M104,296.86h1a1.76,1.76,0,0,0,1.21-.39,1.42,1.42,0,0,0,.45-1.13,1.53,1.53,0,0,0-.37-1.1,1.48,1.48,0,0,0-1.14-.4,1.57,1.57,0,0,0-1.1.39,1.28,1.28,0,0,0-.43,1h-1.66a2.47,2.47,0,0,1,.41-1.4,2.71,2.71,0,0,1,1.13-1,3.78,3.78,0,0,1,1.63-.35,3.43,3.43,0,0,1,2.34.75,2.61,2.61,0,0,1,.85,2.08,2.12,2.12,0,0,1-.42,1.26,2.76,2.76,0,0,1-1.11.89,2.31,2.31,0,0,1,1.68,2.32,2.68,2.68,0,0,1-.92,2.13,3.58,3.58,0,0,1-2.42.8,3.54,3.54,0,0,1-2.35-.77,2.53,2.53,0,0,1-.92-2h1.66A1.37,1.37,0,0,0,104,301a1.66,1.66,0,0,0,1.18.41,1.75,1.75,0,0,0,1.22-.41,1.83,1.83,0,0,0,0-2.4,2,2,0,0,0-1.38-.42h-1Z" style="fill:#fff"/><path d="M116.49,298.41a5.49,5.49,0,0,1-.8,3.24,3.29,3.29,0,0,1-4.87,0,5.12,5.12,0,0,1-.84-3.15V296.8a5.4,5.4,0,0,1,.8-3.22,3.36,3.36,0,0,1,4.89,0,5.23,5.23,0,0,1,.82,3.14Zm-1.66-1.86a4.26,4.26,0,0,0-.38-2.05,1.45,1.45,0,0,0-2.41,0,3.9,3.9,0,0,0-.41,1.93v2.26a4.34,4.34,0,0,0,.39,2.08,1.32,1.32,0,0,0,1.23.68,1.29,1.29,0,0,0,1.18-.63,4.08,4.08,0,0,0,.4-2Z" style="fill:#fff"/></g><g id="_20" data-name="20"><path d="M108.74,385.71h-6.69v-1.14l3.31-3.62a8.49,8.49,0,0,0,1-1.34,2.14,2.14,0,0,0,.3-1.07,1.61,1.61,0,0,0-.4-1.15,1.41,1.41,0,0,0-1.08-.44,1.61,1.61,0,0,0-1.25.49,2,2,0,0,0-.44,1.35h-1.66a3.22,3.22,0,0,1,.41-1.64,2.92,2.92,0,0,1,1.18-1.13,3.8,3.8,0,0,1,1.78-.4,3.32,3.32,0,0,1,2.28.73,2.5,2.5,0,0,1,.84,2,3.39,3.39,0,0,1-.42,1.56,8.88,8.88,0,0,1-1.38,1.86l-2.43,2.6h4.62Z" style="fill:#fff"/><path d="M116.49,381.52a5.43,5.43,0,0,1-.8,3.23,3.3,3.3,0,0,1-4.87,0,5.15,5.15,0,0,1-.84-3.15v-1.72a5.4,5.4,0,0,1,.8-3.22,3.36,3.36,0,0,1,4.89,0,5.2,5.2,0,0,1,.82,3.13Zm-1.66-1.86a4.3,4.3,0,0,0-.38-2.06,1.32,1.32,0,0,0-1.22-.65,1.3,1.3,0,0,0-1.19.62,3.9,3.9,0,0,0-.41,1.93v2.26a4.26,4.26,0,0,0,.39,2.07,1.31,1.31,0,0,0,1.23.69,1.29,1.29,0,0,0,1.18-.63,4.14,4.14,0,0,0,.4-2Z" style="fill:#fff"/></g><g id="_10" data-name="10"><path d="M106.55,468.25h-1.66v-8l-2.44.83v-1.39l3.88-1.43h.22Z" style="fill:#fff"/><path d="M116.49,464.06a5.43,5.43,0,0,1-.8,3.23,3.3,3.3,0,0,1-4.87,0,5.15,5.15,0,0,1-.84-3.15v-1.72a5.4,5.4,0,0,1,.8-3.22,2.85,2.85,0,0,1,2.45-1.07,2.91,2.91,0,0,1,2.44,1,5.2,5.2,0,0,1,.82,3.13Zm-1.66-1.86a4.3,4.3,0,0,0-.38-2.06,1.32,1.32,0,0,0-1.22-.65,1.3,1.3,0,0,0-1.19.62,3.9,3.9,0,0,0-.41,1.93v2.26a4.26,4.26,0,0,0,.39,2.07,1.31,1.31,0,0,0,1.23.69,1.29,1.29,0,0,0,1.18-.63,4.14,4.14,0,0,0,.4-2Z" style="fill:#fff"/></g></g></g></g></g></svg>