<svg xmlns="http://www.w3.org/2000/svg" xmlns:xlink="http://www.w3.org/1999/xlink" viewBox="0 0 169.96 591.19"><defs><style>.cls-1{isolation:isolate;}.cls-2{fill:#ce1199;}.cls-3,.cls-8{fill:none;stroke-miterlimit:10;}.cls-3{stroke:#fff;stroke-width:2.5px;opacity:0.3;}.cls-4,.cls-9{fill:#fff;}.cls-4{opacity:0.05;}.cls-5,.cls-6{mix-blend-mode:overlay;opacity:0.4;}.cls-5{fill:url(#Degradado_sin_nombre_30);}.cls-6{fill:url(#Degradado_sin_nombre_8);}.cls-7{opacity:0.5;fill:url(#Degradado_sin_nombre_31);}.cls-8{stroke:#b2b9cc;}</style><linearGradient id="Degradado_sin_nombre_30" x1="41.44" y1="295.59" x2="98" y2="295.59" gradientUnits="userSpaceOnUse"><stop offset="0.06" stop-color="#fff"/><stop offset="0.83" stop-color="#fff" stop-opacity="0"/></linearGradient><linearGradient id="Degradado_sin_nombre_8" x1="94.32" y1="295.59" x2="153.57" y2="295.59" gradientUnits="userSpaceOnUse"><stop offset="0" stop-color="#fff" stop-opacity="0"/><stop offset="1" stop-color="#fff"/></linearGradient><linearGradient id="Degradado_sin_nombre_31" x1="105.4" y1="81.01" x2="105.4" y2="537.25" gradientUnits="userSpaceOnUse"><stop offset="0" stop-color="#fff" stop-opacity="0.5"/><stop offset="0.96" stop-color="#fff" stop-opacity="0"/></linearGradient></defs><g class="cls-1"><g id="probeta"><path id="liquido" class="cls-2" d="M118.05,547.59v-537a15.85,15.85,0,0,1,1.82-8.13H46.3c-2.78,0-8.06,2.79-10.22,4.07L51.72,32c.28.46.38.62.3,257.9,0,128.47-.11,257.71-.11,257.71"/><g id="cuerpo"><path id="contorno" class="cls-3" d="M164.81,589.94H5.15a3.9,3.9,0,0,1-3.9-3.9v0a3.9,3.9,0,0,1,3.9-3.9h0a4,4,0,0,0,2.52-.92l28-23.74v-2.51a3,3,0,0,1,1.89-2.8l13.12-5.37s.3-513.62,0-514.11L34.38,6.18c-.06-.09,7.88-4.93,11.92-4.93h74.79a.56.56,0,0,1,.48.84L121,3a14.45,14.45,0,0,0-1.71,7.61V546.75l13.12,5.37a3,3,0,0,1,1.89,2.8v2.51l29.07,24.66h1.43a3.9,3.9,0,0,1,3.9,3.9v0A3.9,3.9,0,0,1,164.81,589.94Z"/><path id="cuerpo-2" data-name="cuerpo" class="cls-4" d="M36.08,6.57,51.72,32c.28.46.38.62.3,257.9,0,128.47-.11,256.87-.11,256.87v.84L38,553.28a1.77,1.77,0,0,0-1.11,1.64V558L8.48,582.12a5.14,5.14,0,0,1-3.33,1.22,2.68,2.68,0,0,0,0,5.35H164.81a2.68,2.68,0,0,0,0-5.35h-1.89L133.06,558v-3.09a1.77,1.77,0,0,0-1.11-1.64l-13.9-5.69v-537a15.85,15.85,0,0,1,1.82-8.13H46.3C43.52,2.5,38.24,5.29,36.08,6.57Z"/><path id="brillo1" class="cls-5" d="M36.23,586a2.65,2.65,0,0,1,2.65-2.65,5.14,5.14,0,0,0,3.33-1.22L70.63,558v-3.09a1.77,1.77,0,0,1,1.11-1.64l13.9-5.69v-.84s.07-128.4.11-256.87c.08-257.28,0-257.44-.3-257.9L69.81,6.57C72,5.29,77.25,2.5,80,2.5H46.3c-2.78,0-8.06,2.79-10.22,4.07L51.72,32c.28.46.38.62.3,257.9,0,128.47-.11,256.87-.11,256.87v.84L38,553.28a1.77,1.77,0,0,0-1.11,1.64V558L8.48,582.12a5.14,5.14,0,0,1-3.33,1.22,2.68,2.68,0,0,0,0,5.35H38.88A2.67,2.67,0,0,1,36.23,586Z"/><path id="brillo2" class="cls-6" d="M164.81,583.34h-1.89L133.06,558v-3.09a1.77,1.77,0,0,0-1.11-1.64l-13.9-5.69v-537a15.85,15.85,0,0,1,1.82-8.13H110a15.93,15.93,0,0,0-1.81,8.13v537l5.9,5.69a1.76,1.76,0,0,1,1.1,1.64V558l29.86,25.33H147a2.68,2.68,0,0,1,0,5.35h17.83a2.68,2.68,0,0,0,0-5.35Z"/><path id="brillo3" class="cls-7" d="M157.1,586a2.66,2.66,0,0,0-2.64-2.7h-1.89L122.71,558v-3.09a1.76,1.76,0,0,0-1.1-1.64l-13.9-5.69L108,6.54l1.52-4h-8.3l1.7,4,.18,541.05-13.9,5.69a1.76,1.76,0,0,0-1.1,1.64V558L59.66,582.12a5.14,5.14,0,0,1-3.33,1.22,2.68,2.68,0,0,0,0,5.35h98.13A2.65,2.65,0,0,0,157.1,586Z"/><path id="brillo4" class="cls-4" d="M118.16,9.34H37.69L36.2,6.54h82A10.53,10.53,0,0,0,118.16,9.34Z"/><rect id="brillo5" class="cls-4" x="51.83" y="544.66" width="66.33" height="2.97"/><rect id="brillo6" class="cls-4" x="37.18" y="555.68" width="95.64" height="2.97"/><rect id="brillo7" class="cls-4" x="6.82" y="580" width="156.35" height="2.97"/><g id="escala"><line class="cls-8" x1="68.05" y1="504.28" x2="100.05" y2="504.28"/><line class="cls-8" x1="71.45" y1="496" x2="96.65" y2="496"/><line class="cls-8" x1="71.45" y1="487.72" x2="96.65" y2="487.72"/><line class="cls-8" x1="71.45" y1="479.44" x2="96.65" y2="479.44"/><line class="cls-8" x1="49.58" y1="471.16" x2="120.49" y2="471.16"/><line class="cls-8" x1="71.45" y1="462.88" x2="96.65" y2="462.88"/><line class="cls-8" x1="71.45" y1="454.6" x2="96.65" y2="454.6"/><line class="cls-8" x1="71.45" y1="446.32" x2="96.65" y2="446.32"/><line class="cls-8" x1="71.45" y1="438.05" x2="96.65" y2="438.05"/><line class="cls-8" x1="71.45" y1="413.21" x2="96.65" y2="413.21"/><line class="cls-8" x1="71.45" y1="404.93" x2="96.65" y2="404.93"/><line class="cls-8" x1="71.45" y1="396.65" x2="96.65" y2="396.65"/><line class="cls-8" x1="64.67" y1="429.77" x2="105.4" y2="429.77"/><line class="cls-8" x1="71.45" y1="421.49" x2="96.65" y2="421.49"/><line class="cls-8" x1="49.58" y1="388.37" x2="120.49" y2="388.37"/><line class="cls-8" x1="71.45" y1="380.09" x2="96.65" y2="380.09"/><line class="cls-8" x1="71.45" y1="371.81" x2="96.65" y2="371.81"/><line class="cls-8" x1="71.45" y1="363.54" x2="96.65" y2="363.54"/><line class="cls-8" x1="71.45" y1="355.26" x2="96.65" y2="355.26"/><line class="cls-8" x1="71.45" y1="330.42" x2="96.65" y2="330.42"/><line class="cls-8" x1="71.45" y1="322.14" x2="96.65" y2="322.14"/><line class="cls-8" x1="71.45" y1="313.86" x2="96.65" y2="313.86"/><line class="cls-8" x1="64.67" y1="346.98" x2="105.4" y2="346.98"/><line class="cls-8" x1="71.45" y1="338.7" x2="96.65" y2="338.7"/><line class="cls-8" x1="49.58" y1="305.58" x2="120.49" y2="305.58"/><line class="cls-8" x1="71.45" y1="297.3" x2="96.65" y2="297.3"/><line class="cls-8" x1="71.45" y1="289.03" x2="96.65" y2="289.03"/><line class="cls-8" x1="71.45" y1="280.75" x2="96.65" y2="280.75"/><line class="cls-8" x1="71.45" y1="272.47" x2="96.65" y2="272.47"/><line class="cls-8" x1="71.45" y1="247.63" x2="96.65" y2="247.63"/><line class="cls-8" x1="71.45" y1="239.35" x2="96.65" y2="239.35"/><line class="cls-8" x1="71.45" y1="231.07" x2="96.65" y2="231.07"/><line class="cls-8" x1="64.67" y1="264.19" x2="105.4" y2="264.19"/><line class="cls-8" x1="71.45" y1="255.91" x2="96.65" y2="255.91"/><line class="cls-8" x1="49.58" y1="222.79" x2="120.49" y2="222.79"/><line class="cls-8" x1="71.45" y1="214.52" x2="96.65" y2="214.52"/><line class="cls-8" x1="71.45" y1="206.24" x2="96.65" y2="206.24"/><line class="cls-8" x1="71.45" y1="197.96" x2="96.65" y2="197.96"/><line class="cls-8" x1="71.45" y1="189.68" x2="96.65" y2="189.68"/><line class="cls-8" x1="71.45" y1="164.84" x2="96.65" y2="164.84"/><line class="cls-8" x1="71.45" y1="156.56" x2="96.65" y2="156.56"/><line class="cls-8" x1="71.45" y1="148.28" x2="96.65" y2="148.28"/><line class="cls-8" x1="64.67" y1="181.4" x2="105.4" y2="181.4"/><line class="cls-8" x1="71.45" y1="173.12" x2="96.65" y2="173.12"/><line class="cls-8" x1="49.58" y1="140.01" x2="120.49" y2="140.01"/><g id="_50" data-name="50"><path class="cls-9" d="M101.24,131.73l.54-5h5.35v1.43h-4l-.27,2.38a3.12,3.12,0,0,1,1.56-.4,2.79,2.79,0,0,1,2.21.91,3.59,3.59,0,0,1,.79,2.45,3.3,3.3,0,0,1-.88,2.42,3.18,3.18,0,0,1-2.4.9,3.32,3.32,0,0,1-2.26-.78,2.85,2.85,0,0,1-1-2.05h1.61a1.76,1.76,0,0,0,.52,1.11,1.57,1.57,0,0,0,1.11.39,1.4,1.4,0,0,0,1.19-.55,2.32,2.32,0,0,0,.43-1.49,2.13,2.13,0,0,0-.47-1.44,1.67,1.67,0,0,0-1.3-.53,2.18,2.18,0,0,0-.77.12,2.14,2.14,0,0,0-.68.47Z"/><path class="cls-9" d="M115.24,132.48a5.49,5.49,0,0,1-.8,3.24,3.29,3.29,0,0,1-4.87,0,5.15,5.15,0,0,1-.84-3.15v-1.72a5.4,5.4,0,0,1,.8-3.22,3.36,3.36,0,0,1,4.89,0,5.23,5.23,0,0,1,.82,3.14Zm-1.66-1.86a4.3,4.3,0,0,0-.38-2.06,1.32,1.32,0,0,0-1.22-.65,1.3,1.3,0,0,0-1.19.62,3.9,3.9,0,0,0-.41,1.93v2.26a4.34,4.34,0,0,0,.39,2.08,1.32,1.32,0,0,0,1.23.68,1.29,1.29,0,0,0,1.18-.63,4.08,4.08,0,0,0,.4-2Z"/></g><g id="_40" data-name="40"><path class="cls-9" d="M106.42,215.47h1.23v1.34h-1.23V219h-1.66v-2.21h-4.3l0-1,4.29-6.73h1.72Zm-4.27,0h2.61v-4.15l-.13.22Z"/><path class="cls-9" d="M115.24,214.83a5.49,5.49,0,0,1-.8,3.24,2.83,2.83,0,0,1-2.44,1.09,2.88,2.88,0,0,1-2.43-1.06,5.15,5.15,0,0,1-.84-3.15v-1.73a5.34,5.34,0,0,1,.8-3.21,3.34,3.34,0,0,1,4.89,0,5.2,5.2,0,0,1,.82,3.13ZM113.58,213a4.26,4.26,0,0,0-.38-2.05,1.45,1.45,0,0,0-2.41,0,3.93,3.93,0,0,0-.41,1.93v2.26a4.34,4.34,0,0,0,.39,2.08,1.32,1.32,0,0,0,1.23.68,1.29,1.29,0,0,0,1.18-.63,4.08,4.08,0,0,0,.4-2Z"/></g><g id="_30" data-name="30"><path class="cls-9" d="M102.72,295.61h1a1.76,1.76,0,0,0,1.21-.39,1.42,1.42,0,0,0,.45-1.13A1.53,1.53,0,0,0,105,293a1.48,1.48,0,0,0-1.14-.4,1.57,1.57,0,0,0-1.1.39,1.28,1.28,0,0,0-.43,1h-1.66a2.47,2.47,0,0,1,.41-1.4,2.71,2.71,0,0,1,1.13-1,3.78,3.78,0,0,1,1.63-.35,3.43,3.43,0,0,1,2.34.75,2.61,2.61,0,0,1,.85,2.08,2.12,2.12,0,0,1-.42,1.26,2.76,2.76,0,0,1-1.11.89,2.31,2.31,0,0,1,1.68,2.32,2.68,2.68,0,0,1-.92,2.13,3.58,3.58,0,0,1-2.42.8,3.54,3.54,0,0,1-2.35-.77,2.53,2.53,0,0,1-.92-2h1.66a1.37,1.37,0,0,0,.45,1.07,1.66,1.66,0,0,0,1.18.41,1.75,1.75,0,0,0,1.22-.41,1.83,1.83,0,0,0,0-2.4,2,2,0,0,0-1.38-.42h-1Z"/><path class="cls-9" d="M115.24,297.16a5.49,5.49,0,0,1-.8,3.24,3.29,3.29,0,0,1-4.87,0,5.12,5.12,0,0,1-.84-3.15v-1.72a5.4,5.4,0,0,1,.8-3.22,3.36,3.36,0,0,1,4.89,0,5.23,5.23,0,0,1,.82,3.14Zm-1.66-1.86a4.26,4.26,0,0,0-.38-2.05,1.45,1.45,0,0,0-2.41,0,3.9,3.9,0,0,0-.41,1.93v2.26a4.34,4.34,0,0,0,.39,2.08,1.32,1.32,0,0,0,1.23.68,1.29,1.29,0,0,0,1.18-.63,4.08,4.08,0,0,0,.4-2Z"/></g><g id="_20" data-name="20"><path class="cls-9" d="M107.49,384.46H100.8v-1.14l3.31-3.62a8.49,8.49,0,0,0,1-1.34,2.14,2.14,0,0,0,.3-1.07,1.61,1.61,0,0,0-.4-1.15,1.41,1.41,0,0,0-1.08-.44,1.61,1.61,0,0,0-1.25.49,2,2,0,0,0-.44,1.35h-1.66a3.22,3.22,0,0,1,.41-1.64,2.92,2.92,0,0,1,1.18-1.13,3.8,3.8,0,0,1,1.78-.4,3.32,3.32,0,0,1,2.28.73,2.5,2.5,0,0,1,.84,2,3.39,3.39,0,0,1-.42,1.56,8.88,8.88,0,0,1-1.38,1.86l-2.43,2.6h4.62Z"/><path class="cls-9" d="M115.24,380.27a5.43,5.43,0,0,1-.8,3.23,3.3,3.3,0,0,1-4.87,0,5.15,5.15,0,0,1-.84-3.15v-1.72a5.4,5.4,0,0,1,.8-3.22,3.36,3.36,0,0,1,4.89,0,5.2,5.2,0,0,1,.82,3.13Zm-1.66-1.86a4.3,4.3,0,0,0-.38-2.06,1.32,1.32,0,0,0-1.22-.65,1.3,1.3,0,0,0-1.19.62,3.9,3.9,0,0,0-.41,1.93v2.26a4.26,4.26,0,0,0,.39,2.07,1.31,1.31,0,0,0,1.23.69,1.29,1.29,0,0,0,1.18-.63,4.14,4.14,0,0,0,.4-2Z"/></g><g id="_10" data-name="10"><path class="cls-9" d="M105.3,467h-1.66v-8l-2.44.83v-1.39l3.88-1.43h.22Z"/><path class="cls-9" d="M115.24,462.81a5.43,5.43,0,0,1-.8,3.23,3.3,3.3,0,0,1-4.87,0,5.15,5.15,0,0,1-.84-3.15V461.2a5.4,5.4,0,0,1,.8-3.22,2.85,2.85,0,0,1,2.45-1.07,2.91,2.91,0,0,1,2.44,1,5.2,5.2,0,0,1,.82,3.13ZM113.58,461a4.3,4.3,0,0,0-.38-2.06,1.32,1.32,0,0,0-1.22-.65,1.3,1.3,0,0,0-1.19.62,3.9,3.9,0,0,0-.41,1.93v2.26a4.26,4.26,0,0,0,.39,2.07,1.31,1.31,0,0,0,1.23.69,1.29,1.29,0,0,0,1.18-.63,4.14,4.14,0,0,0,.4-2Z"/></g></g></g></g></g></svg>