<svg xmlns="http://www.w3.org/2000/svg" xmlns:xlink="http://www.w3.org/1999/xlink" viewBox="0 0 198.39 565.31"><defs><style>.cls-1{isolation:isolate;}.cls-2{fill:#ce1199;}.cls-11,.cls-3{fill:none;stroke-miterlimit:10;}.cls-3{stroke:#fff;stroke-width:2.5px;opacity:0.3;}.cls-4{fill:#fff;opacity:0.05;}.cls-5,.cls-6,.cls-7,.cls-8{mix-blend-mode:overlay;opacity:0.4;}.cls-5{fill:url(#Degradado_sin_nombre_8);}.cls-6{fill:url(#Degradado_sin_nombre_14);}.cls-7{fill:url(#Degradado_sin_nombre_11);}.cls-8{fill:url(#Degradado_sin_nombre_10);}.cls-9{opacity:0.5;fill:url(#Degradado_sin_nombre_2);}.cls-10{fill:#cecece;}.cls-11{stroke:#eaeaea;}</style><linearGradient id="Degradado_sin_nombre_8" x1="93.43" y1="282.66" x2="195.9" y2="282.66" gradientUnits="userSpaceOnUse"><stop offset="0" stop-color="#fff" stop-opacity="0"/><stop offset="1" stop-color="#fff"/></linearGradient><linearGradient id="Degradado_sin_nombre_14" x1="121.44" y1="288.14" x2="121.44" y2="586.7" gradientUnits="userSpaceOnUse"><stop offset="0" stop-color="#fff" stop-opacity="0"/><stop offset="0.58" stop-color="#fff" stop-opacity="0.5"/><stop offset="0.98" stop-color="#fff" stop-opacity="0"/></linearGradient><linearGradient id="Degradado_sin_nombre_11" x1="37.78" y1="795.08" x2="37.78" y2="23.73" gradientTransform="matrix(-1, 0, 0, 1, 126.98, 0)" gradientUnits="userSpaceOnUse"><stop offset="0.26" stop-color="#fff" stop-opacity="0"/><stop offset="0.32" stop-color="#fff" stop-opacity="0.01"/><stop offset="0.35" stop-color="#fff" stop-opacity="0.03"/><stop offset="0.36" stop-color="#fff" stop-opacity="0.08"/><stop offset="0.38" stop-color="#fff" stop-opacity="0.15"/><stop offset="0.39" stop-color="#fff" stop-opacity="0.23"/><stop offset="0.4" stop-color="#fff" stop-opacity="0.34"/><stop offset="0.41" stop-color="#fff" stop-opacity="0.46"/><stop offset="0.41" stop-color="#fff" stop-opacity="0.5"/><stop offset="0.42" stop-color="#fff" stop-opacity="0.45"/><stop offset="0.46" stop-color="#fff" stop-opacity="0.31"/><stop offset="0.5" stop-color="#fff" stop-opacity="0.2"/><stop offset="0.54" stop-color="#fff" stop-opacity="0.11"/><stop offset="0.59" stop-color="#fff" stop-opacity="0.05"/><stop offset="0.64" stop-color="#fff" stop-opacity="0.01"/><stop offset="0.71" stop-color="#fff" stop-opacity="0"/></linearGradient><linearGradient id="Degradado_sin_nombre_10" x1="22.36" y1="282.66" x2="133.34" y2="282.66" gradientUnits="userSpaceOnUse"><stop offset="0" stop-color="#fff"/><stop offset="0.98" stop-color="#fff" stop-opacity="0"/></linearGradient><linearGradient id="Degradado_sin_nombre_2" x1="116.97" y1="-8.17" x2="116.97" y2="317.35" gradientUnits="userSpaceOnUse"><stop offset="0" stop-color="#fff" stop-opacity="0.7"/><stop offset="1" stop-color="#fff" stop-opacity="0"/></linearGradient></defs><g class="cls-1"><g id="Matraz-volumetrico"><path id="liquido" class="cls-2" d="M99.19,562.81l47.13-.26c22,0,39.15-28.5,39.32-28.79a64.44,64.44,0,0,0,2.11-66.25L133,369.2a86.33,86.33,0,0,1-10.86-41.85V84.7c0-1.13-1.15-3.87-1.87-5.33l-.16-.32,5.67-56.15a5.57,5.57,0,0,1,2.54-4.11V2.5H70V18.79a5.58,5.58,0,0,1,2.55,4.11l5.67,56.15-.16.32c-.73,1.46-1.88,4.2-1.88,5.33V327.35A86.22,86.22,0,0,1,65.35,369.2L10.64,467.51a64.43,64.43,0,0,0,2.1,66.25c.17.29,17.3,28.79,39.32,28.79Z"/><g id="cuerpo"><path id="borde" class="cls-3" d="M99.19,564.06l47.14-.26c23,0,40.39-29.41,40.39-29.41a65.75,65.75,0,0,0,2.12-67.48l-54.72-98.32a84.79,84.79,0,0,1-10.7-41.24V84.7c0-1.84-2-5.88-2-5.88L127.05,23a4.33,4.33,0,0,1,3.58-3.82l3.77-.62a3.47,3.47,0,0,0,2.89-3.42V4.72a3.46,3.46,0,0,0-3.46-3.47H64.56a3.47,3.47,0,0,0-3.47,3.47V15.16A3.48,3.48,0,0,0,64,18.58l3.76.62A4.31,4.31,0,0,1,71.33,23L77,78.82s-2,4-2,5.88V327.35a84.8,84.8,0,0,1-10.71,41.24L9.55,466.91a65.73,65.73,0,0,0,2.12,67.48S29.06,563.8,52.06,563.8Z"/><path id="cuerpo-2" data-name="cuerpo" class="cls-4" d="M64.56,2.5a2.21,2.21,0,0,0-2.21,2.22V15.16a2.19,2.19,0,0,0,1.85,2.18L68,18a5.57,5.57,0,0,1,4.62,4.93l5.67,56.15-.16.32c-.72,1.46-1.87,4.2-1.87,5.33V327.35A86.23,86.23,0,0,1,65.35,369.2L10.64,467.51a64.4,64.4,0,0,0,2.08,66.21c.2.33,17.33,28.83,39.34,28.83l47.13.26,47.13-.26c22,0,39.15-28.5,39.32-28.79a64.44,64.44,0,0,0,2.11-66.25L133,369.2a86.33,86.33,0,0,1-10.86-41.85V84.7c0-1.13-1.15-3.87-1.87-5.33l-.16-.32,5.67-56.15A5.57,5.57,0,0,1,130.43,18l3.76-.63A2.2,2.2,0,0,0,136,15.16V4.72a2.21,2.21,0,0,0-2.21-2.22H64.56Z"/><path id="brillo1" class="cls-5" d="M187.6,466.91l-54.71-98.32a84.79,84.79,0,0,1-10.7-41.24V84.7c0-1.84-2-5.88-2-5.88L125.82,23a4.31,4.31,0,0,1,3.58-3.82l3.76-.62a3.48,3.48,0,0,0,2.9-3.42V4.72a3.47,3.47,0,0,0-3.47-3.47h-9A3.46,3.46,0,0,1,127,4.72V15.16a3.47,3.47,0,0,1-2.89,3.42l-3.76.62A4.33,4.33,0,0,0,116.76,23l-5.63,55.8s2,4,2,5.88V327.35a84.8,84.8,0,0,0,10.71,41.24l54.71,98.32a65.73,65.73,0,0,1-2.12,67.48S159,563.8,136,563.8L93.43,564l4.53,0,47.13-.26c23,0,40.39-29.41,40.39-29.41A65.73,65.73,0,0,0,187.6,466.91Z"/><path id="brillo2" class="cls-6" d="M166.76,467.48,129.19,400a102.73,102.73,0,0,1-13-49.92,92.52,92.52,0,0,1-3.08-15s-.93,38.81,10.45,68.33L153.9,466a64.39,64.39,0,0,1-2.08,66.2c-.19.33-24.94,30.34-46.95,30.34l-36.9.21,10.24,0,47.13-.26c22,0,39.15-28.5,39.34-28.83A64.39,64.39,0,0,0,166.76,467.48Z"/><path id="brillo3" class="cls-7" d="M43.89,467.48,98.6,369.16,87,393.42,54.68,467.48a64.39,64.39,0,0,0,2.08,66.2c.2.33,27,28.83,49,28.83l36.9.21-10.24,0-47.14-.26c-22,0-39.14-28.5-39.33-28.83A64.39,64.39,0,0,1,43.89,467.48Z"/><path id="brillo4" class="cls-8" d="M78.13,563.8c-23,0-40.39-29.41-40.39-29.41a65.73,65.73,0,0,1-2.12-67.48l43.21-98.32a84.8,84.8,0,0,0,10.71-41.24V84.7c0-1.84,2-5.88,2-5.88L85.91,23a4.33,4.33,0,0,0-3.59-3.82l-3.76-.62a3.47,3.47,0,0,1-2.89-3.42V4.72a3.46,3.46,0,0,1,3.46-3.47H64.56a3.47,3.47,0,0,0-3.47,3.47V15.16A3.48,3.48,0,0,0,64,18.58l3.76.62A4.31,4.31,0,0,1,71.33,23L77,78.82s-2,4-2,5.88V327.35a84.8,84.8,0,0,1-10.71,41.24L9.55,466.91a65.73,65.73,0,0,0,2.12,67.48S29.06,563.8,52.06,563.8l47.13.26,13-.07Z"/><path id="brillo5" class="cls-4" d="M99.19,18.62l30.27-.39a5.4,5.4,0,0,0-3.28,3.17h-54a5.4,5.4,0,0,0-3.28-3.17Z"/><path id="brillo6" class="cls-4" d="M120.3,79.28c1,2.21,1.9,4.33,1.87,5.84h-46c0-1.51.86-3.63,1.88-5.84Z"/><polyline id="brillo7" class="cls-9" points="122.54 2.5 122.54 18.23 119.9 21.4 115.27 78.71 118.03 85.1 116.27 328.02 113.17 328.02 113.16 85.32 111.39 78.82 115.83 21.4 117.89 18.23 117.94 2.5"/><g id="escala"><rect class="cls-10" x="61.99" y="493.89" width="33.09" height="28.28" rx="5.45"/><path class="cls-10" d="M108.17,522.24h-2.25v-8.69l-2.7.84v-1.84l4.71-1.68h.24Z"/><path class="cls-10" d="M119.51,517.55a5.74,5.74,0,0,1-1,3.6,3.88,3.88,0,0,1-5.69,0,5.56,5.56,0,0,1-1-3.51v-2.09a5.67,5.67,0,0,1,1-3.61,3.9,3.9,0,0,1,5.68,0,5.56,5.56,0,0,1,1,3.51Zm-2.26-2.3a4.27,4.27,0,0,0-.38-2.06,1.31,1.31,0,0,0-1.21-.64,1.27,1.27,0,0,0-1.17.61,3.86,3.86,0,0,0-.41,1.92v2.76a4.4,4.4,0,0,0,.38,2.07,1.3,1.3,0,0,0,1.22.67,1.25,1.25,0,0,0,1.19-.65,4.3,4.3,0,0,0,.38-2Z"/><path class="cls-10" d="M128.68,517.55a5.74,5.74,0,0,1-1,3.6,3.9,3.9,0,0,1-5.7,0,5.56,5.56,0,0,1-1-3.51v-2.09a5.73,5.73,0,0,1,1-3.61,3.92,3.92,0,0,1,5.69,0,5.62,5.62,0,0,1,1,3.51Zm-2.26-2.3a4.14,4.14,0,0,0-.39-2.06,1.45,1.45,0,0,0-2.38,0,4,4,0,0,0-.4,1.92v2.76a4.4,4.4,0,0,0,.38,2.07,1.28,1.28,0,0,0,1.21.67,1.26,1.26,0,0,0,1.2-.65,4.3,4.3,0,0,0,.38-2Z"/><path class="cls-10" d="M132.4,513.8l.07,1a3,3,0,0,1,2.43-1.1,2.25,2.25,0,0,1,2.24,1.28,2.89,2.89,0,0,1,2.54-1.28,2.5,2.5,0,0,1,2,.8,3.64,3.64,0,0,1,.67,2.4v5.39h-2.26v-5.38a1.59,1.59,0,0,0-.28-1.05,1.25,1.25,0,0,0-1-.33,1.41,1.41,0,0,0-1.41,1v5.79h-2.25v-5.37a1.6,1.6,0,0,0-.29-1.06,1.27,1.27,0,0,0-1-.33,1.43,1.43,0,0,0-1.38.8v6h-2.26V513.8Z"/><path class="cls-10" d="M146.61,520.36h5v1.88h-7.31V510.88h2.34Z"/><line id="medida" class="cls-11" x1="73.96" y1="268.62" x2="124.83" y2="268.62"/></g></g></g></g></svg>