<svg xmlns="http://www.w3.org/2000/svg" xmlns:xlink="http://www.w3.org/1999/xlink" viewBox="0 0 200.89 567.81"><defs><linearGradient id="Degradado_sin_nombre_8" x1="94.68" y1="283.91" x2="197.15" y2="283.91" gradientUnits="userSpaceOnUse"><stop offset="0" stop-color="#fff" stop-opacity="0"/><stop offset="1" stop-color="#fff"/></linearGradient><linearGradient id="Degradado_sin_nombre_14" x1="122.69" y1="289.39" x2="122.69" y2="587.95" gradientUnits="userSpaceOnUse"><stop offset="0" stop-color="#fff" stop-opacity="0"/><stop offset="0.58" stop-color="#fff" stop-opacity="0.5"/><stop offset="0.98" stop-color="#fff" stop-opacity="0"/></linearGradient><linearGradient id="Degradado_sin_nombre_11" x1="39.03" y1="796.33" x2="39.03" y2="24.98" gradientTransform="matrix(-1, 0, 0, 1, 129.48, 0)" gradientUnits="userSpaceOnUse"><stop offset="0.26" stop-color="#fff" stop-opacity="0"/><stop offset="0.32" stop-color="#fff" stop-opacity="0.01"/><stop offset="0.35" stop-color="#fff" stop-opacity="0.03"/><stop offset="0.36" stop-color="#fff" stop-opacity="0.08"/><stop offset="0.38" stop-color="#fff" stop-opacity="0.15"/><stop offset="0.39" stop-color="#fff" stop-opacity="0.23"/><stop offset="0.4" stop-color="#fff" stop-opacity="0.34"/><stop offset="0.41" stop-color="#fff" stop-opacity="0.46"/><stop offset="0.41" stop-color="#fff" stop-opacity="0.5"/><stop offset="0.42" stop-color="#fff" stop-opacity="0.45"/><stop offset="0.46" stop-color="#fff" stop-opacity="0.31"/><stop offset="0.5" stop-color="#fff" stop-opacity="0.2"/><stop offset="0.54" stop-color="#fff" stop-opacity="0.11"/><stop offset="0.59" stop-color="#fff" stop-opacity="0.05"/><stop offset="0.64" stop-color="#fff" stop-opacity="0.01"/><stop offset="0.71" stop-color="#fff" stop-opacity="0"/></linearGradient><linearGradient id="Degradado_sin_nombre_10" x1="23.61" y1="283.91" x2="134.59" y2="283.91" gradientUnits="userSpaceOnUse"><stop offset="0" stop-color="#fff"/><stop offset="0.98" stop-color="#fff" stop-opacity="0"/></linearGradient><linearGradient id="Degradado_sin_nombre_2" x1="118.22" y1="-6.92" x2="118.22" y2="318.6" gradientUnits="userSpaceOnUse"><stop offset="0" stop-color="#fff" stop-opacity="0.7"/><stop offset="1" stop-color="#fff" stop-opacity="0"/></linearGradient></defs><g style="isolation:isolate"><g id="Matraz_volumetrico" data-name="Matraz volumetrico"><path id="halo" d="M100.44,565.31l47.14-.26c23,0,40.39-29.41,40.39-29.41a65.75,65.75,0,0,0,2.12-67.48l-54.72-98.32a84.79,84.79,0,0,1-10.7-41.24V86c0-1.84-2-5.88-2-5.88l5.63-55.8a4.33,4.33,0,0,1,3.58-3.82l3.77-.62a3.47,3.47,0,0,0,2.89-3.42V6a3.46,3.46,0,0,0-3.46-3.47H65.81A3.47,3.47,0,0,0,62.34,6V16.41a3.48,3.48,0,0,0,2.9,3.42l3.76.62a4.31,4.31,0,0,1,3.58,3.82l5.64,55.8s-2,4-2,5.88V328.6a84.8,84.8,0,0,1-10.71,41.24L10.8,468.16a65.73,65.73,0,0,0,2.12,67.48s17.39,29.41,40.39,29.41Z" style="fill:none;stroke:#fff;stroke-miterlimit:10;stroke-width:5px"/><g id="liquido"><path d="M73.6,23.07c0-.15-.11-.3-.17-.45C73.49,22.77,73.55,22.92,73.6,23.07Z" style="fill:#000145"/><path d="M127.29,23.07l-.09.31Z" style="fill:#000145"/><path d="M73.81,24.05a4.67,4.67,0,0,0-.13-.67A4.67,4.67,0,0,1,73.81,24.05Z" style="fill:#000145"/><path d="M72.69,21.34a.44.44,0,0,0-.08-.11A.44.44,0,0,1,72.69,21.34Z" style="fill:#000145"/><path d="M128.19,21.34a4.15,4.15,0,0,0-.3.43A3.3,3.3,0,0,1,128.19,21.34Z" style="fill:#000145"/><path d="M127.72,22.06a5.77,5.77,0,0,0-.27.56A5.77,5.77,0,0,1,127.72,22.06Z" style="fill:#000145"/><path d="M73.16,22.06a2.69,2.69,0,0,0-.16-.29A2.69,2.69,0,0,1,73.16,22.06Z" style="fill:#000145"/><path d="M3.74,500v0Z" style="fill:#000145"/><path d="M197.15,500c0,.13,0,.27,0,.41C197.15,500.28,197.15,500.14,197.15,500Z" style="fill:#000145"/><path d="M39.09,560a30.42,30.42,0,0,0,14.22,3.82l31.27.17-31.27-.17A30.42,30.42,0,0,1,39.09,560Z" style="fill:#000145"/><path d="M11.72,531.18a64.4,64.4,0,0,1-8-30.76A64.34,64.34,0,0,0,11.72,531.18Z" style="fill:#000145"/><polygon points="100.44 564.06 116.31 563.98 100.44 564.06 100.44 564.06" style="fill:#000145"/><path d="M186.92,535c-.15.25-10.37,17.23-25.13,25,14.76-7.77,25-24.75,25.1-25q1.22-1.89,2.28-3.83C188.47,532.46,187.71,533.72,186.92,535Z" style="fill:#000145"/><path d="M128.28,21.23A5.77,5.77,0,0,1,129.6,20h0A5.34,5.34,0,0,0,128.28,21.23Z" style="fill:#000145"/><path d="M121.38,80.3l.16.32c.73,1.46,1.88,4.2,1.88,5.33V328.6a86.33,86.33,0,0,0,10.86,41.85L189,468.76A64.47,64.47,0,0,1,197.15,500,64.44,64.44,0,0,0,189,468.76l-54.72-98.31a86.33,86.33,0,0,1-10.86-41.85V86c0-1.13-1.15-3.87-1.87-5.33l-.16-.32,5.67-56.15a.3.3,0,0,1,0-.1.3.3,0,0,0,0,.1Z" style="fill:#000145"/><path d="M73,21.77a4.25,4.25,0,0,0-.31-.43A4.73,4.73,0,0,1,73,21.77Z" style="fill:#000145"/><polygon points="100.44 564.06 100.44 564.06 84.58 563.98 100.44 564.06" style="fill:#000145"/><path d="M73.43,22.62a5.77,5.77,0,0,0-.27-.56A5.77,5.77,0,0,1,73.43,22.62Z" style="fill:#000145"/><path d="M73.68,23.38a2.81,2.81,0,0,0-.08-.31A2.81,2.81,0,0,1,73.68,23.38Z" style="fill:#000145"/><path d="M3.74,500.42v0Z" style="fill:#000145"/><path d="M71.28,20h0a5.82,5.82,0,0,1,1.33,1.19A5.39,5.39,0,0,0,71.28,20Z" style="fill:#000145"/><path d="M66.6,370.45A86.23,86.23,0,0,0,77.47,328.6V86c0-1.13,1.15-3.87,1.87-5.33l.16-.32L73.83,24.15a.44.44,0,0,1,0-.1.44.44,0,0,0,0,.1L79.5,80.3l-.16.32c-.73,1.46-1.88,4.2-1.88,5.33V328.6A86.22,86.22,0,0,1,66.6,370.45L11.89,468.76A64.33,64.33,0,0,0,3.74,500a64.47,64.47,0,0,1,8.15-31.23Z" style="fill:#000145"/><path d="M197.14,500.42a64.39,64.39,0,0,1-8,30.76A64.33,64.33,0,0,0,197.14,500.42Z" style="fill:#000145"/><path d="M14,535q-1.2-1.87-2.25-3.79Q12.79,533.12,14,535c.13.22,10.35,17.2,25.1,25C24.34,552.2,14.12,535.22,14,535Z" style="fill:#000145"/><path d="M116.31,564l31.27-.17A30.38,30.38,0,0,0,161.79,560a30.38,30.38,0,0,1-14.22,3.82Z" style="fill:#000145"/><path d="M197.15,500v0Z" style="fill:#000145"/><path d="M127.89,21.77c-.06.09-.11.19-.17.29C127.78,22,127.83,21.86,127.89,21.77Z" style="fill:#000145"/><path d="M127.2,23.38a4.68,4.68,0,0,0-.12.67A4.68,4.68,0,0,1,127.2,23.38Z" style="fill:#000145"/><path d="M128.28,21.23l-.09.11Z" style="fill:#000145"/><path d="M127.45,22.62c-.06.15-.11.3-.16.45A4,4,0,0,1,127.45,22.62Z" style="fill:#000145"/><path d="M197.15,500A64.47,64.47,0,0,0,189,468.76l-54.72-98.31a86.33,86.33,0,0,1-10.86-41.85V86c0-1.13-1.15-3.87-1.88-5.33l-.16-.32,5.68-56.15a.3.3,0,0,1,0-.1,4.68,4.68,0,0,1,.12-.67l.09-.31c0-.15.1-.3.16-.45a5.77,5.77,0,0,1,.27-.56c.06-.1.11-.2.17-.29a4.15,4.15,0,0,1,.3-.43l.09-.11A5.34,5.34,0,0,1,129.6,20V3.75H71.28V20a5.39,5.39,0,0,1,1.33,1.19.44.44,0,0,1,.08.11,4.25,4.25,0,0,1,.31.43,2.69,2.69,0,0,1,.16.29,5.77,5.77,0,0,1,.27.56c.06.15.12.3.17.45a2.81,2.81,0,0,1,.08.31,4.67,4.67,0,0,1,.13.67.44.44,0,0,0,0,.1L79.5,80.3l-.16.32c-.72,1.46-1.87,4.2-1.87,5.33V328.6A86.23,86.23,0,0,1,66.6,370.45L11.89,468.76A64.47,64.47,0,0,0,3.74,500v.43a64.4,64.4,0,0,0,8,30.76q1,1.92,2.25,3.79c.15.25,10.37,17.23,25.12,25a30.42,30.42,0,0,0,14.22,3.82l31.27.17,15.86.09,15.87-.09,31.26-.17A30.38,30.38,0,0,0,161.79,560c14.76-7.78,25-24.76,25.13-25,.79-1.25,1.55-2.51,2.25-3.79a64.39,64.39,0,0,0,8-30.76c0-.14,0-.28,0-.41Z" style="fill:#000145"/></g><g id="cuerpo"><path id="borde" d="M100.44,565.31l47.14-.26c23,0,40.39-29.41,40.39-29.41a65.75,65.75,0,0,0,2.12-67.48l-54.72-98.32a84.79,84.79,0,0,1-10.7-41.24V86c0-1.84-2-5.88-2-5.88l5.63-55.8a4.33,4.33,0,0,1,3.58-3.82l3.77-.62a3.47,3.47,0,0,0,2.89-3.42V6a3.46,3.46,0,0,0-3.46-3.47H65.81A3.47,3.47,0,0,0,62.34,6V16.41a3.48,3.48,0,0,0,2.9,3.42l3.76.62a4.31,4.31,0,0,1,3.58,3.82l5.64,55.8s-2,4-2,5.88V328.6a84.8,84.8,0,0,1-10.71,41.24L10.8,468.16a65.73,65.73,0,0,0,2.12,67.48s17.39,29.41,40.39,29.41Z" style="fill:none;stroke:#fff;stroke-miterlimit:10;stroke-width:2.5px;opacity:0.30000000000000004"/><path id="cuerpo-2" data-name="cuerpo" d="M65.81,3.75A2.21,2.21,0,0,0,63.6,6V16.41a2.19,2.19,0,0,0,1.85,2.18l3.76.63a5.57,5.57,0,0,1,4.62,4.93L79.5,80.3l-.16.32c-.72,1.46-1.87,4.2-1.87,5.33V328.6A86.23,86.23,0,0,1,66.6,370.45L11.89,468.76A64.4,64.4,0,0,0,14,535c.2.33,17.33,28.83,39.34,28.83l47.13.26,47.13-.26c22,0,39.15-28.5,39.32-28.79A64.44,64.44,0,0,0,189,468.76l-54.72-98.31a86.33,86.33,0,0,1-10.86-41.85V86c0-1.13-1.15-3.87-1.87-5.33l-.16-.32,5.67-56.15a5.57,5.57,0,0,1,4.62-4.93l3.76-.63a2.2,2.2,0,0,0,1.85-2.18V6a2.21,2.21,0,0,0-2.21-2.22H65.81Z" style="fill:#fff;opacity:0.05"/><path id="brillo1" d="M188.85,468.16l-54.71-98.32a84.79,84.79,0,0,1-10.7-41.24V86c0-1.84-2-5.88-2-5.88l5.64-55.8a4.31,4.31,0,0,1,3.58-3.82l3.76-.62a3.48,3.48,0,0,0,2.9-3.42V6a3.47,3.47,0,0,0-3.47-3.47h-9A3.46,3.46,0,0,1,128.25,6V16.41a3.47,3.47,0,0,1-2.89,3.42l-3.76.62A4.33,4.33,0,0,0,118,24.27l-5.63,55.8s2,4,2,5.88V328.6a84.8,84.8,0,0,0,10.71,41.24l54.71,98.32a65.73,65.73,0,0,1-2.12,67.48s-17.39,29.41-40.39,29.41l-42.61.24,4.53,0,47.13-.26c23,0,40.39-29.41,40.39-29.41A65.73,65.73,0,0,0,188.85,468.16Z" style="mix-blend-mode:overlay;opacity:0.4;fill:url(#Degradado_sin_nombre_8)"/><path id="brillo2" d="M168,468.73,130.44,401.2a102.73,102.73,0,0,1-13-49.92,92.52,92.52,0,0,1-3.08-15s-.93,38.81,10.45,68.33l30.29,62.63a64.39,64.39,0,0,1-2.08,66.2c-.19.33-24.94,30.34-46.95,30.34l-36.9.21,10.24,0,47.13-.26c22,0,39.15-28.5,39.34-28.83A64.39,64.39,0,0,0,168,468.73Z" style="mix-blend-mode:overlay;opacity:0.4;fill:url(#Degradado_sin_nombre_14)"/><path id="brillo3" d="M45.14,468.73l54.71-98.32L88.29,394.67,55.93,468.73A64.39,64.39,0,0,0,58,534.93c.2.33,27,28.83,49,28.83l36.9.21-10.24,0-47.14-.26c-22,0-39.14-28.5-39.33-28.83A64.39,64.39,0,0,1,45.14,468.73Z" style="mix-blend-mode:overlay;opacity:0.4;fill:url(#Degradado_sin_nombre_11)"/><path id="brillo4" d="M79.38,565.05c-23,0-40.39-29.41-40.39-29.41a65.73,65.73,0,0,1-2.12-67.48l43.21-98.32A84.8,84.8,0,0,0,90.79,328.6V86c0-1.84,2-5.88,2-5.88l-5.63-55.8a4.33,4.33,0,0,0-3.59-3.82l-3.76-.62a3.47,3.47,0,0,1-2.89-3.42V6A3.46,3.46,0,0,1,80.38,2.5H65.81A3.47,3.47,0,0,0,62.34,6V16.41a3.48,3.48,0,0,0,2.9,3.42l3.76.62a4.31,4.31,0,0,1,3.58,3.82l5.64,55.8s-2,4-2,5.88V328.6a84.8,84.8,0,0,1-10.71,41.24L10.8,468.16a65.73,65.73,0,0,0,2.12,67.48s17.39,29.41,40.39,29.41l47.13.26,13-.07Z" style="mix-blend-mode:overlay;opacity:0.4;fill:url(#Degradado_sin_nombre_10)"/><path id="brillo5" d="M100.44,19.87l30.27-.39a5.4,5.4,0,0,0-3.28,3.17h-54a5.4,5.4,0,0,0-3.28-3.17Z" style="fill:#fff;opacity:0.05"/><path id="brillo6" d="M121.55,80.53c1,2.21,1.9,4.33,1.87,5.84h-46c0-1.51.86-3.63,1.88-5.84Z" style="fill:#fff;opacity:0.05"/><polyline id="brillo7" points="123.79 3.75 123.79 19.48 121.15 22.65 116.52 79.96 119.28 86.35 117.52 329.27 114.42 329.27 114.41 86.57 112.64 80.07 117.08 22.65 119.14 19.48 119.19 3.75" style="opacity:0.5;fill:url(#Degradado_sin_nombre_2)"/><g id="escala"><rect x="63.24" y="495.14" width="33.09" height="28.28" rx="5.45" style="fill:#fff"/><path d="M109.42,523.49h-2.25V514.8l-2.7.84V513.8l4.71-1.68h.24Z" style="fill:#fff"/><path d="M120.76,518.8a5.74,5.74,0,0,1-1,3.6,3.88,3.88,0,0,1-5.69,0,5.56,5.56,0,0,1-1-3.51v-2.09a5.67,5.67,0,0,1,1-3.61,3.9,3.9,0,0,1,5.68,0,5.56,5.56,0,0,1,1,3.51Zm-2.26-2.3a4.27,4.27,0,0,0-.38-2.06,1.31,1.31,0,0,0-1.21-.64,1.27,1.27,0,0,0-1.17.61,3.86,3.86,0,0,0-.41,1.92v2.76a4.4,4.4,0,0,0,.38,2.07,1.3,1.3,0,0,0,1.22.67,1.25,1.25,0,0,0,1.19-.65,4.3,4.3,0,0,0,.38-2Z" style="fill:#fff"/><path d="M129.93,518.8a5.74,5.74,0,0,1-1,3.6,3.9,3.9,0,0,1-5.7,0,5.56,5.56,0,0,1-1-3.51v-2.09a5.73,5.73,0,0,1,1-3.61,3.92,3.92,0,0,1,5.69,0,5.62,5.62,0,0,1,1,3.51Zm-2.26-2.3a4.14,4.14,0,0,0-.39-2.06,1.45,1.45,0,0,0-2.38,0,4,4,0,0,0-.4,1.92v2.76a4.4,4.4,0,0,0,.38,2.07,1.28,1.28,0,0,0,1.21.67,1.26,1.26,0,0,0,1.2-.65,4.3,4.3,0,0,0,.38-2Z" style="fill:#fff"/><path d="M133.65,515.05l.07,1a3,3,0,0,1,2.43-1.1,2.25,2.25,0,0,1,2.24,1.28,2.89,2.89,0,0,1,2.54-1.28,2.5,2.5,0,0,1,2,.8,3.64,3.64,0,0,1,.67,2.4v5.39h-2.26v-5.38a1.59,1.59,0,0,0-.28-1.05,1.25,1.25,0,0,0-1-.33,1.41,1.41,0,0,0-1.41,1v5.79h-2.25v-5.37a1.6,1.6,0,0,0-.29-1.06,1.27,1.27,0,0,0-1-.33,1.43,1.43,0,0,0-1.38.8v6h-2.26v-8.44Z" style="fill:#fff"/><path d="M147.86,521.61h5v1.88h-7.31V512.13h2.34Z" style="fill:#fff"/><line id="medida" x1="75.21" y1="269.87" x2="126.08" y2="269.87" style="fill:none;stroke:#eaeaea;stroke-miterlimit:10"/></g></g></g></g></svg>