<svg xmlns="http://www.w3.org/2000/svg" xmlns:xlink="http://www.w3.org/1999/xlink" viewBox="0 0 198.39 565.31"><defs><linearGradient id="Degradado_sin_nombre_8" x1="93.43" y1="282.66" x2="195.9" y2="282.66" gradientUnits="userSpaceOnUse"><stop offset="0" stop-color="#fff" stop-opacity="0"/><stop offset="1" stop-color="#fff"/></linearGradient><linearGradient id="Degradado_sin_nombre_14" x1="121.44" y1="288.14" x2="121.44" y2="586.7" gradientUnits="userSpaceOnUse"><stop offset="0" stop-color="#fff" stop-opacity="0"/><stop offset="0.58" stop-color="#fff" stop-opacity="0.5"/><stop offset="0.98" stop-color="#fff" stop-opacity="0"/></linearGradient><linearGradient id="Degradado_sin_nombre_11" x1="37.78" y1="795.08" x2="37.78" y2="23.73" gradientTransform="matrix(-1, 0, 0, 1, 126.98, 0)" gradientUnits="userSpaceOnUse"><stop offset="0.26" stop-color="#fff" stop-opacity="0"/><stop offset="0.32" stop-color="#fff" stop-opacity="0.01"/><stop offset="0.35" stop-color="#fff" stop-opacity="0.03"/><stop offset="0.36" stop-color="#fff" stop-opacity="0.08"/><stop offset="0.38" stop-color="#fff" stop-opacity="0.15"/><stop offset="0.39" stop-color="#fff" stop-opacity="0.23"/><stop offset="0.4" stop-color="#fff" stop-opacity="0.34"/><stop offset="0.41" stop-color="#fff" stop-opacity="0.46"/><stop offset="0.41" stop-color="#fff" stop-opacity="0.5"/><stop offset="0.42" stop-color="#fff" stop-opacity="0.45"/><stop offset="0.46" stop-color="#fff" stop-opacity="0.31"/><stop offset="0.5" stop-color="#fff" stop-opacity="0.2"/><stop offset="0.54" stop-color="#fff" stop-opacity="0.11"/><stop offset="0.59" stop-color="#fff" stop-opacity="0.05"/><stop offset="0.64" stop-color="#fff" stop-opacity="0.01"/><stop offset="0.71" stop-color="#fff" stop-opacity="0"/></linearGradient><linearGradient id="Degradado_sin_nombre_10" x1="22.36" y1="282.66" x2="133.34" y2="282.66" gradientUnits="userSpaceOnUse"><stop offset="0" stop-color="#fff"/><stop offset="0.98" stop-color="#fff" stop-opacity="0"/></linearGradient><linearGradient id="Degradado_sin_nombre_2" x1="116.97" y1="-8.17" x2="116.97" y2="317.35" gradientUnits="userSpaceOnUse"><stop offset="0" stop-color="#fff" stop-opacity="0.7"/><stop offset="1" stop-color="#fff" stop-opacity="0"/></linearGradient></defs><g style="isolation:isolate"><g id="Matraz_volumetrico" data-name="Matraz volumetrico"><path id="halo" d="M133.83,1.25a3.46,3.46,0,0,1,3.46,3.47V15.16a3.47,3.47,0,0,1-2.89,3.42l-3.77.62A4.33,4.33,0,0,0,127.05,23l-5.64,55.8s2,4,2,5.88V327.35a84.79,84.79,0,0,0,10.7,41.24l54.72,98.32a65.75,65.75,0,0,1-2.12,67.48s-17.39,29.41-40.39,29.41l-47.14.26-47.13-.26c-23,0-40.39-29.41-40.39-29.41a65.73,65.73,0,0,1-2.12-67.48l54.71-98.32A84.8,84.8,0,0,0,75,327.35V84.7c0-1.84,2-5.88,2-5.88L71.33,23a4.31,4.31,0,0,0-3.58-3.82L64,18.58a3.48,3.48,0,0,1-2.9-3.42V4.72a3.47,3.47,0,0,1,3.47-3.47h69.27m0-5H64.56a8.48,8.48,0,0,0-8.47,8.47V15.16a8.44,8.44,0,0,0,7.08,8.35l3.24.54,5.45,53.89A18.63,18.63,0,0,0,70,84.7V327.35a80,80,0,0,1-10.08,38.81L5.18,464.48A70.62,70.62,0,0,0,7.41,537c1.31,2.19,19.5,31.78,44.65,31.78l47.11.26h0l47.14-.26c25.12,0,43.31-29.59,44.61-31.78a70.64,70.64,0,0,0,2.24-72.54l-54.72-98.32a80,80,0,0,1-10.07-38.81V84.7a18.63,18.63,0,0,0-1.89-6.76L132,24.05l3.25-.54a8.44,8.44,0,0,0,7.07-8.35V4.72a8.48,8.48,0,0,0-8.46-8.47Z" style="fill:#fff"/><g id="liquido"><path d="M72.35,21.82c0-.15-.11-.3-.17-.45C72.24,21.52,72.3,21.67,72.35,21.82Z" style="fill:#000145"/><path d="M126,21.82l-.09.31Z" style="fill:#000145"/><path d="M72.56,22.8a4.67,4.67,0,0,0-.13-.67A4.67,4.67,0,0,1,72.56,22.8Z" style="fill:#000145"/><path d="M71.44,20.09a.44.44,0,0,0-.08-.11A.44.44,0,0,1,71.44,20.09Z" style="fill:#000145"/><path d="M126.94,20.09a4.15,4.15,0,0,0-.3.43A3.3,3.3,0,0,1,126.94,20.09Z" style="fill:#000145"/><path d="M126.47,20.81a5.77,5.77,0,0,0-.27.56A5.77,5.77,0,0,1,126.47,20.81Z" style="fill:#000145"/><path d="M71.91,20.81a2.69,2.69,0,0,0-.16-.29A2.69,2.69,0,0,1,71.91,20.81Z" style="fill:#000145"/><path d="M2.49,498.76v0Z" style="fill:#000145"/><path d="M195.9,498.76c0,.13,0,.27,0,.41C195.9,499,195.9,498.89,195.9,498.76Z" style="fill:#000145"/><path d="M37.84,558.73a30.42,30.42,0,0,0,14.22,3.82l31.27.17-31.27-.17A30.42,30.42,0,0,1,37.84,558.73Z" style="fill:#000145"/><path d="M10.47,529.93a64.4,64.4,0,0,1-8-30.76A64.34,64.34,0,0,0,10.47,529.93Z" style="fill:#000145"/><polygon points="99.19 562.81 115.06 562.73 99.19 562.81 99.19 562.81" style="fill:#000145"/><path d="M185.67,533.72c-.15.25-10.37,17.23-25.13,25,14.76-7.77,25-24.75,25.1-25q1.22-1.89,2.28-3.83C187.22,531.21,186.46,532.47,185.67,533.72Z" style="fill:#000145"/><path d="M127,20a5.77,5.77,0,0,1,1.32-1.19h0A5.34,5.34,0,0,0,127,20Z" style="fill:#000145"/><path d="M120.13,79.05l.16.32c.73,1.46,1.88,4.2,1.88,5.33V327.35A86.33,86.33,0,0,0,133,369.2l54.72,98.31a64.47,64.47,0,0,1,8.15,31.23,64.44,64.44,0,0,0-8.15-31.23L133,369.2a86.33,86.33,0,0,1-10.86-41.85V84.7c0-1.13-1.15-3.87-1.87-5.33l-.16-.32,5.67-56.15a.3.3,0,0,1,0-.1.3.3,0,0,0,0,.1Z" style="fill:#000145"/><path d="M71.75,20.52a4.25,4.25,0,0,0-.31-.43A4.73,4.73,0,0,1,71.75,20.52Z" style="fill:#000145"/><polygon points="99.19 562.81 99.19 562.81 83.33 562.73 99.19 562.81" style="fill:#000145"/><path d="M72.18,21.37a5.77,5.77,0,0,0-.27-.56A5.77,5.77,0,0,1,72.18,21.37Z" style="fill:#000145"/><path d="M72.43,22.13a2.81,2.81,0,0,0-.08-.31A2.81,2.81,0,0,1,72.43,22.13Z" style="fill:#000145"/><path d="M2.49,499.17v0Z" style="fill:#000145"/><path d="M70,18.79h0A5.82,5.82,0,0,1,71.36,20,5.39,5.39,0,0,0,70,18.79Z" style="fill:#000145"/><path d="M65.35,369.2a86.23,86.23,0,0,0,10.87-41.85V84.7c0-1.13,1.15-3.87,1.87-5.33l.16-.32L72.58,22.9a.44.44,0,0,1,0-.1.44.44,0,0,0,0,.1l5.67,56.15-.16.32c-.73,1.46-1.88,4.2-1.88,5.33V327.35A86.22,86.22,0,0,1,65.35,369.2L10.64,467.51a64.33,64.33,0,0,0-8.15,31.23,64.47,64.47,0,0,1,8.15-31.23Z" style="fill:#000145"/><path d="M195.89,499.17a64.39,64.39,0,0,1-8,30.76A64.33,64.33,0,0,0,195.89,499.17Z" style="fill:#000145"/><path d="M12.72,533.72q-1.2-1.87-2.25-3.79,1.06,1.94,2.27,3.83c.13.22,10.35,17.2,25.1,25C23.09,551,12.87,534,12.72,533.72Z" style="fill:#000145"/><path d="M115.06,562.72l31.27-.17a30.38,30.38,0,0,0,14.21-3.82,30.38,30.38,0,0,1-14.22,3.82Z" style="fill:#000145"/><path d="M195.9,498.74v0Z" style="fill:#000145"/><path d="M126.64,20.52c-.06.09-.11.19-.17.29C126.53,20.71,126.58,20.61,126.64,20.52Z" style="fill:#000145"/><path d="M126,22.13a4.68,4.68,0,0,0-.12.67A4.68,4.68,0,0,1,126,22.13Z" style="fill:#000145"/><path d="M127,20l-.09.11Z" style="fill:#000145"/><path d="M126.2,21.37c-.06.15-.11.3-.16.45A4,4,0,0,1,126.2,21.37Z" style="fill:#000145"/><path d="M195.9,498.74a64.47,64.47,0,0,0-8.15-31.23L133,369.2a86.33,86.33,0,0,1-10.86-41.85V84.7c0-1.13-1.15-3.87-1.88-5.33l-.16-.32,5.68-56.15a.3.3,0,0,1,0-.1,4.68,4.68,0,0,1,.12-.67l.09-.31c0-.15.1-.3.16-.45a5.77,5.77,0,0,1,.27-.56c.06-.1.11-.2.17-.29a4.15,4.15,0,0,1,.3-.43L127,20a5.34,5.34,0,0,1,1.32-1.19V2.5H70V18.79A5.39,5.39,0,0,1,71.36,20a.44.44,0,0,1,.08.11,4.25,4.25,0,0,1,.31.43,2.69,2.69,0,0,1,.16.29,5.77,5.77,0,0,1,.27.56c.06.15.12.3.17.45a2.81,2.81,0,0,1,.08.31,4.67,4.67,0,0,1,.13.67.44.44,0,0,0,0,.1l5.67,56.15-.16.32c-.72,1.46-1.87,4.2-1.87,5.33V327.35A86.23,86.23,0,0,1,65.35,369.2L10.64,467.51a64.47,64.47,0,0,0-8.15,31.23v.43a64.4,64.4,0,0,0,8,30.76q1,1.92,2.25,3.79c.15.25,10.37,17.23,25.12,25a30.42,30.42,0,0,0,14.22,3.82l31.27.17,15.86.09,15.87-.09,31.26-.17a30.38,30.38,0,0,0,14.22-3.82c14.76-7.78,25-24.76,25.13-25,.79-1.25,1.55-2.51,2.25-3.79a64.39,64.39,0,0,0,8-30.76c0-.14,0-.28,0-.41Z" style="fill:#000145"/></g><g id="cuerpo"><path id="borde" d="M99.19,564.06l47.14-.26c23,0,40.39-29.41,40.39-29.41a65.75,65.75,0,0,0,2.12-67.48l-54.72-98.32a84.79,84.79,0,0,1-10.7-41.24V84.7c0-1.84-2-5.88-2-5.88L127.05,23a4.33,4.33,0,0,1,3.58-3.82l3.77-.62a3.47,3.47,0,0,0,2.89-3.42V4.72a3.46,3.46,0,0,0-3.46-3.47H64.56a3.47,3.47,0,0,0-3.47,3.47V15.16A3.48,3.48,0,0,0,64,18.58l3.76.62A4.31,4.31,0,0,1,71.33,23L77,78.82s-2,4-2,5.88V327.35a84.8,84.8,0,0,1-10.71,41.24L9.55,466.91a65.73,65.73,0,0,0,2.12,67.48S29.06,563.8,52.06,563.8Z" style="fill:none;stroke:#fff;stroke-miterlimit:10;stroke-width:2.5px;opacity:0.30000000000000004"/><path id="cuerpo-2" data-name="cuerpo" d="M64.56,2.5a2.21,2.21,0,0,0-2.21,2.22V15.16a2.19,2.19,0,0,0,1.85,2.18L68,18a5.57,5.57,0,0,1,4.62,4.93l5.67,56.15-.16.32c-.72,1.46-1.87,4.2-1.87,5.33V327.35A86.23,86.23,0,0,1,65.35,369.2L10.64,467.51a64.4,64.4,0,0,0,2.08,66.21c.2.33,17.33,28.83,39.34,28.83l47.13.26,47.13-.26c22,0,39.15-28.5,39.32-28.79a64.44,64.44,0,0,0,2.11-66.25L133,369.2a86.33,86.33,0,0,1-10.86-41.85V84.7c0-1.13-1.15-3.87-1.87-5.33l-.16-.32,5.67-56.15A5.57,5.57,0,0,1,130.43,18l3.76-.63A2.2,2.2,0,0,0,136,15.16V4.72a2.21,2.21,0,0,0-2.21-2.22H64.56Z" style="fill:#fff;opacity:0.05"/><path id="brillo1" d="M187.6,466.91l-54.71-98.32a84.79,84.79,0,0,1-10.7-41.24V84.7c0-1.84-2-5.88-2-5.88L125.82,23a4.31,4.31,0,0,1,3.58-3.82l3.76-.62a3.48,3.48,0,0,0,2.9-3.42V4.72a3.47,3.47,0,0,0-3.47-3.47h-9A3.46,3.46,0,0,1,127,4.72V15.16a3.47,3.47,0,0,1-2.89,3.42l-3.76.62A4.33,4.33,0,0,0,116.76,23l-5.63,55.8s2,4,2,5.88V327.35a84.8,84.8,0,0,0,10.71,41.24l54.71,98.32a65.73,65.73,0,0,1-2.12,67.48S159,563.8,136,563.8L93.43,564l4.53,0,47.13-.26c23,0,40.39-29.41,40.39-29.41A65.73,65.73,0,0,0,187.6,466.91Z" style="mix-blend-mode:overlay;opacity:0.4;fill:url(#Degradado_sin_nombre_8)"/><path id="brillo2" d="M166.76,467.48,129.19,400a102.73,102.73,0,0,1-13-49.92,92.52,92.52,0,0,1-3.08-15s-.93,38.81,10.45,68.33L153.9,466a64.39,64.39,0,0,1-2.08,66.2c-.19.33-24.94,30.34-46.95,30.34l-36.9.21,10.24,0,47.13-.26c22,0,39.15-28.5,39.34-28.83A64.39,64.39,0,0,0,166.76,467.48Z" style="mix-blend-mode:overlay;opacity:0.4;fill:url(#Degradado_sin_nombre_14)"/><path id="brillo3" d="M43.89,467.48,98.6,369.16,87,393.42,54.68,467.48a64.39,64.39,0,0,0,2.08,66.2c.2.33,27,28.83,49,28.83l36.9.21-10.24,0-47.14-.26c-22,0-39.14-28.5-39.33-28.83A64.39,64.39,0,0,1,43.89,467.48Z" style="mix-blend-mode:overlay;opacity:0.4;fill:url(#Degradado_sin_nombre_11)"/><path id="brillo4" d="M78.13,563.8c-23,0-40.39-29.41-40.39-29.41a65.73,65.73,0,0,1-2.12-67.48l43.21-98.32a84.8,84.8,0,0,0,10.71-41.24V84.7c0-1.84,2-5.88,2-5.88L85.91,23a4.33,4.33,0,0,0-3.59-3.82l-3.76-.62a3.47,3.47,0,0,1-2.89-3.42V4.72a3.46,3.46,0,0,1,3.46-3.47H64.56a3.47,3.47,0,0,0-3.47,3.47V15.16A3.48,3.48,0,0,0,64,18.58l3.76.62A4.31,4.31,0,0,1,71.33,23L77,78.82s-2,4-2,5.88V327.35a84.8,84.8,0,0,1-10.71,41.24L9.55,466.91a65.73,65.73,0,0,0,2.12,67.48S29.06,563.8,52.06,563.8l47.13.26,13-.07Z" style="mix-blend-mode:overlay;opacity:0.4;fill:url(#Degradado_sin_nombre_10)"/><path id="brillo5" d="M99.19,18.62l30.27-.39a5.4,5.4,0,0,0-3.28,3.17h-54a5.4,5.4,0,0,0-3.28-3.17Z" style="fill:#fff;opacity:0.05"/><path id="brillo6" d="M120.3,79.28c1,2.21,1.9,4.33,1.87,5.84h-46c0-1.51.86-3.63,1.88-5.84Z" style="fill:#fff;opacity:0.05"/><polyline id="brillo7" points="122.54 2.5 122.54 18.23 119.9 21.4 115.27 78.71 118.03 85.1 116.27 328.02 113.17 328.02 113.16 85.32 111.39 78.82 115.83 21.4 117.89 18.23 117.94 2.5" style="opacity:0.5;fill:url(#Degradado_sin_nombre_2)"/><g id="escala"><rect x="61.99" y="493.89" width="33.09" height="28.28" rx="5.45" style="fill:#fff"/><path d="M108.17,522.24h-2.25v-8.69l-2.7.84v-1.84l4.71-1.68h.24Z" style="fill:#fff"/><path d="M119.51,517.55a5.74,5.74,0,0,1-1,3.6,3.88,3.88,0,0,1-5.69,0,5.56,5.56,0,0,1-1-3.51v-2.09a5.67,5.67,0,0,1,1-3.61,3.9,3.9,0,0,1,5.68,0,5.56,5.56,0,0,1,1,3.51Zm-2.26-2.3a4.27,4.27,0,0,0-.38-2.06,1.31,1.31,0,0,0-1.21-.64,1.27,1.27,0,0,0-1.17.61,3.86,3.86,0,0,0-.41,1.92v2.76a4.4,4.4,0,0,0,.38,2.07,1.3,1.3,0,0,0,1.22.67,1.25,1.25,0,0,0,1.19-.65,4.3,4.3,0,0,0,.38-2Z" style="fill:#fff"/><path d="M128.68,517.55a5.74,5.74,0,0,1-1,3.6,3.9,3.9,0,0,1-5.7,0,5.56,5.56,0,0,1-1-3.51v-2.09a5.73,5.73,0,0,1,1-3.61,3.92,3.92,0,0,1,5.69,0,5.62,5.62,0,0,1,1,3.51Zm-2.26-2.3a4.14,4.14,0,0,0-.39-2.06,1.45,1.45,0,0,0-2.38,0,4,4,0,0,0-.4,1.92v2.76a4.4,4.4,0,0,0,.38,2.07,1.28,1.28,0,0,0,1.21.67,1.26,1.26,0,0,0,1.2-.65,4.3,4.3,0,0,0,.38-2Z" style="fill:#fff"/><path d="M132.4,513.8l.07,1a3,3,0,0,1,2.43-1.1,2.25,2.25,0,0,1,2.24,1.28,2.89,2.89,0,0,1,2.54-1.28,2.5,2.5,0,0,1,2,.8,3.64,3.64,0,0,1,.67,2.4v5.39h-2.26v-5.38a1.59,1.59,0,0,0-.28-1.05,1.25,1.25,0,0,0-1-.33,1.41,1.41,0,0,0-1.41,1v5.79h-2.25v-5.37a1.6,1.6,0,0,0-.29-1.06,1.27,1.27,0,0,0-1-.33,1.43,1.43,0,0,0-1.38.8v6h-2.26V513.8Z" style="fill:#fff"/><path d="M146.61,520.36h5v1.88h-7.31V510.88h2.34Z" style="fill:#fff"/><line id="medida" x1="73.96" y1="268.62" x2="124.83" y2="268.62" style="fill:none;stroke:#eaeaea;stroke-miterlimit:10"/></g></g></g></g></svg>