<svg xmlns="http://www.w3.org/2000/svg" xmlns:xlink="http://www.w3.org/1999/xlink" viewBox="0 0 205.92 572.81"><defs><linearGradient id="Degradado_sin_nombre_8" x1="97.2" y1="286.41" x2="199.67" y2="286.41" gradientUnits="userSpaceOnUse"><stop offset="0" stop-color="#fff" stop-opacity="0"/><stop offset="1" stop-color="#fff"/></linearGradient><linearGradient id="Degradado_sin_nombre_14" x1="125.21" y1="291.89" x2="125.21" y2="590.45" gradientUnits="userSpaceOnUse"><stop offset="0" stop-color="#fff" stop-opacity="0"/><stop offset="0.58" stop-color="#fff" stop-opacity="0.5"/><stop offset="0.98" stop-color="#fff" stop-opacity="0"/></linearGradient><linearGradient id="Degradado_sin_nombre_11" x1="41.55" y1="798.83" x2="41.55" y2="27.48" gradientTransform="matrix(-1, 0, 0, 1, 134.52, 0)" gradientUnits="userSpaceOnUse"><stop offset="0.26" stop-color="#fff" stop-opacity="0"/><stop offset="0.32" stop-color="#fff" stop-opacity="0.01"/><stop offset="0.35" stop-color="#fff" stop-opacity="0.03"/><stop offset="0.36" stop-color="#fff" stop-opacity="0.08"/><stop offset="0.38" stop-color="#fff" stop-opacity="0.15"/><stop offset="0.39" stop-color="#fff" stop-opacity="0.23"/><stop offset="0.4" stop-color="#fff" stop-opacity="0.34"/><stop offset="0.41" stop-color="#fff" stop-opacity="0.46"/><stop offset="0.41" stop-color="#fff" stop-opacity="0.5"/><stop offset="0.42" stop-color="#fff" stop-opacity="0.45"/><stop offset="0.46" stop-color="#fff" stop-opacity="0.31"/><stop offset="0.5" stop-color="#fff" stop-opacity="0.2"/><stop offset="0.54" stop-color="#fff" stop-opacity="0.11"/><stop offset="0.59" stop-color="#fff" stop-opacity="0.05"/><stop offset="0.64" stop-color="#fff" stop-opacity="0.01"/><stop offset="0.71" stop-color="#fff" stop-opacity="0"/></linearGradient><linearGradient id="Degradado_sin_nombre_10" x1="26.13" y1="286.41" x2="137.1" y2="286.41" gradientUnits="userSpaceOnUse"><stop offset="0" stop-color="#fff"/><stop offset="0.98" stop-color="#fff" stop-opacity="0"/></linearGradient><linearGradient id="Degradado_sin_nombre_2" x1="120.73" y1="-4.42" x2="120.73" y2="321.1" gradientUnits="userSpaceOnUse"><stop offset="0" stop-color="#fff" stop-opacity="0.7"/><stop offset="1" stop-color="#fff" stop-opacity="0"/></linearGradient></defs><g style="isolation:isolate"><g id="Matraz_volumetrico" data-name="Matraz volumetrico"><path id="halo" d="M137.59,5a3.47,3.47,0,0,1,3.47,3.47V18.91a3.48,3.48,0,0,1-2.9,3.42L134.4,23a4.32,4.32,0,0,0-3.58,3.82l-5.64,55.8s2,4,2,5.88V331.1a84.79,84.79,0,0,0,10.7,41.24l54.72,98.32a65.75,65.75,0,0,1-2.12,67.48s-17.39,29.41-40.39,29.41l-47.14.26-47.14-.26c-23,0-40.38-29.41-40.38-29.41a65.73,65.73,0,0,1-2.13-67.48L68,372.34a84.79,84.79,0,0,0,10.7-41.24V88.45c0-1.84,2-5.88,2-5.88L75.1,26.77A4.31,4.31,0,0,0,71.52,23l-3.76-.62a3.48,3.48,0,0,1-2.9-3.42V8.47A3.47,3.47,0,0,1,68.33,5h69.26m0-5H68.33a8.48,8.48,0,0,0-8.47,8.47V18.91a8.44,8.44,0,0,0,7.08,8.35l3.24.54,5.44,53.89a18.83,18.83,0,0,0-1.89,6.76V331.1a80,80,0,0,1-10.07,38.81L9,468.23a70.62,70.62,0,0,0,2.23,72.54c1.31,2.19,19.49,31.78,44.64,31.78l47.11.26H103l47.13-.26c25.13,0,43.31-29.59,44.62-31.78A70.64,70.64,0,0,0,197,468.23l-54.72-98.32a80,80,0,0,1-10.07-38.81V88.45a18.83,18.83,0,0,0-1.89-6.76l5.44-53.89,3.25-.54a8.45,8.45,0,0,0,7.07-8.35V8.47A8.48,8.48,0,0,0,137.59,0Z" style="fill:#fff"/><g id="liquido"><path d="M76.12,25.57c-.05-.15-.11-.3-.17-.45C76,25.27,76.07,25.42,76.12,25.57Z" style="fill:#000145"/><path d="M129.8,25.57a2.81,2.81,0,0,0-.08.31A2.81,2.81,0,0,1,129.8,25.57Z" style="fill:#000145"/><path d="M76.33,26.55a4.67,4.67,0,0,0-.13-.67A4.67,4.67,0,0,1,76.33,26.55Z" style="fill:#000145"/><path d="M75.21,23.84l-.08-.11Z" style="fill:#000145"/><path d="M130.71,23.84c-.11.14-.21.28-.31.43A4.73,4.73,0,0,1,130.71,23.84Z" style="fill:#000145"/><path d="M130.24,24.56a5.77,5.77,0,0,0-.27.56A5.77,5.77,0,0,1,130.24,24.56Z" style="fill:#000145"/><path d="M75.68,24.56a2.69,2.69,0,0,0-.16-.29A2.69,2.69,0,0,1,75.68,24.56Z" style="fill:#000145"/><path d="M6.25,502.51v0Z" style="fill:#000145"/><path d="M199.67,502.51c0,.13,0,.27,0,.41C199.66,502.78,199.67,502.64,199.67,502.51Z" style="fill:#000145"/><path d="M41.61,562.48a30.42,30.42,0,0,0,14.22,3.82l31.27.17-31.27-.17A30.42,30.42,0,0,1,41.61,562.48Z" style="fill:#000145"/><path d="M14.23,533.68a64.5,64.5,0,0,1-8-30.76A64.44,64.44,0,0,0,14.23,533.68Z" style="fill:#000145"/><polygon points="102.96 566.56 118.82 566.48 102.96 566.56 102.96 566.56" style="fill:#000145"/><path d="M189.43,537.47c-.15.25-10.36,17.23-25.12,25,14.76-7.77,25-24.75,25.1-25q1.22-1.89,2.28-3.83Q190.63,535.6,189.43,537.47Z" style="fill:#000145"/><path d="M130.79,23.73a6,6,0,0,1,1.33-1.19h0A5.39,5.39,0,0,0,130.79,23.73Z" style="fill:#000145"/><path d="M123.9,82.8l.16.32c.73,1.46,1.88,4.2,1.88,5.33V331.1A86.22,86.22,0,0,0,136.8,373l54.71,98.31a64.48,64.48,0,0,1,8.16,31.23,64.44,64.44,0,0,0-8.15-31.23L136.8,373a86.33,86.33,0,0,1-10.86-41.85V88.45c0-1.13-1.15-3.87-1.88-5.33l-.16-.32,5.68-56.15s0-.07,0-.1a.44.44,0,0,1,0,.1Z" style="fill:#000145"/><path d="M75.52,24.27c-.1-.15-.2-.29-.31-.43A4.73,4.73,0,0,1,75.52,24.27Z" style="fill:#000145"/><polygon points="102.96 566.56 102.96 566.56 87.1 566.48 102.96 566.56" style="fill:#000145"/><path d="M76,25.12a5.77,5.77,0,0,0-.27-.56A5.77,5.77,0,0,1,76,25.12Z" style="fill:#000145"/><path d="M76.2,25.88a2.81,2.81,0,0,0-.08-.31A2.81,2.81,0,0,1,76.2,25.88Z" style="fill:#000145"/><path d="M6.26,502.92c0-.14,0-.28,0-.41C6.25,502.64,6.26,502.78,6.26,502.92Z" style="fill:#000145"/><path d="M73.8,22.54h0a6,6,0,0,1,1.33,1.19A5.39,5.39,0,0,0,73.8,22.54Z" style="fill:#000145"/><path d="M69.12,373A86.22,86.22,0,0,0,80,331.1V88.45c0-1.13,1.15-3.87,1.88-5.33L82,82.8,76.35,26.65a.44.44,0,0,1,0-.1s0,.06,0,.1L82,82.8l-.16.32c-.73,1.46-1.88,4.2-1.88,5.33V331.1A86.22,86.22,0,0,1,69.12,373L14.4,471.26a64.56,64.56,0,0,0-8.15,31.23,64.48,64.48,0,0,1,8.16-31.23Z" style="fill:#000145"/><path d="M199.66,502.92a64.5,64.5,0,0,1-8,30.76A64.44,64.44,0,0,0,199.66,502.92Z" style="fill:#000145"/><path d="M16.49,537.47q-1.2-1.87-2.26-3.79,1.06,1.94,2.28,3.83c.13.22,10.34,17.2,25.1,25C26.85,554.7,16.64,537.72,16.49,537.47Z" style="fill:#000145"/><path d="M118.82,566.47l31.28-.17a30.41,30.41,0,0,0,14.21-3.82,30.42,30.42,0,0,1-14.22,3.82Z" style="fill:#000145"/><path d="M199.67,502.49v0Z" style="fill:#000145"/><path d="M130.4,24.27a2.69,2.69,0,0,0-.16.29A2.69,2.69,0,0,1,130.4,24.27Z" style="fill:#000145"/><path d="M129.72,25.88a4.67,4.67,0,0,0-.13.67A4.67,4.67,0,0,1,129.72,25.88Z" style="fill:#000145"/><path d="M130.79,23.73l-.08.11Z" style="fill:#000145"/><path d="M130,25.12c-.06.15-.12.3-.17.45C129.85,25.42,129.91,25.27,130,25.12Z" style="fill:#000145"/><path d="M199.67,502.49a64.48,64.48,0,0,0-8.16-31.23L136.8,373a86.22,86.22,0,0,1-10.86-41.85V88.45c0-1.13-1.15-3.87-1.88-5.33l-.16-.32,5.67-56.15a.44.44,0,0,0,0-.1,4.67,4.67,0,0,1,.13-.67,2.81,2.81,0,0,1,.08-.31c0-.15.11-.3.17-.45a5.77,5.77,0,0,1,.27-.56,2.69,2.69,0,0,1,.16-.29c.1-.15.2-.29.31-.43l.08-.11a5.39,5.39,0,0,1,1.33-1.19V6.25H73.8V22.54a5.39,5.39,0,0,1,1.33,1.19l.08.11c.11.14.21.28.31.43a2.69,2.69,0,0,1,.16.29,5.77,5.77,0,0,1,.27.56c.06.15.12.3.17.45a2.81,2.81,0,0,1,.08.31,4.67,4.67,0,0,1,.13.67.44.44,0,0,0,0,.1L82,82.8l-.16.32c-.73,1.46-1.88,4.2-1.88,5.33V331.1A86.22,86.22,0,0,1,69.12,373L14.41,471.26a64.48,64.48,0,0,0-8.16,31.23v0c0,.13,0,.27,0,.41a64.5,64.5,0,0,0,8,30.76q1.06,1.92,2.26,3.79c.15.25,10.36,17.23,25.12,25a30.42,30.42,0,0,0,14.22,3.82l31.27.17,15.86.09,15.86-.09,31.27-.17a30.42,30.42,0,0,0,14.22-3.82c14.76-7.78,25-24.76,25.12-25q1.2-1.87,2.26-3.79a64.5,64.5,0,0,0,8-30.76c0-.14,0-.28,0-.41Z" style="fill:#000145"/></g><g id="cuerpo"><path id="borde" d="M103,567.81l47.14-.26c23,0,40.39-29.41,40.39-29.41a65.75,65.75,0,0,0,2.12-67.48l-54.72-98.32a84.79,84.79,0,0,1-10.7-41.24V88.45c0-1.84-2-5.88-2-5.88l5.64-55.8A4.32,4.32,0,0,1,134.4,23l3.76-.62a3.48,3.48,0,0,0,2.9-3.42V8.47A3.47,3.47,0,0,0,137.59,5H68.33a3.47,3.47,0,0,0-3.47,3.47V18.91a3.48,3.48,0,0,0,2.9,3.42l3.76.62a4.31,4.31,0,0,1,3.58,3.82l5.64,55.8s-2,4-2,5.88V331.1A84.79,84.79,0,0,1,68,372.34L13.31,470.66a65.73,65.73,0,0,0,2.13,67.48s17.38,29.41,40.38,29.41Z" style="fill:none;stroke:#fff;stroke-miterlimit:10;stroke-width:2.5px;opacity:0.30000000000000004"/><path id="cuerpo-2" data-name="cuerpo" d="M68.33,6.25a2.22,2.22,0,0,0-2.22,2.22V18.91A2.2,2.2,0,0,0,68,21.09l3.77.63a5.59,5.59,0,0,1,4.62,4.93L82,82.8l-.16.32c-.73,1.46-1.88,4.2-1.88,5.33V331.1A86.22,86.22,0,0,1,69.12,373L14.41,471.26a64.4,64.4,0,0,0,2.08,66.21c.19.33,17.32,28.83,39.34,28.83l47.13.26,47.13-.26c22,0,39.15-28.5,39.32-28.79a64.46,64.46,0,0,0,2.11-66.25L136.8,373a86.33,86.33,0,0,1-10.86-41.85V88.45c0-1.13-1.15-3.87-1.88-5.33l-.16-.32,5.68-56.15a5.57,5.57,0,0,1,4.62-4.93l3.76-.63a2.2,2.2,0,0,0,1.85-2.18V8.47a2.21,2.21,0,0,0-2.21-2.22H68.33Z" style="fill:#fff;opacity:0.05"/><path id="brillo1" d="M191.37,470.66l-54.71-98.32A84.8,84.8,0,0,1,126,331.1V88.45c0-1.84-2-5.88-2-5.88l5.63-55.8A4.33,4.33,0,0,1,133.17,23l3.76-.62a3.47,3.47,0,0,0,2.89-3.42V8.47A3.46,3.46,0,0,0,136.36,5h-9.05a3.46,3.46,0,0,1,3.46,3.47V18.91a3.47,3.47,0,0,1-2.89,3.42l-3.77.62a4.32,4.32,0,0,0-3.58,3.82l-5.64,55.8s2,4,2,5.88V331.1a84.79,84.79,0,0,0,10.7,41.24l54.72,98.32a65.75,65.75,0,0,1-2.12,67.48s-17.39,29.41-40.39,29.41l-42.61.24,4.53,0,47.13-.26c23,0,40.39-29.41,40.39-29.41A65.73,65.73,0,0,0,191.37,470.66Z" style="mix-blend-mode:overlay;opacity:0.4;fill:url(#Degradado_sin_nombre_8)"/><path id="brillo2" d="M170.53,471.23,133,403.7a102.63,102.63,0,0,1-13-49.92,93.63,93.63,0,0,1-3.07-15s-.93,38.81,10.45,68.33l30.29,62.63a64.39,64.39,0,0,1-2.08,66.2c-.19.33-24.94,30.34-47,30.34l-36.89.21,10.24,0,47.13-.26c22,0,39.14-28.5,39.34-28.83A64.39,64.39,0,0,0,170.53,471.23Z" style="mix-blend-mode:overlay;opacity:0.4;fill:url(#Degradado_sin_nombre_14)"/><path id="brillo3" d="M47.65,471.23l54.72-98.32L90.81,397.17,58.45,471.23a64.39,64.39,0,0,0,2.08,66.2c.19.33,27,28.83,49,28.83l36.9.21-10.24,0-47.14-.26c-22,0-39.14-28.5-39.34-28.83A64.41,64.41,0,0,1,47.65,471.23Z" style="mix-blend-mode:overlay;opacity:0.4;fill:url(#Degradado_sin_nombre_11)"/><path id="brillo4" d="M81.89,567.55c-23,0-40.38-29.41-40.38-29.41a65.73,65.73,0,0,1-2.13-67.48L82.6,372.34A84.8,84.8,0,0,0,93.31,331.1V88.45c0-1.84,2-5.88,2-5.88l-5.64-55.8A4.31,4.31,0,0,0,86.09,23l-3.76-.62a3.48,3.48,0,0,1-2.9-3.42V8.47A3.47,3.47,0,0,1,82.9,5H68.33a3.47,3.47,0,0,0-3.47,3.47V18.91a3.48,3.48,0,0,0,2.9,3.42l3.76.62a4.31,4.31,0,0,1,3.58,3.82l5.64,55.8s-2,4-2,5.88V331.1A84.79,84.79,0,0,1,68,372.34L13.31,470.66a65.73,65.73,0,0,0,2.13,67.48s17.38,29.41,40.38,29.41l47.14.26,13-.07Z" style="mix-blend-mode:overlay;opacity:0.4;fill:url(#Degradado_sin_nombre_10)"/><path id="brillo5" d="M103,22.37,133.22,22a5.45,5.45,0,0,0-3.28,3.17H76A5.45,5.45,0,0,0,72.7,22Z" style="fill:#fff;opacity:0.05"/><path id="brillo6" d="M124.06,83c1,2.21,1.91,4.33,1.88,5.84H80c0-1.51.86-3.63,1.87-5.84Z" style="fill:#fff;opacity:0.05"/><polyline id="brillo7" points="126.31 6.25 126.31 21.98 123.67 25.15 119.04 82.46 121.79 88.85 120.03 331.77 116.93 331.77 116.93 89.07 115.16 82.57 119.6 25.15 121.66 21.98 121.71 6.25" style="opacity:0.5;fill:url(#Degradado_sin_nombre_2)"/><g id="escala"><rect x="65.76" y="497.64" width="33.09" height="28.28" rx="5.45" style="fill:#fff"/><path d="M111.94,526h-2.26V517.3l-2.69.84V516.3l4.71-1.68h.24Z" style="fill:#fff"/><path d="M123.27,521.3a5.74,5.74,0,0,1-1,3.6,3.9,3.9,0,0,1-5.7,0,5.56,5.56,0,0,1-1-3.51v-2.09a5.73,5.73,0,0,1,1-3.61,3.92,3.92,0,0,1,5.69,0,5.56,5.56,0,0,1,1,3.51ZM121,519a4.14,4.14,0,0,0-.39-2.06,1.45,1.45,0,0,0-2.38,0,4,4,0,0,0-.4,1.92v2.76a4.4,4.4,0,0,0,.38,2.07,1.28,1.28,0,0,0,1.21.67,1.26,1.26,0,0,0,1.2-.65,4.3,4.3,0,0,0,.38-2Z" style="fill:#fff"/><path d="M132.44,521.3a5.74,5.74,0,0,1-1,3.6,3.9,3.9,0,0,1-5.7,0,5.62,5.62,0,0,1-1-3.51v-2.09a5.67,5.67,0,0,1,1-3.61,3.92,3.92,0,0,1,5.69,0,5.56,5.56,0,0,1,1,3.51Zm-2.25-2.3a4.14,4.14,0,0,0-.39-2.06,1.3,1.3,0,0,0-1.2-.64,1.28,1.28,0,0,0-1.18.61,4,4,0,0,0-.4,1.92v2.76a4.4,4.4,0,0,0,.38,2.07,1.43,1.43,0,0,0,2.41,0,4.3,4.3,0,0,0,.38-2Z" style="fill:#fff"/><path d="M136.17,517.55l.07,1a3,3,0,0,1,2.43-1.1,2.25,2.25,0,0,1,2.24,1.28,2.88,2.88,0,0,1,2.53-1.28,2.51,2.51,0,0,1,2.05.8,3.64,3.64,0,0,1,.67,2.4V526H143.9v-5.38a1.65,1.65,0,0,0-.28-1.05,1.26,1.26,0,0,0-1-.33,1.4,1.4,0,0,0-1.4,1V526H139v-5.37a1.54,1.54,0,0,0-.29-1.06,1.24,1.24,0,0,0-1-.33,1.45,1.45,0,0,0-1.39.8v6h-2.25v-8.44Z" style="fill:#fff"/><path d="M150.38,524.11h5V526H148V514.63h2.34Z" style="fill:#fff"/><line id="medida" x1="77.73" y1="272.37" x2="128.6" y2="272.37" style="fill:none;stroke:#eaeaea;stroke-miterlimit:10"/></g></g></g></g></svg>